<svg width="450" height="450" viewBox="0 0 450 450" fill="none" xmlns="http://www.w3.org/2000/svg"><g clip-path="url(#a)"><path d="M488 356.79H-38v.263h526v-.263Zm-52.705 16.926h-34.842v.263h34.842v-.263Zm-124.851 2.862h-9.142v.263h9.142v-.263Zm88.957-12.624h-20.188v.263h20.188v-.263Zm-336.778 1.767H17.188v.263h45.435v-.263Zm16.033 0h-6.659v.263h6.66v-.263Zm120.202 4.439h-98.551v.263h98.551v-.263Zm12.477-60.29H8.193a6.011 6.011 0 0 1-6.006-6.006V18.319a6.012 6.012 0 0 1 6.006-6.007h203.142a6.012 6.012 0 0 1 6.007 6.007v285.545a6.012 6.012 0 0 1-6.007 6.006ZM8.193 12.575A5.751 5.751 0 0 0 2.45 18.32v285.545a5.75 5.75 0 0 0 5.743 5.743h203.142a5.751 5.751 0 0 0 5.744-5.743V18.319a5.752 5.752 0 0 0-5.744-5.744H8.193Zm430.69 297.295H235.741a6.011 6.011 0 0 1-6.007-6.006V18.319a6.012 6.012 0 0 1 6.007-6.007h203.142a6.011 6.011 0 0 1 6.006 6.007v285.545a6.011 6.011 0 0 1-6.006 6.006ZM235.741 12.575a5.752 5.752 0 0 0-5.744 5.744v285.545a5.751 5.751 0 0 0 5.744 5.743h203.142a5.75 5.75 0 0 0 5.743-5.743V18.319a5.75 5.75 0 0 0-5.743-5.744H235.741Z" fill="#EBEBEB"/><path d="M301.565 66.248H32.222v222.393h269.343V66.248Z" fill="#F5F5F5"/><path d="M301.554 70.96H36.534v213.157h265.02V70.961Z" fill="#FAFAFA"/><path d="M38.49 223.48v-75.313h7.828v-9.941l17.61-8.237v-10.184h2.935v28.362h2.925v75.313H73.7v-39.124h8.806v-20.535h2.935v59.659h6.848v-22.492h4.892v-5.87h10.751v-20.545h5.871v-13.687h6.848V140.34h2.935v20.546h6.849v13.687h5.859v20.545h10.762v5.87h4.892v22.492h5.87v-28.362h10.752v-62.594h2.935v-6.848h23.48v6.848h4.882v44.984h19.567v4.891h6.848v2.935h-6.848v17.611h20.535v-58.691h3.913v-11.73h9.784V87.53h2.935v44.994h6.849v11.73h38.103v139.863H36.534V223.48h1.957Z" fill="#F0F0F0"/><path d="M281.187 147.326h-2.767v2.766h2.767v-2.766Zm0 4.639h-2.767v2.767h2.767v-2.767Zm0 18.589h-2.767v2.767h2.767v-2.767Zm0 4.639h-2.767v2.767h2.767v-2.767Zm0 4.65h-2.767v2.767h2.767v-2.767Zm0 13.939h-2.767v2.767h2.767v-2.767Zm0 4.639h-2.767v2.767h2.767v-2.767Zm-4.397-32.517h-2.767v2.767h2.767v-2.767Zm0 4.65h-2.767v2.767h2.767v-2.767Zm0 4.639h-2.767v2.767h2.767v-2.767Zm0 4.65h-2.767v2.767h2.767v-2.767Zm0 4.65h-2.767v2.767h2.767v-2.767Zm0 9.289h-2.767v2.767h2.767v-2.767Zm0 4.639h-2.767v2.767h2.767v-2.767Zm-4.408-51.095h-2.767v2.766h2.767v-2.766Zm0 4.639h-2.767v2.767h2.767v-2.767Zm0 4.65h-2.767v2.767h2.767v-2.767Zm0 4.65h-2.767v2.766h2.767v-2.766Zm0 4.639h-2.767v2.767h2.767v-2.767Zm0 4.65h-2.767v2.767h2.767v-2.767Zm0 4.639h-2.767v2.767h2.767v-2.767Zm0 4.65h-2.767v2.767h2.767v-2.767Zm0 4.65h-2.767v2.767h2.767v-2.767Zm0 4.639h-2.767v2.767h2.767v-2.767Zm0 9.289h-2.767v2.767h2.767v-2.767Zm-4.397-51.095h-2.767v2.766h2.767v-2.766Zm0 4.639h-2.767v2.767h2.767v-2.767Zm0 4.65h-2.767v2.767h2.767v-2.767Zm0 4.65h-2.767v2.766h2.767v-2.766Zm0 4.639h-2.767v2.767h2.767v-2.767Zm0 4.65h-2.767v2.767h2.767v-2.767Zm0 4.639h-2.767v2.767h2.767v-2.767Zm0 41.817h-2.767v2.767h2.767v-2.767Zm-4.398-69.684h-2.767v2.766h2.767v-2.766Zm0 4.639h-2.767v2.767h2.767v-2.767Zm0 4.65h-2.767v2.767h2.767v-2.767Zm0 4.65h-2.767v2.766h2.767v-2.766Zm0 4.639h-2.767v2.767h2.767v-2.767Zm0 4.65h-2.767v2.767h2.767v-2.767Zm0 4.639h-2.767v2.767h2.767v-2.767Zm0 4.65h-2.767v2.767h2.767v-2.767Zm0 27.878h-2.767v2.767h2.767v-2.767Zm0 4.639h-2.767v2.767h2.767v-2.767Zm0 4.65h-2.767v2.767h2.767v-2.767Zm0 4.65h-2.767v2.767h2.767v-2.767Zm0 18.578h-2.767v2.767h2.767v-2.767Zm-4.408-92.912h-2.767v2.766h2.767v-2.766Zm0 4.639h-2.767v2.767h2.767v-2.767Zm0 4.65h-2.767v2.767h2.767v-2.767Zm0 4.65h-2.767v2.766h2.767v-2.766Zm0 4.639h-2.767v2.767h2.767v-2.767Zm0 4.65h-2.767v2.767h2.767v-2.767Zm0 4.639h-2.767v2.767h2.767v-2.767Zm0 4.65h-2.767v2.767h2.767v-2.767Zm0 4.65h-2.767v2.767h2.767v-2.767Zm0 4.639h-2.767v2.767h2.767v-2.767Zm0 13.939h-2.767v2.767h2.767v-2.767Zm0 4.65h-2.767v2.767h2.767v-2.767Zm0 4.639h-2.767v2.767h2.767v-2.767Zm0 4.65h-2.767v2.767h2.767v-2.767Zm0 4.65h-2.767v2.767h2.767v-2.767Zm0 18.578h-2.767v2.767h2.767v-2.767Zm-4.397-92.912h-2.766v2.766h2.766v-2.766Zm0 4.639h-2.766v2.767h2.766v-2.767Zm0 4.65h-2.766v2.767h2.766v-2.767Zm0 4.65h-2.766v2.766h2.766v-2.766Zm0 4.639h-2.766v2.767h2.766v-2.767Zm0 4.65h-2.766v2.767h2.766v-2.767Zm0 4.639h-2.766v2.767h2.766v-2.767Zm0 4.65h-2.766v2.767h2.766v-2.767Zm0 4.65h-2.766v2.767h2.766v-2.767Zm0 4.639h-2.766v2.767h2.766v-2.767Zm0 4.65h-2.766v2.767h2.766v-2.767Zm0 4.639h-2.766v2.767h2.766v-2.767Zm0 4.65h-2.766v2.767h2.766v-2.767Zm0 4.65h-2.766v2.767h2.766v-2.767Zm0 4.639h-2.766v2.767h2.766v-2.767Zm0 4.65h-2.766v2.767h2.766v-2.767Zm0 4.65h-2.766v2.767h2.766v-2.767Zm0 4.639h-2.766v2.767h2.766v-2.767Zm-4.397-78.973h-2.767v2.766h2.767v-2.766Zm0 4.639h-2.767v2.767h2.767v-2.767Zm0 4.65h-2.767v2.767h2.767v-2.767Zm0 4.65h-2.767v2.766h2.767v-2.766Zm0 4.639h-2.767v2.767h2.767v-2.767Zm0 4.65h-2.767v2.767h2.767v-2.767Zm0 4.639h-2.767v2.767h2.767v-2.767Zm0 4.65h-2.767v2.767h2.767v-2.767Zm0 4.65h-2.767v2.767h2.767v-2.767Zm0 4.639h-2.767v2.767h2.767v-2.767Zm0 13.939h-2.767v2.767h2.767v-2.767Zm0 4.65h-2.767v2.767h2.767v-2.767Zm0 4.639h-2.767v2.767h2.767v-2.767Zm0 4.65h-2.767v2.767h2.767v-2.767Zm-4.408-69.684h-2.767v2.766h2.767v-2.766Zm0 4.639h-2.767v2.767h2.767v-2.767Zm0 4.65h-2.767v2.767h2.767v-2.767Zm0 4.65h-2.767v2.766h2.767v-2.766Zm0 4.639h-2.767v2.767h2.767v-2.767Zm0 4.65h-2.767v2.767h2.767v-2.767Zm0 4.639h-2.767v2.767h2.767v-2.767Zm0 4.65h-2.767v2.767h2.767v-2.767Zm0 4.65h-2.767v2.767h2.767v-2.767Zm0 4.639h-2.767v2.767h2.767v-2.767Zm0 13.939h-2.767v2.767h2.767v-2.767Zm0 4.65h-2.767v2.767h2.767v-2.767Zm0 4.639h-2.767v2.767h2.767v-2.767Zm-49.549-77.101h-2.767v2.767h2.767v-2.767Zm0 4.65h-2.767v2.767h2.767v-2.767Zm0 4.64h-2.767v2.766h2.767v-2.766Zm0 4.649h-2.767v2.767h2.767v-2.767Zm0 4.65h-2.767v2.767h2.767v-2.767Zm0 4.64h-2.767v2.766h2.767v-2.766Zm0 4.649h-2.767v2.767h2.767v-2.767Zm0 4.64h-2.767v2.766h2.767v-2.766Zm0 13.939h-2.767v2.766h2.767v-2.766Zm0 4.649h-2.767v2.767h2.767v-2.767Zm-4.408-51.106h-2.767v2.767h2.767v-2.767Zm0 4.65h-2.767v2.767h2.767v-2.767Zm0 4.64h-2.767v2.766h2.767v-2.766Zm0 4.649h-2.767v2.767h2.767v-2.767Zm0 4.65h-2.767v2.767h2.767v-2.767Zm0 4.64h-2.767v2.766h2.767v-2.766Zm0 4.649h-2.767v2.767h2.767v-2.767Zm0 4.64h-2.767v2.766h2.767v-2.766Zm0 18.588h-2.767v2.767h2.767v-2.767Zm-4.398-51.106h-2.767v2.767h2.767v-2.767Zm0 4.65h-2.767v2.767h2.767v-2.767Zm0 4.64h-2.767v2.766h2.767v-2.766Zm0 4.649h-2.767v2.767h2.767v-2.767Zm0 4.65h-2.767v2.767h2.767v-2.767Zm0 4.64h-2.767v2.766h2.767v-2.766Zm0 4.649h-2.767v2.767h2.767v-2.767Zm0 4.64h-2.767v2.766h2.767v-2.766Zm-4.397-32.518h-2.767v2.767h2.767v-2.767Zm0 4.65h-2.767v2.767h2.767v-2.767Zm0 4.64h-2.767v2.766h2.767v-2.766Zm0 4.649h-2.767v2.767h2.767v-2.767Zm0 4.65h-2.767v2.767h2.767v-2.767Zm0 4.64h-2.767v2.766h2.767v-2.766Zm0 9.289h-2.767v2.766h2.767v-2.766Zm0 4.65h-2.767v2.766h2.767v-2.766Zm0 13.938h-2.767v2.767h2.767v-2.767Zm0 4.64h-2.767v2.766h2.767v-2.766Zm0 4.65h-2.767v2.766h2.767v-2.766Zm0 4.649h-2.767v2.767h2.767v-2.767Zm0 4.64h-2.767v2.767h2.767v-2.767Zm0 4.65h-2.767v2.766h2.767v-2.766Zm0 4.639h-2.767V217h2.767v-2.767Zm-4.407-78.974h-2.767v2.767h2.767v-2.767Zm0 4.65h-2.767v2.767h2.767v-2.767Zm0 4.64h-2.767v2.766h2.767v-2.766Zm0 4.649h-2.767v2.767h2.767v-2.767Zm0 4.65h-2.767v2.767h2.767v-2.767Zm0 4.64h-2.767v2.766h2.767v-2.766Zm0 13.939h-2.767v2.766h2.767v-2.766Zm0 4.649h-2.767v2.767h2.767v-2.767Zm0 4.64h-2.767v2.766h2.767v-2.766Zm0 4.649h-2.767v2.767h2.767v-2.767Zm0 4.64h-2.767v2.766h2.767v-2.766Zm0 4.65h-2.767v2.766h2.767v-2.766Zm0 4.649h-2.767v2.767h2.767v-2.767Zm0 4.64h-2.767v2.767h2.767v-2.767Zm0 4.65h-2.767v2.766h2.767v-2.766Zm0 4.639h-2.767V217h2.767v-2.767Zm0 4.65h-2.767v2.767h2.767v-2.767Zm0 9.289h-2.767v2.767h2.767v-2.767Zm-4.398-92.913h-2.767v2.767h2.767v-2.767Zm0 4.65h-2.767v2.767h2.767v-2.767Zm0 4.64h-2.767v2.766h2.767v-2.766Zm0 4.649h-2.767v2.767h2.767v-2.767Zm0 4.65h-2.767v2.767h2.767v-2.767Zm0 4.64h-2.767v2.766h2.767v-2.766Zm0 13.939h-2.767v2.766h2.767v-2.766Zm0 4.649h-2.767v2.767h2.767v-2.767Zm0 4.64h-2.767v2.766h2.767v-2.766Zm0 4.649h-2.767v2.767h2.767v-2.767Zm0 13.939h-2.767v2.767h2.767v-2.767Zm0 4.64h-2.767v2.767h2.767v-2.767Zm0 4.65h-2.767v2.766h2.767v-2.766Zm0 4.639h-2.767V217h2.767v-2.767Zm0 4.65h-2.767v2.767h2.767v-2.767Zm0 9.289h-2.767v2.767h2.767v-2.767Zm0 4.65h-2.767v2.767h2.767v-2.767Zm-39.934-54.368h-2.766v2.767h2.766v-2.767Zm0 4.65h-2.766v2.767h2.766v-2.767Zm0 4.65h-2.766v2.767h2.766v-2.767Zm0 4.64h-2.766v2.766h2.766v-2.766Zm0 4.649h-2.766v2.767h2.766v-2.767Zm0 4.639h-2.766v2.767h2.766v-2.767Zm0 4.651h-2.766v2.766h2.766v-2.766Zm0 13.938h-2.766v2.767h2.766v-2.767Zm0 4.64h-2.766v2.766h2.766v-2.766Zm0 4.65h-2.766v2.766h2.766v-2.766Zm-4.408-51.107h-2.766v2.767h2.766v-2.767Zm0 4.65h-2.766v2.767h2.766v-2.767Zm0 4.65h-2.766v2.767h2.766v-2.767Zm0 4.64h-2.766v2.766h2.766v-2.766Zm0 4.649h-2.766v2.767h2.766v-2.767Zm0 4.639h-2.766v2.767h2.766v-2.767Zm0 4.651h-2.766v2.766h2.766v-2.766Zm-4.397-27.879h-2.767v2.767h2.767v-2.767Zm0 4.65h-2.767v2.767h2.767v-2.767Zm0 4.65h-2.767v2.767h2.767v-2.767Zm0 4.64h-2.767v2.766h2.767v-2.766Zm0 4.649h-2.767v2.767h2.767v-2.767Zm0 4.639h-2.767v2.767h2.767v-2.767Zm0 4.651h-2.767v2.766h2.767v-2.766Zm-4.408-27.879h-2.767v2.767h2.767v-2.767Zm0 4.65h-2.767v2.767h2.767v-2.767Zm0 4.65h-2.767v2.767h2.767v-2.767Zm0 4.64h-2.767v2.766h2.767v-2.766Zm0 4.649h-2.767v2.767h2.767v-2.767Zm0 4.639h-2.767v2.767h2.767v-2.767Zm0 4.651h-2.767v2.766h2.767v-2.766Zm0 4.649h-2.767v2.767h2.767v-2.767Zm0 4.639h-2.767v2.767h2.767v-2.767Zm0 4.65h-2.767v2.767h2.767v-2.767Zm0 4.64h-2.767v2.766h2.767v-2.766Zm-4.398-46.457h-2.767v2.767h2.767v-2.767Zm0 4.65h-2.767v2.767h2.767v-2.767Zm0 4.65h-2.767v2.767h2.767v-2.767Zm0 4.64h-2.767v2.766h2.767v-2.766Zm0 4.649h-2.767v2.767h2.767v-2.767Zm0 4.639h-2.767v2.767h2.767v-2.767Zm0 4.651h-2.767v2.766h2.767v-2.766Zm0 4.649h-2.767v2.767h2.767v-2.767Zm0 4.639h-2.767v2.767h2.767v-2.767Zm0 4.65h-2.767v2.767h2.767v-2.767Zm0 4.64h-2.767v2.766h2.767v-2.766Zm0 4.65h-2.767v2.766h2.767v-2.766Zm0 13.939h-2.767v2.766h2.767V243.5Zm0 4.639h-2.767v2.767h2.767v-2.767Zm-4.397-69.685h-2.767v2.767h2.767v-2.767Zm0 4.65h-2.767v2.767h2.767v-2.767Zm0 4.65h-2.767v2.767h2.767v-2.767Zm0 13.928h-2.767v2.767h2.767v-2.767Zm0 4.651h-2.767v2.766h2.767v-2.766Zm0 4.649h-2.767v2.767h2.767v-2.767Zm0 4.639h-2.767v2.767h2.767v-2.767Zm0 4.65h-2.767v2.767h2.767v-2.767Zm0 4.64h-2.767v2.766h2.767v-2.766Zm0 4.65h-2.767v2.766h2.767v-2.766Zm0 13.939h-2.767v2.766h2.767V243.5Zm0 4.639h-2.767v2.767h2.767v-2.767Zm0 4.65h-2.767v2.766h2.767v-2.766Zm-46.13-102.202H63.58v2.767h2.767v-2.767Zm0 4.639H63.58v2.767h2.767v-2.767Zm0 4.65H63.58v2.767h2.767v-2.767Zm0 4.65H63.58v2.767h2.767v-2.767Zm0 4.639H63.58v2.767h2.767v-2.767Zm0 4.65H63.58v2.767h2.767v-2.767Zm0 4.639H63.58v2.767h2.767v-2.767Zm0 4.65H63.58v2.767h2.767v-2.767Zm0 4.65H63.58v2.767h2.767v-2.767Zm0 4.64H63.58v2.766h2.767v-2.766Zm0 4.649H63.58v2.767h2.767v-2.767Zm0 4.639H63.58v2.767h2.767v-2.767Zm0 4.651H63.58v2.766h2.767v-2.766Zm0 4.649H63.58v2.767h2.767v-2.767Zm0 4.639H63.58v2.767h2.767v-2.767Zm0 4.65H63.58v2.767h2.767v-2.767Zm0 4.64H63.58v2.766h2.767v-2.766Zm0 4.65H63.58v2.766h2.767v-2.766Zm0 4.649H63.58v2.767h2.767v-2.767Zm0 4.64H63.58v2.766h2.767v-2.766Zm0 4.65H63.58v2.766h2.767V243.5Zm0 4.639H63.58v2.767h2.767v-2.767Zm0 4.65H63.58v2.766h2.767v-2.766ZM61.94 150.587h-2.766v2.767h2.767v-2.767Zm0 4.639h-2.766v2.767h2.767v-2.767Zm0 4.65h-2.766v2.767h2.767v-2.767Zm0 4.65h-2.766v2.767h2.767v-2.767Zm0 4.639h-2.766v2.767h2.767v-2.767Zm0 4.65h-2.766v2.767h2.767v-2.767Zm0 4.639h-2.766v2.767h2.767v-2.767Zm0 4.65h-2.766v2.767h2.767v-2.767Zm0 4.65h-2.766v2.767h2.767v-2.767Zm0 4.64h-2.766v2.766h2.767v-2.766Zm0 4.649h-2.766v2.767h2.767v-2.767Zm0 4.639h-2.766v2.767h2.767v-2.767Zm0 4.651h-2.766v2.766h2.767v-2.766Zm0 4.649h-2.766v2.767h2.767v-2.767Zm0 4.639h-2.766v2.767h2.767v-2.767Zm0 4.65h-2.766v2.767h2.767v-2.767Zm0 4.64h-2.766v2.766h2.767v-2.766Zm0 4.65h-2.766v2.766h2.767v-2.766Zm0 4.649h-2.766v2.767h2.767v-2.767Zm-4.398-83.623h-2.767v2.767h2.767v-2.767Zm0 4.639h-2.767v2.767h2.767v-2.767Zm0 4.65h-2.767v2.767h2.767v-2.767Zm0 4.65h-2.767v2.767h2.767v-2.767Zm0 4.639h-2.767v2.767h2.767v-2.767Zm0 4.65h-2.767v2.767h2.767v-2.767Zm0 4.639h-2.767v2.767h2.767v-2.767Zm0 4.65h-2.767v2.767h2.767v-2.767Zm0 4.65h-2.767v2.767h2.767v-2.767Zm0 4.64h-2.767v2.766h2.767v-2.766Zm0 4.649h-2.767v2.767h2.767v-2.767Zm0 4.639h-2.767v2.767h2.767v-2.767Zm0 4.651h-2.767v2.766h2.767v-2.766Zm0 4.649h-2.767v2.767h2.767v-2.767Zm0 4.639h-2.767v2.767h2.767v-2.767Zm0 4.65h-2.767v2.767h2.767v-2.767Zm0 4.64h-2.767v2.766h2.767v-2.766Zm0 4.65h-2.767v2.766h2.767v-2.766Zm0 4.649h-2.767v2.767h2.767v-2.767Zm-4.396-83.623h-2.767v2.767h2.767v-2.767Zm0 4.639h-2.767v2.767h2.767v-2.767Zm0 4.65h-2.767v2.767h2.767v-2.767Zm0 4.65h-2.767v2.767h2.767v-2.767Zm0 4.639h-2.767v2.767h2.767v-2.767Zm0 4.65h-2.767v2.767h2.767v-2.767Zm0 4.639h-2.767v2.767h2.767v-2.767Zm0 4.65h-2.767v2.767h2.767v-2.767Zm0 4.65h-2.767v2.767h2.767v-2.767Zm0 4.64h-2.767v2.766h2.767v-2.766Zm0 4.649h-2.767v2.767h2.767v-2.767Zm0 4.639h-2.767v2.767h2.767v-2.767Zm0 4.651h-2.767v2.766h2.767v-2.766Zm0 4.649h-2.767v2.767h2.767v-2.767Zm0 4.639h-2.767v2.767h2.767v-2.767Zm-4.409-65.034h-2.766v2.767h2.767v-2.767Zm0 4.639h-2.766v2.767h2.767v-2.767Zm0 4.65h-2.766v2.767h2.767v-2.767Zm0 4.65h-2.766v2.767h2.767v-2.767Zm0 4.639h-2.766v2.767h2.767v-2.767Zm0 4.65h-2.766v2.767h2.767v-2.767Zm0 4.639h-2.766v2.767h2.767v-2.767Zm0 4.65h-2.766v2.767h2.767v-2.767Zm0 4.65h-2.766v2.767h2.767v-2.767Zm0 4.64h-2.766v2.766h2.767v-2.766Zm0 4.649h-2.766v2.767h2.767v-2.767Zm0 4.639h-2.766v2.767h2.767v-2.767Zm0 4.651h-2.766v2.766h2.767v-2.766Zm-4.397-55.746h-2.767v2.767h2.767v-2.767Zm0 4.639h-2.767v2.767h2.767v-2.767Zm0 4.65h-2.767v2.767h2.767v-2.767Zm0 4.65h-2.767v2.767h2.767v-2.767Zm0 4.639h-2.767v2.767h2.767v-2.767Zm0 4.65h-2.767v2.767h2.767v-2.767Zm0 4.639h-2.767v2.767h2.767v-2.767Zm0 4.65h-2.767v2.767h2.767v-2.767Zm0 4.65h-2.767v2.767h2.767v-2.767Zm0 4.64h-2.767v2.766h2.767v-2.766Zm0 4.649h-2.767v2.767h2.767v-2.767Zm0 4.639h-2.767v2.767h2.767v-2.767Zm256.898-52.484h-2.766v2.767h2.766v-2.767Zm0 4.65h-2.766v2.767h2.766v-2.767Zm0 4.64h-2.766v2.766h2.766v-2.766Zm0 4.649h-2.766v2.767h2.766v-2.767Zm0 4.64h-2.766v2.766h2.766v-2.766Zm0 4.65h-2.766v2.766h2.766v-2.766Zm0 4.649h-2.766v2.767h2.766v-2.767Zm0 4.64h-2.766v2.766h2.766v-2.766Zm0 4.649h-2.766v2.767h2.766v-2.767Zm0 4.64h-2.766v2.766h2.766v-2.766Zm0 4.65h-2.766v2.766h2.766v-2.766Zm0 4.649h-2.766v2.767h2.766v-2.767Zm0 4.64h-2.766v2.767h2.766v-2.767Zm0 4.65h-2.766v2.766h2.766v-2.766Zm0 4.639h-2.766V217h2.766v-2.767Zm0 4.65h-2.766v2.767h2.766v-2.767Zm0 4.649h-2.766v2.767h2.766v-2.767Zm0 9.29h-2.766v2.767h2.766v-2.767Zm0 4.649h-2.766v2.767h2.766v-2.767Zm0 4.64h-2.766v2.767h2.766v-2.767Zm0 4.65h-2.766v2.767h2.766v-2.767Zm0 4.639h-2.766v2.767h2.766V251.4Zm-4.397-102.202h-2.767v2.767h2.767v-2.767Zm0 4.65h-2.767v2.767h2.767v-2.767Zm0 4.64h-2.767v2.766h2.767v-2.766Zm0 4.649h-2.767v2.767h2.767v-2.767Zm0 4.64h-2.767v2.766h2.767v-2.766Zm0 4.65h-2.767v2.766h2.767v-2.766Zm0 4.649h-2.767v2.767h2.767v-2.767Zm0 4.64h-2.767v2.766h2.767v-2.766Zm0 4.649h-2.767v2.767h2.767v-2.767Zm0 4.64h-2.767v2.766h2.767v-2.766Zm0 4.65h-2.767v2.766h2.767v-2.766Zm0 4.649h-2.767v2.767h2.767v-2.767Zm0 4.64h-2.767v2.767h2.767v-2.767Zm0 4.65h-2.767v2.766h2.767v-2.766Zm0 4.639h-2.767V217h2.767v-2.767Zm0 4.65h-2.767v2.767h2.767v-2.767Zm0 27.878h-2.767v2.767h2.767v-2.767Zm0 4.639h-2.767v2.767h2.767V251.4Zm-4.408-102.202h-2.767v2.767h2.767v-2.767Zm0 4.65h-2.767v2.767h2.767v-2.767Zm0 4.64h-2.767v2.766h2.767v-2.766Zm0 4.649h-2.767v2.767h2.767v-2.767Zm0 4.64h-2.767v2.766h2.767v-2.766Zm0 4.65h-2.767v2.766h2.767v-2.766Zm0 4.649h-2.767v2.767h2.767v-2.767Zm0 4.64h-2.767v2.766h2.767v-2.766Zm0 4.649h-2.767v2.767h2.767v-2.767Zm0 4.64h-2.767v2.766h2.767v-2.766Zm0 4.65h-2.767v2.766h2.767v-2.766Zm0 4.649h-2.767v2.767h2.767v-2.767Zm0 4.64h-2.767v2.767h2.767v-2.767Zm0 4.65h-2.767v2.766h2.767v-2.766Zm0 4.639h-2.767V217h2.767v-2.767Zm0 4.65h-2.767v2.767h2.767v-2.767Zm0 9.289h-2.767v2.767h2.767v-2.767Zm0 4.65h-2.767v2.767h2.767v-2.767Zm0 4.649h-2.767v2.767h2.767v-2.767Zm0 4.64h-2.767v2.767h2.767v-2.767Zm0 9.289h-2.767v2.767h2.767V251.4Zm-76.776-69.684h-2.766v2.766h2.766v-2.766Zm0 4.649h-2.766v2.767h2.766v-2.767Zm0 4.64h-2.766v2.766h2.766v-2.766Zm0 4.65h-2.766v2.766h2.766v-2.766Zm0 4.649h-2.766v2.767h2.766v-2.767Zm0 4.64h-2.766v2.767h2.766v-2.767Zm0 4.65h-2.766v2.766h2.766v-2.766Zm0 4.639h-2.766V217h2.766v-2.767Zm0 4.65h-2.766v2.767h2.766v-2.767Zm0 4.649h-2.766v2.767h2.766v-2.767Zm0 4.64h-2.766v2.767h2.766v-2.767Zm0 4.65h-2.766v2.767h2.766v-2.767Zm0 4.649h-2.766v2.767h2.766v-2.767Zm0 9.29h-2.766v2.767h2.766v-2.767Zm0 4.639h-2.766v2.767h2.766V251.4Zm0 4.65h-2.766v2.767h2.766v-2.767Zm0 4.65h-2.766v2.766h2.766V260.7Zm0 9.289h-2.766v2.767h2.766v-2.767Zm0 4.639h-2.766v2.767h2.766v-2.767Zm0 4.65h-2.766v2.767h2.766v-2.767Zm-4.396-97.562h-2.767v2.766h2.767v-2.766Zm0 4.649h-2.767v2.767h2.767v-2.767Zm0 4.64h-2.767v2.766h2.767v-2.766Zm0 4.65h-2.767v2.766h2.767v-2.766Zm0 4.649h-2.767v2.767h2.767v-2.767Zm0 4.64h-2.767v2.767h2.767v-2.767Zm0 4.65h-2.767v2.766h2.767v-2.766Zm0 4.639h-2.767V217h2.767v-2.767Zm0 4.65h-2.767v2.767h2.767v-2.767Zm0 4.649h-2.767v2.767h2.767v-2.767Zm0 4.64h-2.767v2.767h2.767v-2.767Zm0 4.65h-2.767v2.767h2.767v-2.767Zm0 4.649h-2.767v2.767h2.767v-2.767Zm0 13.929h-2.767v2.767h2.767V251.4Zm0 4.65h-2.767v2.767h2.767v-2.767Zm0 9.289h-2.767v2.767h2.767v-2.767Zm0 4.65h-2.767v2.767h2.767v-2.767Zm0 4.639h-2.767v2.767h2.767v-2.767Zm0 4.65h-2.767v2.767h2.767v-2.767Zm-4.407-97.562h-2.767v2.766h2.767v-2.766Zm0 4.649h-2.767v2.767h2.767v-2.767Zm0 4.64h-2.767v2.766h2.767v-2.766Zm0 4.65h-2.767v2.766h2.767v-2.766Zm0 4.649h-2.767v2.767h2.767v-2.767Zm0 4.64h-2.767v2.767h2.767v-2.767Zm0 4.65h-2.767v2.766h2.767v-2.766Zm0 4.639h-2.767V217h2.767v-2.767Zm0 4.65h-2.767v2.767h2.767v-2.767Zm0 4.649h-2.767v2.767h2.767v-2.767Zm0 4.64h-2.767v2.767h2.767v-2.767Zm0 4.65h-2.767v2.767h2.767v-2.767Zm0 4.649h-2.767v2.767h2.767v-2.767Zm0 4.64h-2.767v2.767h2.767v-2.767Zm0 9.289h-2.767v2.767h2.767V251.4Zm0 9.3h-2.767v2.766h2.767V260.7Zm0 4.639h-2.767v2.767h2.767v-2.767Zm0 4.65h-2.767v2.767h2.767v-2.767Zm0 4.639h-2.767v2.767h2.767v-2.767Zm0 4.65h-2.767v2.767h2.767v-2.767Zm26.741-71.073h-2.767v2.767h2.767v-2.767Zm0 4.65h-2.767v2.766h2.767v-2.766Zm0 4.639h-2.767v2.767h2.767v-2.767Zm0 4.65h-2.767v2.767h2.767v-2.767Zm0 4.65h-2.767v2.766h2.767v-2.766Zm0 4.639h-2.767v2.767h2.767v-2.767Zm0 13.939h-2.767v2.767h2.767v-2.767Zm0 4.65h-2.767v2.767h2.767v-2.767Zm0 4.639h-2.767v2.767h2.767v-2.767Zm0 4.65h-2.767v2.767h2.767v-2.767Zm0 4.639h-2.767v2.767h2.767v-2.767Zm0 4.65h-2.767v2.767h2.767V268.6Zm0 4.65h-2.767v2.767h2.767v-2.767Zm-4.408-65.045h-2.767v2.767h2.767v-2.767Zm0 4.65h-2.767v2.766h2.767v-2.766Zm0 4.639h-2.767v2.767h2.767v-2.767Zm0 4.65h-2.767v2.767h2.767v-2.767Zm0 4.65h-2.767v2.766h2.767v-2.766Zm0 4.639h-2.767v2.767h2.767v-2.767Zm0 13.939h-2.767v2.767h2.767v-2.767Zm0 4.65h-2.767v2.767h2.767v-2.767Zm0 4.639h-2.767v2.767h2.767v-2.767Zm0 4.65h-2.767v2.767h2.767v-2.767Zm0 4.639h-2.767v2.767h2.767v-2.767Zm0 4.65h-2.767v2.767h2.767V268.6Zm0 9.289h-2.767v2.767h2.767v-2.767ZM82.969 187.754h-2.767v2.767h2.767v-2.767Zm0 4.64h-2.767v2.766h2.767v-2.766Zm0 4.649h-2.767v2.767h2.767v-2.767Zm0 4.639h-2.767v2.767h2.767v-2.767Zm0 4.651h-2.767v2.766h2.767v-2.766Zm0 4.649h-2.767v2.767h2.767v-2.767Zm0 4.639h-2.767v2.767h2.767v-2.767Zm0 4.65h-2.767v2.767h2.767v-2.767Zm0 4.64h-2.767v2.766h2.767v-2.766Zm0 4.65h-2.767v2.766h2.767v-2.766Zm0 4.649h-2.767v2.767h2.767v-2.767Zm0 9.29h-2.767v2.766h2.767V243.5Zm0 4.639h-2.767v2.767h2.767v-2.767Zm0 4.65h-2.767v2.766h2.767v-2.766Zm0 4.649h-2.767v2.767h2.767v-2.767Zm0 4.64h-2.767v2.767h2.767v-2.767Zm0 4.65h-2.767v2.767h2.767v-2.767Zm0 4.649h-2.767v2.767h2.767v-2.767Zm0 4.64h-2.767v2.767h2.767v-2.767Zm-4.397-88.263h-2.766v2.767h2.766v-2.767Zm0 4.64h-2.766v2.766h2.766v-2.766Zm0 4.649h-2.766v2.767h2.766v-2.767Zm0 4.639h-2.766v2.767h2.766v-2.767Zm0 4.651h-2.766v2.766h2.766v-2.766Zm0 4.649h-2.766v2.767h2.766v-2.767Zm0 4.639h-2.766v2.767h2.766v-2.767Zm0 4.65h-2.766v2.767h2.766v-2.767Zm0 4.64h-2.766v2.766h2.766v-2.766Zm0 4.65h-2.766v2.766h2.766v-2.766Zm0 4.649h-2.766v2.767h2.766v-2.767Zm0 4.64h-2.766v2.766h2.766v-2.766Zm0 4.65h-2.766v2.766h2.766V243.5Zm0 4.639h-2.766v2.767h2.766v-2.767Zm0 4.65h-2.766v2.766h2.766v-2.766Zm0 4.649h-2.766v2.767h2.766v-2.767Zm0 4.64h-2.766v2.767h2.766v-2.767Zm0 4.65h-2.766v2.767h2.766v-2.767Zm0 4.649h-2.766v2.767h2.766v-2.767Zm0 4.64h-2.766v2.767h2.766v-2.767Zm26.08-70.168h-2.767v2.766h2.767v-2.766Zm0 4.639h-2.767v2.767h2.767v-2.767Zm0 4.649h-2.767v2.767h2.767v-2.767Zm0 4.64h-2.767v2.767h2.767v-2.767Zm0 4.65h-2.767v2.767h2.767v-2.767Zm0 4.65h-2.767v2.766h2.767v-2.766Zm0 4.639h-2.767v2.767h2.767v-2.767Zm0 4.65h-2.767v2.766h2.767v-2.766Zm0 4.639h-2.767v2.767h2.767v-2.767Zm0 4.65h-2.767v2.767h2.767v-2.767Zm-4.398-41.806h-2.767v2.766h2.767v-2.766Zm0 4.639h-2.767v2.767h2.767v-2.767Zm0 4.649h-2.767v2.767h2.767v-2.767Zm0 4.64h-2.767v2.767h2.767v-2.767Zm0 4.65h-2.767v2.767h2.767v-2.767Zm0 4.65h-2.767v2.766h2.767v-2.766Zm0 4.639h-2.767v2.767h2.767v-2.767Zm0 4.65h-2.767v2.766h2.767v-2.766Zm0 4.639h-2.767v2.767h2.767v-2.767Z" fill="#F5F5F5"/><path d="M126.439 66.763h-4.65v221.878h4.65V66.763Zm87.494 0h-4.65v221.878h4.65V66.763Zm87.495 0h-4.65v221.878h4.65V66.763Z" fill="#F5F5F5"/><path d="M238.403 266.717h13.234v-.884c0-1.725-1.935-3.103-4.239-3.008l-5.186.21c-2.136.084-3.809 1.41-3.809 3.009v.673Z" fill="#F0F0F0"/><path d="M264.609 267.169h17.516l2.788-24.448a1.714 1.714 0 0 0-1.715-1.631h-11.73c-.915 0-1.672.716-1.714 1.631l-5.134 24.448h-.011Zm-26.731-62.046h4.377l4.913 46.172h-4.377c-.726 0-1.378-.589-1.451-1.315l-4.64-43.553c-.073-.726.453-1.315 1.168-1.315l.01.011Z" fill="#E6E6E6"/><path d="M244.643 251.305h65.519c.726 0 1.252-.589 1.167-1.315l-4.628-43.552c-.074-.726-.726-1.315-1.452-1.315H239.73c-.726 0-1.252.589-1.167 1.315l4.628 43.552c.074.726.726 1.315 1.452 1.315Z" fill="#EBEBEB"/><path d="M245.873 247.034h61.784c.631 0 1.094-.515 1.021-1.146l-4.04-37.999a1.3 1.3 0 0 0-1.262-1.146h-61.784c-.632 0-1.094.515-1.021 1.146l4.04 37.999a1.3 1.3 0 0 0 1.262 1.146Z" fill="#FAFAFA"/><path d="M263.936 267.169h21.566a.936.936 0 0 0 .936-.936v-.021a.936.936 0 0 0-.936-.936h-21.566a.936.936 0 0 0-.936.936v.021c0 .517.419.936.936.936Z" fill="#E6E6E6"/><path d="M210.916 274.67h53.336v-8.047h-53.336v8.047Zm148.615 81.814h1.336a.305.305 0 0 0 .305-.305l2.104-81.519h-6.154l2.104 81.519c0 .168.137.305.305.305Z" fill="#E6E6E6"/><path d="M407.007 356.484h3.072L401.4 274.66h-6.154l11.761 81.824Z" fill="#F0F0F0"/><path d="m208.822 356.484 11.792-81.824h-6.154l-8.679 81.824h3.041Z" fill="#E6E6E6"/><path d="M249.03 274.67h155.927v-8.047H249.03v8.047Z" fill="#F5F5F5"/><path d="M253.9 356.484h3.535l1.304-81.824h-6.154l1.315 81.824Z" fill="#F0F0F0"/><path d="M303.713 265.171h1.631a.316.316 0 0 0 .315-.316v-1.725a.316.316 0 0 0-.315-.316h-1.179a.326.326 0 0 0-.305.232l-.463 1.725a.31.31 0 0 0 .306.389l.01.011Z" fill="#F5F5F5"/><path d="M301.45 265.171h1.631a.317.317 0 0 0 .316-.316v-1.725a.317.317 0 0 0-.316-.316h-1.178a.325.325 0 0 0-.305.232l-.463 1.725c-.053.2.094.389.305.389l.01.011Z" fill="#F5F5F5"/><path d="M299.19 265.171h1.63a.317.317 0 0 0 .316-.316v-1.725a.317.317 0 0 0-.316-.316h-1.178a.325.325 0 0 0-.305.232l-.463 1.725c-.053.2.095.389.305.389l.011.011Z" fill="#F5F5F5"/><path d="M296.938 265.171h1.63a.317.317 0 0 0 .316-.316v-1.725a.317.317 0 0 0-.316-.316h-1.178a.325.325 0 0 0-.305.232l-.463 1.725c-.053.2.095.389.305.389l.011.011Z" fill="#F5F5F5"/><path d="M294.676 265.171h1.631a.316.316 0 0 0 .315-.316v-1.725a.316.316 0 0 0-.315-.316h-1.179a.326.326 0 0 0-.305.232l-.463 1.725c-.052.2.095.389.305.389l.011.011Z" fill="#F5F5F5"/><path d="M292.414 265.171h1.631a.316.316 0 0 0 .315-.316v-1.725a.316.316 0 0 0-.315-.316h-1.178a.327.327 0 0 0-.306.232l-.462 1.725c-.053.2.094.389.305.389l.01.011Z" fill="#F5F5F5"/><path d="M290.162 265.171h1.631a.317.317 0 0 0 .316-.316v-1.725a.317.317 0 0 0-.316-.316h-1.168a.326.326 0 0 0-.305.232l-.463 1.725c-.052.2.095.389.305.389v.011Z" fill="#F5F5F5"/><path d="M287.901 265.171h1.63a.317.317 0 0 0 .316-.316v-1.725a.317.317 0 0 0-.316-.316h-1.167a.325.325 0 0 0-.305.232l-.463 1.725c-.053.2.094.389.305.389v.011Z" fill="#F5F5F5"/><path d="M285.64 265.171h1.63a.317.317 0 0 0 .316-.316v-1.725a.317.317 0 0 0-.316-.316h-1.178a.325.325 0 0 0-.305.232l-.463 1.725c-.052.2.095.389.305.389l.011.011Z" fill="#F5F5F5"/><path d="M283.388 265.171h1.63a.317.317 0 0 0 .316-.316v-1.725a.317.317 0 0 0-.316-.316h-1.178a.325.325 0 0 0-.305.232l-.463 1.725c-.052.2.095.389.305.389l.011.011Z" fill="#F5F5F5"/><path d="M281.126 265.171h1.631a.316.316 0 0 0 .315-.316v-1.725a.316.316 0 0 0-.315-.316h-1.179a.326.326 0 0 0-.305.232l-.462 1.725c-.053.2.094.389.305.389l.01.011Z" fill="#F5F5F5"/><path d="M278.874 265.171h1.631a.316.316 0 0 0 .315-.316v-1.725a.316.316 0 0 0-.315-.316h-1.178a.327.327 0 0 0-.306.232l-.462 1.725c-.053.2.094.389.305.389l.01.011Z" fill="#F5F5F5"/><path d="M276.613 265.171h1.631a.317.317 0 0 0 .316-.316v-1.725a.317.317 0 0 0-.316-.316h-1.178a.325.325 0 0 0-.305.232l-.463 1.725c-.053.2.094.389.305.389l.01.011Z" fill="#F5F5F5"/><path d="M274.351 265.171h1.63a.317.317 0 0 0 .316-.316v-1.725a.317.317 0 0 0-.316-.316h-1.178a.325.325 0 0 0-.305.232l-.463 1.725c-.052.2.095.389.305.389l.011.011Z" fill="#F5F5F5"/><path d="M272.1 265.171h1.631a.316.316 0 0 0 .315-.316v-1.725a.316.316 0 0 0-.315-.316h-1.168a.325.325 0 0 0-.305.232l-.463 1.725c-.053.2.095.389.305.389v.011Z" fill="#F5F5F5"/><path d="M270.459 266.717h36.536v-2.725h-36.536v2.725Z" fill="#EBEBEB"/><path d="M396.382 290.64h-66.308v-3.714a4.907 4.907 0 0 1 4.903-4.902h56.492a4.906 4.906 0 0 1 4.902 4.902v3.714h.011Zm-2.157 49.075-21.251-2.083v-29.855h-8.416v29.855l-21.334 2.094a4.141 4.141 0 0 0-3.735 4.113v3.188h58.46v-3.188a4.126 4.126 0 0 0-3.735-4.113l.011-.011Z" fill="#E0E0E0"/><path d="M347.242 350.982a5.499 5.499 0 0 1-5.502 5.502 5.5 5.5 0 0 1-5.502-5.502 5.5 5.5 0 0 1 5.502-5.502 5.5 5.5 0 0 1 5.502 5.502Zm42.954 0a5.5 5.5 0 0 0 5.502 5.502 5.499 5.499 0 0 0 5.502-5.502 5.5 5.5 0 0 0-5.502-5.502 5.5 5.5 0 0 0-5.502 5.502Z" fill="#E0E0E0"/><path d="M363.106 287.589h11.32v22.534c0 2.24-1.82 4.06-4.061 4.06h-3.209c-2.24 0-4.06-1.82-4.06-4.06v-22.534h.01Z" fill="#E6E6E6"/><path d="M357.573 282.571c2.935-11.109 9.552-39.85 10.941-77.827.21-5.87 5.06-10.51 10.93-10.51h19.599c6.017 0 10.909 4.861 10.94 10.878.074 17.853-1.167 54.357-11.245 84.034l-37.304-1.378a4.144 4.144 0 0 1-3.861-5.208v.011Z" fill="#EBEBEB"/><path d="M362.854 287.168s10.068-35.81 11.73-81.141c.2-5.417 4.661-9.689 10.078-9.689h18.084c5.555 0 10.068 4.482 10.089 10.036.074 16.475-1.084 53.432-10.373 80.794h-39.608Z" fill="#E6E6E6"/><path d="M370.607 261.141s-21.481-4.344-42.227-2.24c-20.745 2.104 9.763 29.203 9.763 29.203h4.281s-16.158-17.189-15.264-21.461c.905-4.281 41.606 1.357 41.606 1.357l1.841-6.859Z" fill="#E6E6E6"/><path d="M402.451 287.168h-35.179s10.068-35.81 11.73-81.141c.2-5.417 4.661-9.689 10.078-9.689h13.645a10.088 10.088 0 0 1 10.099 10.036c.063 16.464-1.083 53.421-10.373 80.794Z" fill="#E0E0E0"/><path d="M329.685 290.65h71.504a1.977 1.977 0 0 0 1.978-1.978v-.357a1.977 1.977 0 0 0-1.978-1.978h-71.504a1.978 1.978 0 0 0-1.978 1.978v.357c0 1.093.886 1.978 1.978 1.978Z" fill="#E0E0E0"/><path d="M225.001 404.298c112.65 0 203.972-5.332 203.972-11.909 0-6.577-91.322-11.909-203.972-11.909-112.651 0-203.973 5.332-203.973 11.909 0 6.577 91.322 11.909 203.973 11.909Z" fill="#F5F5F5"/><path d="M243.683 120.437H93.3a7.627 7.627 0 0 0-7.627 7.627V352.95a7.627 7.627 0 0 0 7.627 7.627h150.383a7.627 7.627 0 0 0 7.627-7.627V128.064a7.626 7.626 0 0 0-7.627-7.627Z" fill="#263238"/><path opacity=".4" d="M243.683 120.437H93.3a7.627 7.627 0 0 0-7.627 7.627V352.95a7.627 7.627 0 0 0 7.627 7.627h150.383a7.627 7.627 0 0 0 7.627-7.627V128.064a7.626 7.626 0 0 0-7.627-7.627Z" fill="#fff"/><path opacity=".2" d="M243.42 138.016H99.885v213.219H243.42V138.016Z" fill="#000"/><path d="M172.894 117.302a4.407 4.407 0 1 0-8.816 0h-31.517a2.22 2.22 0 0 0-2.22 2.22v22.965h76.301v-22.965a2.22 2.22 0 0 0-2.219-2.22h-31.529Zm-4.408-2.304a2.303 2.303 0 1 1 .001 4.607 2.303 2.303 0 0 1-.001-4.607Z" fill="#263238"/><path d="M240.254 134.86H96.719v213.219h143.535V134.86Z" fill="#116B5E"/><path opacity=".7" d="M240.254 134.86H96.719v213.219h143.535V134.86Z" fill="#fff"/><path d="M217.594 158.456h-98.215v5.26h98.215v-5.26Zm.01 18.694h-87.695v2.104h87.695v-2.104Zm-.01 8.153h-98.215v2.104h98.215v-2.104Zm0 8.153h-98.215v2.104h98.215v-2.104Zm0 8.153h-98.215v2.104h98.215v-2.104Zm0 8.163h-98.215v2.104h98.215v-2.104Zm0 8.154h-98.215v2.104h98.215v-2.104Zm-52.632 8.153h-45.583v2.104h45.583v-2.104Zm-28.383 33.169h-17.2v-17.2h17.2v17.2Zm-15.096-2.104h12.992v-12.992h-12.992v12.992Zm96.121-10.741h-75.428v2.104h75.428v-2.104Zm-24.027 6.386h-51.401v2.104h51.401v-2.104Zm-56.998 38.04h-17.2v-17.2h17.2v17.2Zm-15.096-2.104h12.992v-12.992h-12.992v12.992Zm96.121-10.741h-75.428v2.104h75.428v-2.104Zm-24.027 6.386h-51.401v2.104h51.401v-2.104Zm-56.998 38.04h-17.2v-17.2h17.2v17.2Zm-15.096-2.104h12.992v-12.992h-12.992v12.992Zm96.121-10.741h-75.428v2.104h75.428v-2.104Zm-24.027 6.386h-51.401v2.104h51.401v-2.104Z" fill="#000" opacity=".4"/><path d="m126.143 255.503-3.072-4.24 1.705-1.231 1.546 2.147 4.934-5.429 1.557 1.42-6.67 7.333Zm0 31.581-3.072-4.24 1.705-1.23 1.546 2.146 4.934-5.429 1.557 1.421-6.67 7.332Zm0 31.581-3.072-4.24 1.705-1.23 1.546 2.135 4.934-5.418 1.557 1.41-6.67 7.343Z" fill="#116B5E"/><path d="M195.07 148.788h-51.054c-1.914 0-3.324-1.557-3.124-3.482l1.399-13.718c.2-1.915 1.915-3.482 3.84-3.482h51.053c1.915 0 3.325 1.557 3.125 3.482l-1.399 13.718c-.2 1.915-1.915 3.482-3.83 3.482h-.01Zm-49.16-18.568c-.757 0-1.441.621-1.515 1.379l-1.399 13.718c-.074.757.473 1.378 1.231 1.378h51.053c.758 0 1.442-.621 1.515-1.378l1.399-13.718c.074-.758-.473-1.379-1.23-1.379H145.91Z" fill="#000" opacity=".2"/><path d="M194.018 147.736h-51.053a3.487 3.487 0 0 1-3.483-3.482v-13.718a3.486 3.486 0 0 1 3.483-3.482h51.053a3.486 3.486 0 0 1 3.482 3.482v13.718a3.486 3.486 0 0 1-3.482 3.482Zm-51.053-18.568c-.758 0-1.379.621-1.379 1.379v13.718c0 .757.621 1.378 1.379 1.378h51.053c.758 0 1.378-.621 1.378-1.378v-13.718c0-.758-.62-1.379-1.378-1.379h-51.053Z" fill="#fff"/><path d="M188.558 123.814h-40.144c-.866 0-1.567.702-1.567 1.567v5.471c0 .865.701 1.567 1.567 1.567h40.144c.866 0 1.568-.702 1.568-1.567v-5.471c0-.865-.702-1.567-1.568-1.567Z" fill="#263238"/><path opacity=".1" d="M188.558 123.814h-40.144c-.866 0-1.567.702-1.567 1.567v5.471c0 .865.701 1.567 1.567 1.567h40.144c.866 0 1.568-.702 1.568-1.567v-5.471c0-.865-.702-1.567-1.568-1.567Z" fill="#fff"/><path d="M71.168 370.108s4.996-10.899-.716-21.651c-5.712-10.751-7.364-13.276-3.724-15.485 3.64-2.209 5.313 8.595 5.313 8.595s3.072-7.427.536-15.202c-2.535-7.774-4.124-20.44-.663-21.797 3.462-1.357.663 15.801 3.661 21.65 0 0 2.525-6.512 2.935-12.761.41-6.248-.231-16.221 2.504-18.778 2.735-2.556 4.482-.789 1.8 12.992-2.683 13.782-2.662 24.985-2.662 24.985s5.933-18.083 9.91-18.609c3.976-.526 3.976 5.323.567 10.404-3.408 5.081-9.972 14.181-11.056 18.862 0 0 6.512-13.602 12.361-9.436 5.86 4.166-5.092 12.392-9.973 15.359-4.881 2.967-8.269 21.587-8.269 21.587l-2.514-.715h-.01Z" fill="#116B5E"/><path opacity=".2" d="M71.168 370.108s4.996-10.899-.716-21.651c-5.712-10.751-7.364-13.276-3.724-15.485 3.64-2.209 5.313 8.595 5.313 8.595s3.072-7.427.536-15.202c-2.535-7.774-4.124-20.44-.663-21.797 3.462-1.357.663 15.801 3.661 21.65 0 0 2.525-6.512 2.935-12.761.41-6.248-.231-16.221 2.504-18.778 2.735-2.556 4.482-.789 1.8 12.992-2.683 13.782-2.662 24.985-2.662 24.985s5.933-18.083 9.91-18.609c3.976-.526 3.976 5.323.567 10.404-3.408 5.081-9.972 14.181-11.056 18.862 0 0 6.512-13.602 12.361-9.436 5.86 4.166-5.092 12.392-9.973 15.359-4.881 2.967-8.269 21.587-8.269 21.587l-2.514-.715h-.01Z" fill="#000"/><path d="M75.112 374.589s-4.87-10.972.968-21.64c5.838-10.667 7.522-13.171 3.913-15.422-3.608-2.251-5.407 8.521-5.407 8.521s-2.977-7.48-.347-15.212c2.63-7.742 4.365-20.377.925-21.787-3.44-1.409-.852 15.791-3.924 21.587 0 0-2.44-6.543-2.787-12.802-.347-6.26.431-16.212-2.273-18.81-2.703-2.599-4.47-.852-1.956 12.971s2.367 25.027 2.367 25.027-5.713-18.168-9.69-18.757c-3.976-.589-4.039 5.27-.694 10.394 3.346 5.133 9.805 14.328 10.825 19.02 0 0-6.343-13.697-12.245-9.616-5.901 4.082 4.945 12.467 9.794 15.507 4.85 3.04 8.017 21.703 8.017 21.703l2.524-.684h-.01Z" fill="#116B5E"/><path d="M52.673 366.762H92.87l-3.25 28.762H55.922l-3.25-28.762Z" fill="#263238"/><path d="M293.39 352.434h-61.679v43.09h61.679v-43.09Z" fill="#116B5E"/><path opacity=".2" d="M293.39 352.434h-61.679v43.09h61.679v-43.09Z" fill="#fff"/><path opacity=".2" d="M247.196 352.434h-15.485v43.09h61.679l-46.194-1.336v-41.754Z" fill="#000"/><path opacity=".7" d="M240.874 352.434h-3.745v2.388h3.745v-2.388Zm0 40.702h-3.745v2.388h3.745v-2.388Z" fill="#fff"/><path d="m287.489 364.932-.01.042-1.957 4.955-.737 1.873-1.388-2.504-2.714.884 2.714-6.87 1.715.684 2.282.894.095.042Z" fill="#263238"/><path d="m284.796 370.887-1.178-2.136-2.325.757 2.346-5.943 3.503 1.388-2.346 5.944v-.01Zm-1.136-2.252 1.126 2.041 2.24-5.681-3.334-1.315-2.241 5.681 2.209-.715v-.011Z" fill="#fff" opacity=".2"/><path opacity=".2" d="m287.478 364.974-1.956 4.965c-1.189-2.714-1.284-5.459-1.284-5.459l.873-.484 2.273.894.084.073.01.011Z" fill="#000"/><path d="m287.035 371.802 1.379-2.504 2.714.884-2.704-6.87-4.103 1.62 2.714 6.87Z" fill="#263238"/><path d="m284.669 364.943 3.503-1.389 2.346 5.944-2.325-.758-1.178 2.136-2.346-5.944v.011Zm5.702 4.418-2.241-5.681-3.335 1.315 2.241 5.681 1.126-2.041 2.209.715v.011Z" fill="#fff" opacity=".2"/><path d="m285.911 355.211.484-.378.41.452.537-.284.326.526.589-.19.221.579.61-.074.116.6.61.032.011.62.599.137-.105.61.568.253-.21.578.505.337-.305.536.431.432-.4.463.358.505-.474.389.263.557-.536.295.158.6-.589.189.052.61-.61.095-.063.61-.61-.021-.179.589-.6-.126-.273.547-.568-.232-.369.495-.515-.337-.442.421-.452-.421-.516.337-.368-.495-.568.232-.273-.547-.6.126-.168-.589-.621.021-.063-.61-.61-.095.052-.61-.578-.189.157-.6-.547-.295.263-.557-.473-.389.358-.505-.4-.463.442-.432-.316-.536.516-.337-.211-.578.558-.253-.105-.61.599-.137.011-.62.61-.032.116-.6.61.074.221-.579.589.19.326-.526.547.284.41-.452.484.378Z" fill="#116B5E"/><path opacity=".2" d="M290.56 360.229a4.651 4.651 0 0 1-4.649 4.65 4.651 4.651 0 0 1-4.65-4.65 4.651 4.651 0 0 1 4.65-4.65 4.651 4.651 0 0 1 4.649 4.65Z" fill="#000"/><path d="m283.744 360.398 1.094-.095s.2-.789.074-2.493c0 0 .379-.074.568-.032.189.042.389 1.936.389 1.936s1.967-.274 2.083-.19c.074.053.105.337.126.547 0 .116-.063.232-.189.263l-.063.022.042 1.893a.277.277 0 0 1-.253.284l-1.841.147a1.014 1.014 0 0 1-.526-.115l-.21-.127-1.136.158-.158-2.198Z" fill="#116B5E"/><path opacity=".7" d="m283.744 360.398 1.094-.095s.2-.789.074-2.493c0 0 .379-.074.568-.032.189.042.389 1.936.389 1.936s1.967-.274 2.083-.19c.074.053.105.337.126.547 0 .116-.063.232-.189.263l-.063.022.042 1.893a.277.277 0 0 1-.253.284l-1.841.147a1.014 1.014 0 0 1-.526-.115l-.21-.127-1.136.158-.158-2.198Z" fill="#fff"/><path opacity=".2" d="m247.197 352.434-16.001 17.495v-17.495h16.001Z" fill="#000"/><path d="M271.613 309.344h-61.678v43.09h61.678v-43.09Z" fill="#116B5E"/><path opacity=".2" d="M271.613 309.344h-61.678v43.09h61.678v-43.09Z" fill="#fff"/><path opacity=".2" d="M225.42 309.344h-15.485v43.09h61.678l-46.193-1.336v-41.754Z" fill="#000"/><path opacity=".7" d="M219.098 309.344h-3.745v2.388h3.745v-2.388Zm0 40.702h-3.745v2.388h3.745v-2.388Z" fill="#fff"/><path d="m265.722 321.842-.021.042-1.957 4.955-.736 1.873-1.378-2.504-2.725.884 2.714-6.87 1.726.684 2.272.894.105.042Z" fill="#263238"/><path d="m263.029 327.797-1.179-2.136-2.325.758 2.346-5.944 3.504 1.389-2.346 5.943v-.01Zm-1.137-2.251 1.126 2.04 2.241-5.68-3.335-1.315-2.241 5.68 2.209-.715v-.01Z" fill="#fff" opacity=".2"/><path opacity=".2" d="m265.701 321.884-1.957 4.966c-1.188-2.714-1.283-5.46-1.283-5.46l.873-.484 2.272.894.085.074.01.01Z" fill="#000"/><path d="m265.26 328.712 1.378-2.504 2.725.884-2.714-6.87-4.103 1.62 2.714 6.87Z" fill="#263238"/><path d="m262.894 321.853 3.503-1.389 2.346 5.944-2.325-.758-1.178 2.136-2.346-5.944v.011Zm5.701 4.418-2.24-5.681-3.335 1.315 2.241 5.681 1.125-2.041 2.209.716v.01Z" fill="#fff" opacity=".2"/><path d="m264.134 312.122.484-.379.41.452.547-.284.316.526.589-.179.221.568.61-.073.116.599.62.043v.61l.6.147-.105.6.568.252-.211.579.505.336-.305.537.442.431-.4.463.358.505-.484.389.263.558-.536.294.157.6-.589.189.053.621-.61.084-.063.61-.611-.021-.168.589-.6-.126-.273.547-.568-.231-.368.494-.516-.336-.452.42-.453-.42-.515.336-.368-.494-.568.231-.274-.547-.599.126-.169-.589-.61.021-.063-.61-.61-.084.042-.621-.579-.189.158-.6-.536-.294.263-.558-.484-.389.357-.505-.399-.463.441-.431-.315-.537.515-.336-.21-.579.568-.252-.105-.6.599-.147v-.61l.621-.043.116-.599.61.073.221-.568.589.179.316-.526.547.284.41-.452.484.379Z" fill="#116B5E"/><path opacity=".2" d="M268.783 317.14a4.651 4.651 0 0 1-4.65 4.65 4.651 4.651 0 0 1-4.65-4.65 4.651 4.651 0 0 1 4.65-4.65 4.651 4.651 0 0 1 4.65 4.65Z" fill="#000"/><path d="m261.967 317.319 1.094-.095s.2-.789.073-2.493c0 0 .379-.074.568-.032.19.042.39 1.936.39 1.936s1.967-.274 2.083-.189c.073.052.105.336.126.547 0 .115-.063.231-.19.263l-.063.021.032 1.893a.276.276 0 0 1-.253.284l-1.841.148a1.024 1.024 0 0 1-.526-.116l-.21-.126-1.136.157-.158-2.198h.011Z" fill="#116B5E"/><path opacity=".7" d="m261.967 317.319 1.094-.095s.2-.789.073-2.493c0 0 .379-.074.568-.032.19.042.39 1.936.39 1.936s1.967-.274 2.083-.189c.073.052.105.336.126.547 0 .115-.063.231-.19.263l-.063.021.032 1.893a.276.276 0 0 1-.253.284l-1.841.148a1.024 1.024 0 0 1-.526-.116l-.21-.126-1.136.157-.158-2.198h.011Z" fill="#fff"/><path d="M235.992 352.434h-61.679v43.09h61.679v-43.09Z" fill="#116B5E"/><path opacity=".2" d="M235.992 352.434h-61.679v43.09h61.679v-43.09Z" fill="#fff"/><path opacity=".2" d="M189.799 352.434h-15.486v43.09h61.679l-46.193-1.336v-41.754Z" fill="#000"/><path opacity=".7" d="M183.477 352.434h-3.746v2.388h3.746v-2.388Zm0 40.702h-3.746v2.388h3.746v-2.388Z" fill="#fff"/><path d="m230.091 364.932-.011.042-1.957 4.955-.736 1.872-1.389-2.503-2.714.883 2.714-6.869 1.715.684 2.283.894.095.042Z" fill="#263238"/><path d="m227.398 370.886-1.179-2.135-2.324.757 2.345-5.944 3.504 1.389-2.346 5.944v-.011Zm-1.136-2.251 1.125 2.041 2.241-5.681-3.335-1.315-2.241 5.681 2.21-.716v-.01Z" fill="#fff" opacity=".2"/><path opacity=".2" d="m230.08 364.974-1.957 4.965c-1.188-2.714-1.283-5.459-1.283-5.459l.873-.484 2.272.894.084.073.011.011Z" fill="#000"/><path d="m229.639 371.802 1.378-2.504 2.714.884-2.703-6.87-4.103 1.62 2.714 6.87Z" fill="#263238"/><path d="m227.272 364.943 3.504-1.389 2.346 5.944-2.325-.758-1.179 2.136-2.346-5.944v.011Zm5.702 4.418-2.24-5.681-3.335 1.315 2.24 5.681 1.126-2.041 2.209.715v.011Z" fill="#fff" opacity=".2"/><path d="m228.513 355.212.484-.379.41.452.536-.284.327.526.589-.189.221.578.61-.073.116.599.61.032.01.621.6.136-.105.611.568.252-.211.579.505.336-.305.537.432.431-.4.463.357.505-.473.389.263.558-.536.294.157.6-.589.189.053.61-.61.095-.063.61-.611-.021-.178.589-.6-.126-.274.547-.568-.231-.368.494-.515-.336-.442.42-.453-.42-.515.336-.368-.494-.568.231-.274-.547-.6.126-.168-.589-.621.021-.063-.61-.599-.095.042-.61-.579-.189.158-.6-.547-.294.263-.558-.473-.389.357-.505-.4-.463.442-.431-.315-.537.515-.336-.21-.579.557-.252-.105-.611.6-.136.01-.621.61-.032.116-.599.61.073.221-.578.589.189.327-.526.547.284.41-.452.484.379Z" fill="#116B5E"/><path opacity=".2" d="M233.162 360.229a4.651 4.651 0 0 1-4.65 4.65 4.651 4.651 0 0 1-4.65-4.65 4.651 4.651 0 0 1 9.3 0Z" fill="#000"/><path d="m226.346 360.398 1.094-.095s.2-.789.073-2.493c0 0 .379-.074.568-.032.19.042.39 1.936.39 1.936s1.967-.274 2.083-.19c.073.053.105.337.126.547 0 .116-.063.232-.189.263l-.064.022.043 1.893a.278.278 0 0 1-.253.284l-1.841.147a1.011 1.011 0 0 1-.526-.115l-.21-.127-1.137.158-.157-2.198Z" fill="#116B5E"/><path opacity=".7" d="m226.346 360.398 1.094-.095s.2-.789.073-2.493c0 0 .379-.074.568-.032.19.042.39 1.936.39 1.936s1.967-.274 2.083-.19c.073.053.105.337.126.547 0 .116-.063.232-.189.263l-.064.022.043 1.893a.278.278 0 0 1-.253.284l-1.841.147a1.011 1.011 0 0 1-.526-.115l-.21-.127-1.137.158-.157-2.198Z" fill="#fff"/><path d="m252.962 166.577-.085.221-11.34 28.72-4.261 10.804-7.995-14.476-15.727 5.113 15.696-39.744 9.962 3.934 13.15 5.197.6.231Z" fill="#263238"/><path d="m237.382 201.031-6.838-12.382-13.455 4.376 13.581-34.4 20.293 8.016-13.581 34.4v-.01Zm-6.586-13.014 6.512 11.783 12.982-32.875-19.315-7.627-12.981 32.875 12.802-4.166v.01Z" fill="#fff" opacity=".2"/><path opacity=".2" d="m252.878 166.798-11.341 28.72c-6.88-15.675-7.406-31.571-7.406-31.571l5.081-2.798 13.15 5.197.516.452Z" fill="#000"/><path d="m250.301 206.322 7.995-14.476 15.727 5.113-15.696-39.744-23.712 9.362 15.686 39.745Z" fill="#263238"/><path d="m236.614 166.63 20.293-8.016 13.582 34.4-13.455-4.376-6.838 12.382-13.582-34.401v.011Zm32.97 25.543-12.982-32.875-19.314 7.627 12.981 32.875 6.512-11.783 12.803 4.166v-.01Z" fill="#fff" opacity=".2"/><path d="m243.79 110.317 2.808-2.189 2.367 2.651 3.156-1.651 1.852 3.04 3.398-1.073 1.283 3.324 3.535-.441.673 3.492 3.556.2.032 3.566 3.471.821-.599 3.514 3.261 1.43-1.22 3.346 2.945 1.988-1.788 3.082 2.546 2.483-2.315 2.704 2.062 2.903-2.756 2.251 1.504 3.22-3.114 1.714.916 3.451-3.377 1.126.284 3.555-3.525.516-.357 3.534-3.556-.115-.989 3.419-3.471-.758-1.578 3.198-3.293-1.367-2.115 2.851-2.998-1.925-2.598 2.43-2.599-2.43-2.988 1.925-2.125-2.851-3.282 1.367-1.578-3.198-3.482.758-.978-3.419-3.567.115-.347-3.534-3.524-.516.284-3.555-3.377-1.126.915-3.451-3.124-1.714 1.515-3.22-2.767-2.251 2.073-2.903-2.325-2.704 2.556-2.483-1.799-3.082 2.956-1.988-1.22-3.346 3.261-1.43-.6-3.514 3.462-.821.031-3.566 3.556-.2.673-3.492 3.535.441 1.283-3.324 3.398 1.073 1.852-3.04 3.156 1.651 2.367-2.651 2.809 2.189Z" fill="#116B5E"/><path opacity=".2" d="M262.825 158.407c10.517-10.517 10.517-27.569 0-38.086-10.517-10.518-27.569-10.518-38.086 0-10.518 10.517-10.518 27.569 0 38.086 10.517 10.518 27.569 10.518 38.086 0Z" fill="#000"/><path d="m231.25 140.383 6.354-.558s1.168-4.576.442-14.423c0 0 2.188-.399 3.282-.168 1.094.231 2.23 11.183 2.23 11.183s11.394-1.568 12.046-1.126c.41.284.62 1.978.726 3.177a1.45 1.45 0 0 1-1.073 1.526l-.39.105.211 10.962a1.593 1.593 0 0 1-1.473 1.62l-10.667.852a5.262 5.262 0 0 1-3.03-.684l-1.22-.705-6.544.936-.894-12.697Z" fill="#116B5E"/><path opacity=".7" d="m231.25 140.383 6.354-.558s1.168-4.576.442-14.423c0 0 2.188-.399 3.282-.168 1.094.231 2.23 11.183 2.23 11.183s11.394-1.568 12.046-1.126c.41.284.62 1.978.726 3.177a1.45 1.45 0 0 1-1.073 1.526l-.39.105.211 10.962a1.593 1.593 0 0 1-1.473 1.62l-10.667.852a5.262 5.262 0 0 1-3.03-.684l-1.22-.705-6.544.936-.894-12.697Z" fill="#fff"/><path d="m296.085 168.776-9.037-4.755 5.365-7.143s6.785 2.441 6.943 8.385l-3.271 3.513Z" fill="#E4897B"/><path d="m282.956 158.004 5.281-4.356 4.177 3.23-5.366 7.143-4.092-6.017Z" fill="#E4897B"/><path d="M336.186 155.037c-1.578.337-3.387.999-4.881 1.936-1.515.915-2.725 1.956-3.714 2.914-2.02 1.946-3.503 3.808-5.018 5.649-2.914 3.64-5.649 7.217-8.405 10.814a25.96 25.96 0 0 1-1.484-.988 50.871 50.871 0 0 1-2.587-1.905c-3.462-2.693-6.986-5.691-10.478-8.605l-4.282 3.724c2.63 4.019 5.46 7.764 8.763 11.372 1.683 1.799 3.377 3.545 5.744 5.26.61.432 1.262.863 2.136 1.294.441.211.946.421 1.588.61.663.169 1.483.358 2.704.242.294-.031.61-.073.968-.179a6.34 6.34 0 0 0 2.977-1.756l.768-.842 1.178-1.294c3.124-3.44 6.175-6.996 9.142-10.404 1.462-1.694 2.966-3.367 4.271-4.64.663-.652 1.241-1.104 1.704-1.388.474-.274.842-.463 1.515-.652l-2.609-11.162Z" fill="#116B5E"/><path opacity=".7" d="M338.785 166.188c-.673.189-1.041.379-1.515.652-.473.274-1.052.737-1.704 1.389a49.067 49.067 0 0 0-1.736 1.799 87.604 87.604 0 0 0-2.535 2.84c-1.862 2.136-3.766 4.335-5.702 6.533a240.165 240.165 0 0 1-3.44 3.861l-1.178 1.294-.768.842a6.188 6.188 0 0 1-1.925 1.388 6.41 6.41 0 0 1-2.02.558c-1.21.105-2.031-.074-2.704-.242a9.51 9.51 0 0 1-1.588-.61 15.482 15.482 0 0 1-2.147-1.294c-2.367-1.705-4.05-3.461-5.743-5.25-3.304-3.608-6.134-7.353-8.764-11.372l4.293-3.724c3.482 2.914 7.006 5.912 10.467 8.605a51.526 51.526 0 0 0 2.598 1.905c.495.357 1 .694 1.484.988 2.756-3.608 5.481-7.185 8.405-10.814 1.515-1.841 2.998-3.714 5.018-5.66.989-.957 2.199-1.999 3.714-2.914 1.504-.926 3.314-1.588 4.881-1.925l2.609 11.151Z" fill="#fff"/><path opacity=".1" d="M333.831 170.028a87.604 87.604 0 0 0-2.535 2.84c-1.862 2.136-3.767 4.335-5.702 6.533.904-8.637 7.101-12.234 7.101-12.234.578.82.936 1.788 1.136 2.861Z" fill="#000"/><path d="M378.015 157.435v.032c-2.199 6.259-3.64 13.571-4.576 20.882-.737 5.797-1.168 11.593-1.41 16.874-.242 5.418-.274 10.289-.242 14.076.053 4.934.221 8.027.221 8.027h-42.406c-6.007-42.985 6.112-62.373 6.112-62.373s4.46-.894 9.636-1.21a43.42 43.42 0 0 1 2.083-.095c4.566-.094 12.025.568 17.169 1.168 1.083.116 2.167.284 3.24.452a112.454 112.454 0 0 1 10.183 2.167h-.01Z" fill="#116B5E"/><path opacity=".7" d="M378.015 157.436v.031c-.978 2.767-1.799 5.744-2.493 8.816-.716 3.177-1.294 6.459-1.778 9.773-.105.768-.211 1.525-.305 2.293a200.122 200.122 0 0 0-1.073 11.088 239.488 239.488 0 0 0-.337 5.786 280.668 280.668 0 0 0-.231 14.076c.042 4.945.21 8.027.21 8.027h-42.396c-6.006-42.985 6.113-62.373 6.113-62.373s4.46-.905 9.636-1.21a33.072 33.072 0 0 1 2.083-.084c4.566-.105 12.024.568 17.169 1.168a65.57 65.57 0 0 1 3.229.441 112.72 112.72 0 0 1 10.184 2.168h-.011Z" fill="#fff"/><path d="M297.978 392.936s14.118-4.166 15.149-9.72c.105-.547.558-.905 1.136-.81l10.257 1.715c.474.084.894.452 1.042.915l3.124 9.973-2.903.094-1.073-1.43-1.221 1.504c-15.738.495-22.544.537-25.69-.347-.494-1.378.169-1.894.169-1.894h.01Zm56.84 0s14.118-4.166 15.149-9.72c.105-.547.557-.905 1.136-.81l10.257 1.715c.473.084.894.452 1.042.915l3.124 9.973-2.904.094-1.073-1.43-1.22 1.504c-15.738.495-22.544.537-25.69-.347-.494-1.378.169-1.894.169-1.894h.01Z" fill="#000"/><path d="M358.458 219.114c-.084.263-2.619 8.216-6.038 19.62-.19.652-.39 1.326-.589 1.999-1.61 5.428-3.388 11.53-5.176 17.905-2.188 7.753-4.387 15.906-6.333 23.712-2.809 11.288-5.082 21.85-5.986 29.467a64625.734 64625.734 0 0 0-8.711 74.376l-13.297-3.409s-2.43-53.462.095-79.005c1.609-16.232 8.826-49.275 13.549-69.81a1537.53 1537.53 0 0 1 4.166-17.79l15.275 1.589 13.045 1.346Z" fill="#263238"/><path opacity=".2" d="M340.322 282.35c3.545-14.223 7.932-29.593 11.508-41.617l-2.798-6.438c-7.238 8.121-9.741 33.948-8.71 48.055Z" fill="#000"/><path d="m383.117 385.415-14.749 1.43s-17.011-49.507-19.189-75.407c-.947-11.267-1.851-33.064-2.525-52.8-.504-14.454-.883-27.794-1.094-35.084-.094-3.651-.147-5.786-.147-5.786l13.045 1.357 13.96.421s.652 3.208.463 16.79c-.305 21.071-1.01 58.165-.61 78.1.526 25.827 10.846 70.979 10.846 70.979Z" fill="#263238"/><path d="m360.961 136.827-10.393 9.079c1.146 4.281-.547 8.31-2.62 9.099l1.547 4.282 12.845-4.944c-3.293-3.356-2.357-11.993-1.368-17.527l-.011.011Z" fill="#E4897B"/><path opacity=".2" d="m356.722 140.53-6.155 5.376c.274 1.01.495 2.041.59 3.04 2.356-.358 5.544-2.967 5.754-5.439.105-1.231.032-2.409-.179-2.977h-.01Z" fill="#000"/><path d="M361.288 151.786s-7.964 2.504-9.09 3.167c-1.125.663-2.43 3.819-2.43 3.819s.873-3.251.432-5.124c-.442-1.872-1.231-1.862-1.231-1.862l-2.041 4.177s-.431 3.598 2.851 4.124c3.271.526 13.244-5.439 13.244-5.439l-1.735-2.862Z" fill="#116B5E"/><path opacity=".6" d="M361.288 151.786s-7.964 2.504-9.09 3.167c-1.125.663-2.43 3.819-2.43 3.819s.873-3.251.432-5.124c-.442-1.872-1.231-1.862-1.231-1.862l-2.041 4.177s-.431 3.598 2.851 4.124c3.271.526 13.244-5.439 13.244-5.439l-1.735-2.862Z" fill="#fff"/><path d="M342.278 121.541c-1.872 2.22.295 5.05.211 7.227-.085 2.168-.463 4.997 2.325 2.01 2.787-2.988.399-12.298-2.536-9.226v-.011Z" fill="#263238"/><path d="M361.688 131.02c-.936 7.237.021 8.468-3.903 11.919-5.912 5.197-15.022 5.691-15.843-1.768-.736-6.711-.621-18.767 6.701-21.124 7.217-2.314 13.981 3.724 13.045 10.962v.011Z" fill="#FF8B7B"/><path d="M360.614 135.891c-3.272 1.977-4.334-2.63-4.103-2.988.989-1.557.937-2.883-.242-5.86-1.178-2.977 4.787-6.417 9.121-5.133 3.998 1.188-.052 4.302.463 6.901.915 4.639-2.609 5.481-5.25 7.069l.011.011Z" fill="#263238"/><path d="M344.288 138.826s2.051-.548 7.858-.853c-.641 1.631-1.872 3.009-4.849 3.135-2.978.127-3.02-2.293-3.02-2.293l.011.011Z" fill="#fff"/><path d="M364.687 136.09c-.832 1.694-2.252 2.851-3.577 3.325-1.999.715-2.956-1.263-2.357-3.409.537-1.935 2.22-4.639 4.208-4.418 1.957.221 2.672 2.556 1.726 4.502Z" fill="#FF8B7B"/><path d="M352.841 131.167c-.063.621-.348.652-.758.61-.4-.042-.778-.157-.705-.778.063-.621.442-1.084.852-1.031.411.053.684.589.611 1.199Zm-7.618-.021c-.063.621-.347.652-.757.61-.4-.042-.778-.157-.705-.778.074-.621.442-1.084.852-1.031.4.042.684.589.61 1.199Z" fill="#263238"/><path d="M346.424 130.936s-1.21 2.693-2.462 3.966c.81.831 2.262.547 2.262.547l.2-4.513Z" fill="#FF5652"/><path d="M354.176 128.463c.064 0 .116-.031.169-.073a.378.378 0 0 0 .063-.516c-1.262-1.588-2.946-1.462-3.019-1.462-.2.021-.347.2-.326.4a.38.38 0 0 0 .399.336c.053 0 1.368-.084 2.378 1.179a.374.374 0 0 0 .347.136h-.011Zm-12.571 1.242c.116.032.242 0 .337-.095 1.167-1.104 2.451-.82 2.504-.81a.355.355 0 0 0 .431-.273.371.371 0 0 0-.274-.442c-.073-.011-1.714-.4-3.177.989a.365.365 0 0 0-.01.515.34.34 0 0 0 .179.105l.01.011Zm8.647-6.891s-5.481 2.43-7.911-2.356c-2.43-4.787 4.082-7.627 4.082-7.627s-.852 1.662 0 3.324c0 0 1.104-3.471 5.691-2.356 4.587 1.104 11.888 2.545 13.403 4.997 1.315 2.135.347 3.955.347 3.955l-7.491 1.799s-2.914-4.65-8.121-1.736Zm-21.124 90.893-.326 8.048 44.1 7.111c0-6.964-1.095-16.022-1.095-16.022l-42.679.863Z" fill="#263238"/><path d="m371.576 217.032.904-.022-.315-2.914-.8.011.211 2.925Zm-33.548.568 18.21-.306-.2-2.924-18.126.326.116 2.904Zm-1.526-2.883-7.7.137v2.914l7.795-.137-.095-2.914Zm33.453-.589-12.518.221.231 2.914 12.477-.211-.19-2.924Z" fill="#263238"/><path d="m371.576 217.032.904-.022-.315-2.914-.8.011.211 2.925Zm-33.548.568 18.21-.306-.2-2.924-18.126.326.116 2.904Zm-1.526-2.883-7.7.137v2.914l7.795-.137-.095-2.914Zm33.453-.589-12.518.221.231 2.914 12.477-.211-.19-2.924Z" opacity=".2" fill="#fff"/><path d="m343.499 215.148.095 1.767a.53.53 0 0 0 .526.505h4.544a.54.54 0 0 0 .526-.578l-.136-1.841a.532.532 0 0 0-.537-.495l-4.513.085a.52.52 0 0 0-.515.557h.01Z" stroke="#fff" stroke-width=".789" stroke-miterlimit="10"/><path d="M347.128 215.927h1.389" stroke="#fff" stroke-width=".789" stroke-linecap="round" stroke-linejoin="round"/><path opacity=".1" d="M375.511 166.283c-.716 3.177-1.294 6.459-1.778 9.773-1.484-4.124-.831-8.889-.831-8.889.936-.663 1.809-.937 2.609-.884Zm-3.157 23.155a244.095 244.095 0 0 0-.337 5.786c-.136 3.345-.21 6.49-.231 9.289-4.439-1.841-12.477-5.481-13.423-8.322-1.315-3.945.862-5.754.862-5.754s8.353-.126 13.129-.999Z" fill="#000"/><path d="m352.936 188.669-2.241.674a2.458 2.458 0 0 0-1.736 2.651l.337 2.924a2.466 2.466 0 0 0 2.02 2.146l1.346.242s4.482 2.935 8.711-1.252l.063-4.797-6.943-2.535a2.464 2.464 0 0 0-1.557-.042v-.011Z" fill="#E4897B"/><path d="M359.237 191.089s-2.094-3.85-2.167-6.175c-.074-2.325-2.094.389-1.105 2.093.989 1.705-.778 2.862-.778 2.862l4.039 1.22h.011Z" fill="#E4897B"/><path d="m390.522 190.027-.074-.547-.074-.39-.084-.442-.158-.883c-.852-4.724-1.809-9.437-3.04-14.202-.631-2.399-1.294-4.787-2.262-7.322-.505-1.284-1.02-2.567-1.904-4.071-.452-.758-.978-1.589-1.872-2.515a9.633 9.633 0 0 0-1.768-1.43 8.407 8.407 0 0 0-2.63-1.073s-2.525 1.157-3.324 4.986c-.694 3.324-.495 5.597-.347 5.86.326.536.726 1.451 1.073 2.388.726 1.904 1.42 4.071 2.083 6.238 1.304 4.303 2.503 8.774 3.724 13.234-.526.158-1.126.295-1.757.421a34.65 34.65 0 0 1-3.135.442c-4.355.431-9.089.505-13.687.515l-.862 5.608c4.807 1.346 9.552 2.282 14.696 2.609 1.284.063 2.599.094 3.977.031a20.881 20.881 0 0 0 4.429-.621c.82-.22 1.693-.505 2.682-1.01.979-.536 2.157-1.304 3.135-2.798a7.35 7.35 0 0 0 1.052-2.504c.211-.904.2-1.746.137-2.524h-.01Z" fill="#116B5E"/><path opacity=".7" d="m390.522 190.027-.074-.547-.074-.39-.084-.442-.158-.883c-.852-4.724-1.809-9.437-3.04-14.202-.631-2.399-1.294-4.787-2.262-7.322-.505-1.284-1.02-2.567-1.904-4.071-.452-.758-.978-1.589-1.872-2.515a9.633 9.633 0 0 0-1.768-1.43 8.407 8.407 0 0 0-2.63-1.073s-2.525 1.157-3.324 4.986c-.694 3.324-.495 5.597-.347 5.86.326.536.726 1.451 1.073 2.388.726 1.904 1.42 4.071 2.083 6.238 1.304 4.303 2.503 8.774 3.724 13.234-.526.158-1.126.295-1.757.421a34.65 34.65 0 0 1-3.135.442c-4.355.431-9.089.505-13.687.515l-.862 5.608c4.807 1.346 9.552 2.282 14.696 2.609 1.284.063 2.599.094 3.977.031a20.881 20.881 0 0 0 4.429-.621c.82-.22 1.693-.505 2.682-1.01.979-.536 2.157-1.304 3.135-2.798a7.35 7.35 0 0 0 1.052-2.504c.211-.904.2-1.746.137-2.524h-.01Z" fill="#fff"/></g><defs><clipPath id="a"><path fill="#fff" d="M0 0h450v450H0z"/></clipPath></defs></svg>