<svg width="450" height="450" viewBox="0 0 450 450" fill="none" xmlns="http://www.w3.org/2000/svg"><g clip-path="url(#a)"><path d="M434.495 386.969h-34.71v.262h34.71v-.262Zm-124.376 2.85h-9.107v.262h9.107v-.262Zm88.618-12.574h-20.111v.262h20.111v-.262Zm-335.495 1.76H17.979v.262h45.263v-.262Zm15.971 0h-6.634v.262h6.634v-.262Zm119.744 4.422H100.78v.262h98.177v-.262Zm12.429-60.05H9.028a5.989 5.989 0 0 1-5.984-5.984V32.983c0-3.3 2.683-5.983 5.984-5.983h202.369a5.988 5.988 0 0 1 5.984 5.983v284.41a5.989 5.989 0 0 1-5.984 5.984h-.011ZM9.028 27.262a5.729 5.729 0 0 0-5.722 5.721v284.41a5.73 5.73 0 0 0 5.722 5.722h202.369a5.73 5.73 0 0 0 5.722-5.722V32.983a5.73 5.73 0 0 0-5.722-5.721H9.028Zm429.041 296.115H235.7a5.989 5.989 0 0 1-5.984-5.984V32.983c0-3.3 2.683-5.983 5.984-5.983h202.369a5.988 5.988 0 0 1 5.984 5.983v284.41a5.989 5.989 0 0 1-5.984 5.984ZM235.7 27.262a5.729 5.729 0 0 0-5.722 5.721v284.41a5.73 5.73 0 0 0 5.722 5.722h202.369a5.73 5.73 0 0 0 5.722-5.722V32.983a5.73 5.73 0 0 0-5.722-5.721H235.7ZM487 370.109H-37v.262h524v-.262Z" fill="#EBEBEB"/><path d="M52.98 158.827v-20.402h-1.572v20.402a2.519 2.519 0 0 0-1.75 2.399v6.465a2.538 2.538 0 0 0 2.536 2.536 2.538 2.538 0 0 0 2.536-2.536v-6.465a2.53 2.53 0 0 0-1.75-2.399Z" fill="#E0E0E0"/><path d="M60.642 138.425H57.51v229.746h3.133V138.425Z" fill="#EBEBEB"/><path d="M79.516 369.114H38.644a3.82 3.82 0 0 1 3.826-3.825h33.22a3.82 3.82 0 0 1 3.825 3.825ZM57.509 154.667l3.133-1.027v-15.215H57.51v16.242Z" fill="#E0E0E0"/><path d="M77.84 90.76H40.32l-11.528 49.772h60.574L77.84 90.76Z" fill="#F0F0F0"/><path d="M242.46 104.78v-8.938c-1.1 0-1.1-1.708 0-1.708 3.406 0 6.812-.021 10.229-.042v12.406H242.46c-1.1 0-1.1-1.708 0-1.708v-.01Z" fill="#EBEBEB"/><path d="M250.404 95.852h-7.944v8.928h7.944v-8.928Z" fill="#F5F5F5"/><path d="M248.737 105.639h27.531c1.897 0 3.427-2.379 3.427-5.323 0-2.944-1.53-5.323-3.427-5.323h-27.531v10.646Z" fill="#FAFAFA"/><path d="M248.737 94.134c9.013 0 18.047-.168 27.06 0 6.172.115 6.508 11.945.45 12.354-4.223.293-8.562 0-12.796 0h-14.714c-1.1 0-1.1-1.708 0-1.708h25.634c1.981 0 3.396-.021 4.161-2.358.66-2.022.451-6.14-2.253-6.58-.294-.053-.639 0-.922 0h-26.609c-1.101 0-1.101-1.708 0-1.708h-.011Z" fill="#E6E6E6"/><path d="M242.365 92.72v-7.943c-.975 0-.985-1.52 0-1.52 3.029 0 6.057-.02 9.086-.042v11.023h-9.086c-.975 0-.985-1.519 0-1.519Z" fill="#EBEBEB"/><path d="M249.418 84.777h-7.053v7.932h7.053v-7.932Z" fill="#F5F5F5"/><path d="M247.94 93.474h24.471c1.687 0 3.05-2.117 3.05-4.737 0-2.619-1.363-4.725-3.05-4.725H247.94v9.462Z" fill="#FAFAFA"/><path d="M247.94 83.257c8.007 0 16.035-.146 24.042 0 5.491.095 5.785 10.615.398 10.982-3.752.262-7.609 0-11.371 0H247.93c-.975 0-.985-1.52 0-1.52h22.773c1.761 0 3.018-.02 3.689-2.095.587-1.792.398-5.449-2.002-5.847-.262-.042-.566 0-.828 0h-23.643c-.974 0-.985-1.52 0-1.52h.021Z" fill="#E6E6E6"/><path d="M242.46 116.924v-8.938c-1.1 0-1.1-1.708 0-1.708 3.406 0 6.812-.021 10.229-.042v12.406H242.46c-1.1 0-1.1-1.708 0-1.708v-.01Z" fill="#EBEBEB"/><path d="M250.404 107.996h-7.944v8.928h7.944v-8.928Z" fill="#F5F5F5"/><path d="M248.737 117.783h27.531c1.897 0 3.427-2.378 3.427-5.323 0-2.944-1.53-5.323-3.427-5.323h-27.531v10.646Z" fill="#FAFAFA"/><path d="M248.737 106.278c9.013 0 18.047-.168 27.06 0 6.172.115 6.508 11.945.45 12.354-4.223.293-8.562 0-12.796 0h-14.714c-1.1 0-1.1-1.708 0-1.708h25.634c1.981 0 3.396-.021 4.161-2.358.66-2.022.451-6.14-2.253-6.58-.294-.052-.639 0-.922 0h-26.609c-1.101 0-1.101-1.708 0-1.708h-.011Z" fill="#E6E6E6"/><path d="M310.098 117.259h57.535v7.377H124.654v-7.377h185.444Z" fill="#F5F5F5"/><path d="M353.884 142.585v-17.949h8.971l-8.971 17.949Z" fill="#E0E0E0"/><path d="m358.369 142.585 8.982-17.949h-4.496l-8.971 17.949h4.485Z" fill="#F5F5F5"/><path d="M138.111 142.585v-17.949h-8.971l8.971 17.949Z" fill="#E0E0E0"/><path d="m133.625 142.585-8.971-17.949h4.486l8.971 17.949h-4.486Z" fill="#F5F5F5"/><path d="M295.635 99.279c0 10.782 8.74 19.521 19.524 19.521s19.524-8.739 19.524-19.521v-.681c0-10.782-8.74-19.521-19.524-19.521s-19.524 8.739-19.524 19.52v.682Z" fill="#E6E6E6"/><path d="M295.635 96.47c0 10.783 8.74 19.522 19.524 19.522s19.524-8.739 19.524-19.521v-.681c0-10.783-8.74-19.521-19.524-19.521s-19.524 8.738-19.524 19.52v.682Z" fill="#F0F0F0"/><path d="M299.91 95.79c0 8.424 6.833 15.256 15.259 15.256s15.259-6.832 15.259-15.257c0-8.424-6.833-15.256-15.259-15.256S299.91 87.365 299.91 95.79Z" fill="#FAFAFA"/><path d="M315.159 82.954c-8.017 0-14.577 6.192-15.196 14.051-.031-.398-.063-.796-.063-1.205 0-8.424 6.833-15.256 15.259-15.256s15.259 6.832 15.259 15.256c0 .409-.031.807-.063 1.205-.618-7.859-7.179-14.051-15.196-14.051Z" fill="#E6E6E6"/><path d="M305.528 95.79h8.017v-8.016a1.614 1.614 0 0 1 3.228 0v9.63c0 .89-.723 1.613-1.614 1.613h-9.631a1.614 1.614 0 0 1 0-3.227Z" fill="#E0E0E0"/><path d="M305.528 97.403a1.614 1.614 0 0 1 0-3.227h9.631a1.614 1.614 0 0 1 0 3.227h-9.631Z" fill="#F5F5F5"/><path d="M313.545 86.16a1.614 1.614 0 0 1 3.228 0v9.63a1.614 1.614 0 0 1-3.228 0v-9.63Z" fill="#EBEBEB"/><path d="M192.471 117.511h11.769v-48.87h-11.769v48.87Z" fill="#E0E0E0"/><path d="M198.35 110.689a3.615 3.615 0 1 0 .002-7.23 3.615 3.615 0 0 0-.002 7.23Z" fill="#FAFAFA"/><path opacity=".6" d="M194.734 96.9h7.242V73.366h-7.242V96.9Z" fill="#F0F0F0"/><path opacity=".6" d="M194.734 76.688h7.242v-3.322h-7.242v3.322Z" fill="#FAFAFA"/><path d="M183.637 117.51h9.506V78.039h-9.506v39.471Z" fill="#E6E6E6"/><path d="M185.471 109.075a2.925 2.925 0 0 0 5.848 0 2.925 2.925 0 0 0-5.848 0Z" fill="#FAFAFA"/><path opacity=".6" d="M185.461 100.85h5.848V81.843h-5.848v19.007Z" fill="#F0F0F0"/><path opacity=".6" d="M185.461 84.525h5.848v-2.683h-5.848v2.683Z" fill="#FAFAFA"/><path d="M211.838 117.511h11.769v-48.87h-11.769v48.87Z" fill="#EBEBEB"/><path d="M217.718 110.689a3.615 3.615 0 1 0 .002-7.23 3.615 3.615 0 0 0-.002 7.23Z" fill="#E0E0E0"/><path opacity=".6" d="M214.102 96.9h7.242V73.366h-7.242V96.9Z" fill="#FAFAFA"/><path opacity=".6" d="M214.102 76.688h7.242v-3.322h-7.242v3.322Z" fill="#FAFAFA"/><path d="M172.706 117.511h11.769v-48.87h-11.769v48.87Z" fill="#E0E0E0"/><path d="M178.594 110.689a3.615 3.615 0 1 0 .002-7.23 3.615 3.615 0 0 0-.002 7.23Z" fill="#FAFAFA"/><path opacity=".6" d="M174.979 96.9h7.242V73.366h-7.242V96.9Z" fill="#F0F0F0"/><path opacity=".6" d="M174.979 76.688h7.242v-3.322h-7.242v3.322Z" fill="#FAFAFA"/><path d="m155.923 116.767 11.705 1.23 5.109-48.603-11.704-1.23-5.11 48.603Z" fill="#EBEBEB"/><path d="M159.26 106.613a3.624 3.624 0 0 0 3.218 3.982 3.623 3.623 0 0 0 3.982-3.217 3.622 3.622 0 0 0-3.217-3.981 3.624 3.624 0 0 0-3.983 3.216Z" fill="#E0E0E0"/><path opacity=".6" d="m160.335 96.49 7.202.757 2.461-23.406-7.203-.756-2.46 23.405Z" fill="#F5F5F5"/><path opacity=".6" d="m162.443 76.387 7.202.757.347-3.303-7.202-.757-.347 3.303Z" fill="#FAFAFA"/><path d="M203.392 117.51h9.505V78.039h-9.505v39.471Z" fill="#E6E6E6"/><path d="M205.226 109.076a2.925 2.925 0 0 0 5.847 0 2.925 2.925 0 0 0-2.924-2.924 2.925 2.925 0 0 0-2.923 2.924Z" fill="#FAFAFA"/><path opacity=".6" d="M205.226 100.85h5.848V81.843h-5.848v19.007Z" fill="#F0F0F0"/><path opacity=".6" d="M205.226 84.525h5.848v-2.682h-5.848v2.682Z" fill="#FAFAFA"/><path d="M219.949 413.395c112.222 0 203.196-5.311 203.196-11.861 0-6.551-90.974-11.862-203.196-11.862-112.223 0-203.197 5.311-203.197 11.862 0 6.55 90.974 11.861 203.197 11.861Z" fill="#F5F5F5"/><path d="M224.402 257.364h-19.639l9.432-29.863h19.639l-9.432 29.863Z" fill="#116B5E"/><path opacity=".2" d="M211.439 236.219h19.64l2.756-8.718h-19.639l-2.757 8.718Z" fill="#000"/><path d="M239.944 255.467h-37.582v4.537h37.582v-4.537Z" fill="#116B5E"/><path opacity=".5" d="M239.944 255.467h-37.582v4.537h37.582v-4.537Z" fill="#fff"/><path opacity=".6" d="M221.153 255.467h-18.791v4.537h18.791v-4.537Z" fill="#fff"/><path d="m385.563 221.015-6.843-78.21-107.116 9.452H163.66l-108.772-9.452-2.096 2.096 6.843 78.209 108.772 9.452h107.944l107.116-9.452 2.096-2.095Z" fill="#116B5E"/><path opacity=".2" d="m385.564 221.015-6.843-78.21-107.116 9.452H163.661l-108.772-9.452 6.843 78.21 108.772 9.451h107.944l107.116-9.451Z" fill="#fff"/><path opacity=".8" d="m375.874 146.26-100.883 8.825 6.293 71.92 100.883-8.824-6.293-71.921Z" fill="#fff"/><path opacity=".5" d="M293.927 162.368a1.109 1.109 0 0 1-1.205-1.016 1.119 1.119 0 0 1 1.016-1.216l25.373-2.232a1.11 1.11 0 0 1 1.205 1.017 1.118 1.118 0 0 1-1.017 1.215l-25.372 2.232Z" fill="#263238"/><path opacity=".5" d="M293.927 162.368a1.109 1.109 0 0 1-1.205-1.016 1.119 1.119 0 0 1 1.016-1.216l25.373-2.232a1.11 1.11 0 0 1 1.205 1.017 1.118 1.118 0 0 1-1.017 1.215l-25.372 2.232Z" fill="#fff"/><path opacity=".5" d="M335.207 158.722a1.11 1.11 0 0 1-1.205-1.017 1.118 1.118 0 0 1 1.017-1.215l25.372-2.232a1.109 1.109 0 0 1 1.205 1.016 1.119 1.119 0 0 1-1.017 1.216l-25.372 2.232Z" fill="#263238"/><path opacity=".5" d="M335.207 158.722a1.11 1.11 0 0 1-1.205-1.017 1.118 1.118 0 0 1 1.017-1.215l25.372-2.232a1.109 1.109 0 0 1 1.205 1.016 1.119 1.119 0 0 1-1.017 1.216l-25.372 2.232Z" fill="#fff"/><path d="M320.86 176.011c.629 7.156-4.622 13.464-11.727 14.093-7.106.629-13.373-4.663-13.991-11.82-.629-7.156 4.622-13.464 11.727-14.093 7.105-.628 13.373 4.663 13.991 11.82Z" fill="#116B5E"/><path d="m302.414 183.869-1.467.126a.69.69 0 0 1-.744-.629l-.608-6.936a.703.703 0 0 1 .629-.755l1.467-.125a.69.69 0 0 1 .744.628l.608 6.937a.7.7 0 0 1-.629.754Zm1.919-8.833c.943-.943 3.312-3.573 3.301-6.413 0-1.393 1.918-1.98 2.62-.785.524.901.65 2.63-.293 5.867l3.626-.314a2.444 2.444 0 0 1 2.358 1.278c.272.503.356 1.08.251 1.645l-1.058 5.47a2.44 2.44 0 0 1-2.568 1.98l-6.927-.492a1.177 1.177 0 0 1-1.09-1.069l-.545-6.234a1.145 1.145 0 0 1 .335-.933h-.01Zm57.809-2.661c-.629-7.157-6.896-12.448-13.991-11.82-7.105.629-12.356 6.937-11.727 14.094.629 7.156 6.896 12.448 13.991 11.819 7.105-.629 12.356-6.937 11.727-14.093Z" opacity=".9" fill="#fff"/><path d="m342.607 167.858-1.467.126a.696.696 0 0 0-.629.755l.608 6.936c.031.377.367.66.744.629l1.467-.126a.694.694 0 0 0 .629-.754l-.608-6.937a.692.692 0 0 0-.744-.629Zm3.427 8.362c1.089.755 3.877 2.945 4.359 5.742.241 1.373 2.232 1.624 2.715.315.356-.985.178-2.704-1.31-5.722l3.626-.314a2.44 2.44 0 0 0 2.096-1.666 2.464 2.464 0 0 0-.042-1.666l-1.991-5.208a2.43 2.43 0 0 0-2.872-1.498l-6.739 1.697a1.177 1.177 0 0 0-.88 1.247l.545 6.235c.031.346.21.66.493.859v-.021Zm-41.362 33.572-7.652.675.78 8.851 7.652-.675-.78-8.851Z" fill="#116B5E"/><path opacity=".9" d="m312.497 211.056-7.652.675.61 6.92 7.652-.675-.61-6.92Zm14.512-10.343-7.653.675 1.404 15.907 7.652-.675-1.403-15.907Zm15.134-3.242-7.652.674 1.571 17.807 7.652-.675-1.571-17.806Zm15.66 2.611-7.652.675 1.221 13.841 7.652-.675-1.221-13.841Z" fill="#fff"/><path d="m319.478 202.817-7.652.675 1.277 14.477 7.652-.675-1.277-14.477Zm14.852-6.58-7.652.675 1.738 19.706 7.652-.675-1.738-19.706Zm15.636 2.446-7.653.675 1.404 15.907 7.652-.675-1.403-15.907Zm14.526-10.156-7.652.675 2.18 24.716 7.652-.675-2.18-24.716Z" fill="#116B5E"/><path opacity=".8" d="m58.325 146.232 6.299 71.922 102.431 8.886-6.288-71.923-102.442-8.885Z" fill="#fff"/><path d="m131.487 179.531-54.979-4.767c-2.316-.199-4.36-2.232-4.558-4.527l-.692-7.921c-.2-2.295 1.51-4.003 3.825-3.793l54.978 4.767c2.316.199 4.36 2.232 4.559 4.527l.692 7.921c.199 2.295-1.509 4.003-3.825 3.793Z" fill="#fff"/><path d="M85.605 167.481c.241 2.746-1.813 4.778-4.58 4.537-2.766-.241-5.208-2.661-5.45-5.417-.24-2.745 1.814-4.778 4.58-4.537 2.767.241 5.21 2.662 5.45 5.417Z" fill="#116B5E"/><path d="M92.019 165.25c-.598-.053-1.132-.577-1.185-1.174-.052-.597.398-1.037.996-.985l33.693 2.924c.597.052 1.132.576 1.184 1.173.053.597-.398 1.037-.995.985l-33.694-2.923Zm.681 7.795c-.597-.052-1.132-.576-1.184-1.173-.053-.597.398-1.037.995-.985l19.734 1.708c.598.052 1.132.576 1.185 1.173.052.598-.399 1.038-.996.985L92.7 173.045Zm-.336-3.897c-.597-.053-1.132-.577-1.184-1.174-.053-.597.398-1.037.995-.985l28.579 2.483c.598.053 1.132.577 1.185 1.174.052.597-.399 1.037-.996.985l-28.579-2.483Z" fill="#263238"/><path d="M92.019 165.25c-.598-.053-1.132-.577-1.185-1.174-.052-.597.398-1.037.996-.985l33.693 2.924c.597.052 1.132.576 1.184 1.173.053.597-.398 1.037-.995.985l-33.694-2.923Zm.681 7.795c-.597-.052-1.132-.576-1.184-1.173-.053-.597.398-1.037.995-.985l19.734 1.708c.598.052 1.132.576 1.185 1.173.052.598-.399 1.038-.996.985L92.7 173.045Zm-.336-3.897c-.597-.053-1.132-.577-1.184-1.174-.053-.597.398-1.037.995-.985l28.579 2.483c.598.053 1.132.577 1.185 1.174.052.597-.399 1.037-.996.985l-28.579-2.483Z" opacity=".5" fill="#fff"/><path d="m134.357 155.777-6.424-.492c-.88-.063-1.53.587-1.446 1.467l.524 5.344c.084.88.87 1.645 1.75 1.708l1.855.146.912 1.3c.314.44.932.482 1.152.083l.65-1.205 1.845.147c.89.073 1.53-.587 1.446-1.467l-.524-5.333c-.084-.881-.87-1.645-1.761-1.708l.021.01Z" fill="#116B5E"/><path d="M129.412 160.115c-.556-.545-.818-1.1-.87-1.593-.073-.827.44-1.341 1.289-1.267.786.073 1.09.45 1.604 1.016.419-.482.649-.828 1.446-.754.849.073 1.457.681 1.53 1.508.042.482-.136 1.017-.597 1.467l-2.002 1.981-2.379-2.358h-.021Z" fill="#fff" opacity=".9"/><path d="m146.515 199.87-54.978-4.768c-2.316-.199-4.36-2.232-4.559-4.527l-.692-7.921c-.199-2.295 1.51-4.003 3.826-3.793l54.978 4.767c2.316.199 4.359 2.232 4.558 4.527l.692 7.922c.199 2.294-1.509 4.002-3.825 3.793Z" fill="#fff"/><path d="M100.623 187.83c.241 2.745-1.813 4.778-4.58 4.537-2.767-.241-5.209-2.661-5.45-5.417-.24-2.745 1.813-4.778 4.58-4.537 2.767.241 5.209 2.661 5.45 5.417Z" fill="#116B5E"/><path d="M107.048 185.598c-.598-.052-1.132-.576-1.184-1.173-.053-.597.398-1.037.995-.985l33.693 2.923c.598.053 1.132.577 1.185 1.174.052.597-.399 1.037-.996.985l-33.693-2.924Zm.681 7.786c-.597-.053-1.131-.577-1.184-1.174-.052-.597.398-1.037.996-.985l19.734 1.708c.597.053 1.131.576 1.184 1.174.052.597-.398 1.037-.996.985l-19.734-1.708Zm-.336-3.888c-.597-.052-1.131-.576-1.184-1.173-.052-.597.398-1.038.996-.985l28.579 2.483c.597.053 1.132.576 1.184 1.174.052.597-.398 1.037-.996.985l-28.579-2.484Z" fill="#263238"/><path d="M107.048 185.598c-.598-.052-1.132-.576-1.184-1.173-.053-.597.398-1.037.995-.985l33.693 2.923c.598.053 1.132.577 1.185 1.174.052.597-.399 1.037-.996.985l-33.693-2.924Zm.681 7.786c-.597-.053-1.131-.577-1.184-1.174-.052-.597.398-1.037.996-.985l19.734 1.708c.597.053 1.131.576 1.184 1.174.052.597-.398 1.037-.996.985l-19.734-1.708Zm-.336-3.888c-.597-.052-1.131-.576-1.184-1.173-.052-.597.398-1.038.996-.985l28.579 2.483c.597.053 1.132.576 1.184 1.174.052.597-.398 1.037-.996.985l-28.579-2.484Z" opacity=".5" fill="#fff"/><path d="m149.386 176.116-6.425-.493c-.88-.063-1.53.587-1.446 1.467l.524 5.344c.084.88.87 1.645 1.75 1.708l1.855.147.912 1.299c.314.44.933.482 1.153.084l.65-1.205 1.844.146c.891.074 1.53-.586 1.446-1.467l-.524-5.333c-.084-.88-.87-1.645-1.76-1.708l.021.011Z" fill="#116B5E"/><path d="M144.439 180.464c-.555-.545-.828-1.1-.87-1.593-.073-.827.441-1.341 1.289-1.267.786.073 1.09.45 1.604 1.016.419-.482.65-.828 1.446-.755.849.074 1.457.682 1.53 1.509.042.482-.136 1.017-.597 1.467l-2.002 1.981-2.379-2.358h-.021Z" fill="#fff" opacity=".9"/><path d="m139.336 219.579-54.978-4.767c-2.316-.199-4.36-2.232-4.559-4.527l-.691-7.922c-.2-2.294 1.509-4.002 3.825-3.793l54.978 4.768c2.316.199 4.36 2.232 4.559 4.527l.691 7.921c.199 2.295-1.509 4.003-3.825 3.793Z" fill="#fff"/><path d="M93.444 207.54c.241 2.745-1.813 4.778-4.58 4.537-2.766-.241-5.208-2.661-5.45-5.417-.24-2.746 1.814-4.778 4.58-4.537 2.767.241 5.209 2.661 5.45 5.417Z" fill="#116B5E"/><path d="M99.868 205.308c-.597-.053-1.132-.576-1.184-1.174-.053-.597.398-1.037.995-.985l33.694 2.924c.597.052 1.131.576 1.184 1.173.052.598-.398 1.038-.996.985l-33.693-2.923Zm.682 7.785c-.598-.052-1.132-.576-1.184-1.173-.053-.598.398-1.038.995-.985l27.122 2.357c.598.053 1.132.577 1.185 1.174.052.597-.399 1.037-.996.985l-27.122-2.358Zm-.346-3.887c-.597-.053-1.132-.576-1.184-1.174-.053-.597.398-1.037.995-.985l24.356 2.117c.597.052 1.132.576 1.184 1.173.053.598-.398 1.038-.995.985l-24.356-2.116Z" fill="#263238"/><path d="M99.868 205.308c-.597-.053-1.132-.576-1.184-1.174-.053-.597.398-1.037.995-.985l33.694 2.924c.597.052 1.131.576 1.184 1.173.052.598-.398 1.038-.996.985l-33.693-2.923Zm.682 7.785c-.598-.052-1.132-.576-1.184-1.173-.053-.598.398-1.038.995-.985l27.122 2.357c.598.053 1.132.577 1.185 1.174.052.597-.399 1.037-.996.985l-27.122-2.358Zm-.346-3.887c-.597-.053-1.132-.576-1.184-1.174-.053-.597.398-1.037.995-.985l24.356 2.117c.597.052 1.132.576 1.184 1.173.053.598-.398 1.038-.995.985l-24.356-2.116Z" opacity=".5" fill="#fff"/><path d="m142.386 197.942-6.425-.493c-.88-.063-1.53.587-1.446 1.467l.524 5.344c.084.88.87 1.645 1.75 1.708l1.855.147.912 1.299c.314.44.933.482 1.153.084l.65-1.205 1.844.147c.891.073 1.53-.587 1.446-1.467l-.524-5.334c-.084-.88-.87-1.645-1.76-1.708l.021.011Z" fill="#116B5E"/><path opacity=".9" d="M137.481 203.935a.579.579 0 0 1-.514-.513l-.157-1.802a.383.383 0 0 1 .43-.43.58.58 0 0 1 .513.514l.158 1.802c.021.262-.168.45-.43.429Zm.891-2.734c.315-.252 1.111-.975 1.111-1.897 0-.45.64-.534.881-.105.178.325.22.891-.105 1.886l1.215.105c.325.032.64.241.786.556a.837.837 0 0 1 .084.544l-.356 1.719c-.084.377-.451.597-.859.492l-2.316-.555a.493.493 0 0 1-.367-.409l-.178-2.053c0-.116.031-.221.115-.283h-.011Z" fill="#fff"/><path opacity=".8" d="m167.076 155.4 6.288 71.923h101.667l-6.299-71.923H167.076Z" fill="#fff"/><path d="M170.2 226.987a.889.889 0 0 1-.859-.785l-1.981-22.644a.708.708 0 0 1 .713-.786.89.89 0 0 1 .859.786l1.981 22.644a.707.707 0 0 1-.713.785Zm-2.348-26.845a.89.89 0 0 1-.859-.786l-2.809-32.136a.708.708 0 0 1 .713-.786c.43 0 .817.356.859.786l2.809 32.136a.708.708 0 0 1-.713.786Zm-3.165-36.15a.889.889 0 0 1-.859-.786l-.587-6.695a.708.708 0 0 1 .713-.786.89.89 0 0 1 .859.786l.587 6.695a.708.708 0 0 1-.713.786Zm113.456 62.995a.89.89 0 0 1-.859-.786l-2.882-32.954a.707.707 0 0 1 .713-.785.89.89 0 0 1 .859.785l2.882 32.954a.708.708 0 0 1-.713.786Zm-3.216-36.799a.889.889 0 0 1-.859-.786l-2.243-25.672a.707.707 0 0 1 .713-.785.89.89 0 0 1 .859.785l2.243 25.672a.708.708 0 0 1-.713.786Zm-2.662-30.324a.89.89 0 0 1-.86-.786l-.22-2.557a.708.708 0 0 1 .713-.786.89.89 0 0 1 .859.786l.22 2.557a.707.707 0 0 1-.712.786Z" fill="#000" opacity=".2"/><path d="M256.88 187.055a.972.972 0 0 1 .985-1.079 1.2 1.2 0 0 1 1.174 1.079l1.247 14.209a.972.972 0 0 1-.985 1.079 1.2 1.2 0 0 1-1.174-1.079l-1.247-14.209Z" fill="#116B5E"/><path d="M174.728 161.446a1.2 1.2 0 0 1-1.174-1.079.972.972 0 0 1 .985-1.079h24.691a1.2 1.2 0 0 1 1.174 1.079.972.972 0 0 1-.985 1.079h-24.691Zm.681 7.796a1.199 1.199 0 0 1-1.173-1.079.971.971 0 0 1 .985-1.08h20.499a1.2 1.2 0 0 1 1.173 1.08.971.971 0 0 1-.985 1.079h-20.499Zm-.346-3.898a1.2 1.2 0 0 1-1.174-1.079.972.972 0 0 1 .985-1.079h16.307a1.2 1.2 0 0 1 1.174 1.079.972.972 0 0 1-.985 1.079h-16.307Z" fill="#263238"/><path d="M174.728 161.446a1.2 1.2 0 0 1-1.174-1.079.972.972 0 0 1 .985-1.079h24.691a1.2 1.2 0 0 1 1.174 1.079.972.972 0 0 1-.985 1.079h-24.691Zm.681 7.796a1.199 1.199 0 0 1-1.173-1.079.971.971 0 0 1 .985-1.08h20.499a1.2 1.2 0 0 1 1.173 1.08.971.971 0 0 1-.985 1.079h-20.499Zm-.346-3.898a1.2 1.2 0 0 1-1.174-1.079.972.972 0 0 1 .985-1.079h16.307a1.2 1.2 0 0 1 1.174 1.079.972.972 0 0 1-.985 1.079h-16.307Z" opacity=".5" fill="#fff"/><path d="M262.78 178.201c.273 3.091-2.012 5.595-5.103 5.595-3.092 0-5.817-2.504-6.079-5.595-.272-3.091 2.012-5.596 5.104-5.596s5.816 2.505 6.078 5.596Z" fill="#116B5E"/><path d="M254.438 180.873a.681.681 0 0 1-.671-.618l-.21-2.358a.553.553 0 0 1 .566-.618.68.68 0 0 1 .671.618l.21 2.358a.554.554 0 0 1-.566.618Zm1.153-3.709c.408-.367 1.435-1.405 1.435-2.62 0-.597.839-.775 1.143-.231.23.409.283 1.153-.126 2.505h1.572c.419 0 .828.251 1.027.639.115.23.157.482.105.712l-.461 2.306c-.105.513-.577.838-1.111.754l-3.018-.471a.568.568 0 0 1-.472-.503l-.231-2.693a.478.478 0 0 1 .147-.388l-.01-.01Z" fill="#fff"/><path d="M265.569 210.128c-.272-3.091-2.997-5.595-6.078-5.595-3.081 0-5.376 2.504-5.104 5.595.273 3.091 2.997 5.595 6.079 5.595 3.081 0 5.376-2.504 5.103-5.595Z" fill="#116B5E"/><path d="M256.766 207.456a.553.553 0 0 0-.566.618l.21 2.358a.688.688 0 0 0 .67.618.553.553 0 0 0 .566-.618l-.209-2.358a.69.69 0 0 0-.671-.618Zm1.802 3.709c.472.367 1.688 1.405 1.897 2.62.105.597.975.775 1.184.231.158-.409.084-1.153-.565-2.505h1.572a.95.95 0 0 0 .911-.639c.074-.23.074-.482-.021-.712l-.869-2.306c-.189-.513-.724-.838-1.248-.754l-2.934.471a.464.464 0 0 0-.388.503l.231 2.693c.01.147.084.294.209.388l.021.01Z" fill="#fff"/><path d="M242.938 215.116c10.566-11.036 9.364-29.332-2.686-40.865-12.049-11.533-30.383-11.936-40.95-.9-10.566 11.036-9.364 29.332 2.686 40.865 12.049 11.533 30.383 11.936 40.95.9Z" fill="#116B5E"/><path opacity=".6" d="M239.767 173.779c-5.691-5.228-13.195-8.466-21.18-8.466-15.961 0-27.772 12.94-26.379 28.899h28.904l18.655-20.433Z" fill="#fff"/><path opacity=".2" d="m198.885 173.779 22.228 20.433-2.526-28.899c-7.986 0-14.923 3.237-19.702 8.466Z" fill="#000"/><path d="m198.885 173.779 22.228 20.433-2.526-28.899c-7.986 0-14.923 3.237-19.702 8.466Z" fill="#116B5E"/><path opacity=".3" d="m198.885 173.779 22.228 20.433-2.526-28.899c-7.986 0-14.923 3.237-19.702 8.466Z" fill="#000"/><path opacity=".3" d="M223.648 223.111c15.961 0 27.772-12.941 26.378-28.899h-28.904l-18.654 20.432c5.69 5.229 13.194 8.467 21.18 8.467Z" fill="#fff"/><path d="M242.565 218.175c.335 3.877-2.536 7.021-6.414 7.021-3.878 0-7.305-3.144-7.64-7.021-.335-3.877 2.536-7.02 6.414-7.02 3.877 0 7.304 3.143 7.64 7.02Z" fill="#263238"/><path d="M233.091 219.338c-.639-.576-.954-1.215-1.006-1.781-.084-.974.503-1.614 1.488-1.614.912 0 1.268.42 1.855 1.038.482-.618.755-1.038 1.667-1.038.985 0 1.687.65 1.771 1.614.052.566-.147 1.205-.692 1.781l-2.316 2.526-2.767-2.526Z" fill="#116B5E"/><path d="M202.918 182.969c.336 3.876-2.536 7.02-6.414 7.02-3.877 0-7.304-3.144-7.639-7.02-.336-3.877 2.536-7.021 6.413-7.021 3.878 0 7.305 3.144 7.64 7.021Z" fill="#263238"/><path d="M200.319 182.968c.209 2.442-1.593 4.422-4.035 4.422s-4.601-1.98-4.81-4.422c-.21-2.441 1.593-4.421 4.034-4.421 2.442 0 4.601 1.98 4.811 4.421Z" fill="#116B5E"/><path opacity=".5" d="M200.319 182.968c.209 2.442-1.593 4.422-4.035 4.422s-4.601-1.98-4.81-4.422c-.21-2.441 1.593-4.421 4.034-4.421 2.442 0 4.601 1.98 4.811 4.421Z" fill="#fff"/><path d="M197.51 183.911c-.828.828-2.107.828-3.081 0-.388-.335-.881.21-.493.535 1.31 1.111 3.039 1.111 4.15 0 .336-.335-.251-.87-.587-.535h.011Zm-2.799-2.378c.042.482-.094.87-.304.87-.209 0-.408-.388-.45-.87-.042-.482.094-.87.304-.87.209 0 .408.388.45.87Zm2.861 0c.042.482-.095.87-.304.87-.21 0-.409-.388-.451-.87-.042-.482.094-.87.304-.87s.409.388.451.87Z" fill="#116B5E"/><path d="M245.823 176.587c.336 3.877-2.536 7.021-6.413 7.021-3.878 0-7.305-3.144-7.64-7.021-.336-3.877 2.536-7.02 6.414-7.02 3.877 0 7.304 3.143 7.639 7.02Z" fill="#263238"/><path d="M243.225 176.587c.21 2.442-1.593 4.422-4.035 4.422s-4.601-1.98-4.81-4.422c-.21-2.441 1.593-4.422 4.035-4.422 2.441 0 4.6 1.981 4.81 4.422Z" fill="#116B5E"/><path opacity=".5" d="M243.225 176.587c.21 2.442-1.593 4.422-4.035 4.422s-4.601-1.98-4.81-4.422c-.21-2.441 1.593-4.422 4.035-4.422 2.441 0 4.6 1.981 4.81 4.422Z" fill="#fff"/><path d="M237.451 178.788c.828-.828 2.106-.828 3.081 0 .388.335.88-.21.493-.535-1.31-1.111-3.04-1.111-4.15 0-.336.335.251.87.586.535h-.01Zm.168-3.647c.042.482-.095.87-.304.87-.21 0-.409-.388-.451-.87-.042-.482.094-.87.304-.87s.409.388.451.87Zm2.86 0c.042.482-.094.87-.304.87s-.409-.388-.451-.87c-.042-.482.095-.87.304-.87.21 0 .409.388.451.87Z" fill="#116B5E"/><path d="M203.505 204.533c.335 3.877-2.536 7.02-6.414 7.02-3.877 0-7.304-3.143-7.64-7.02-.335-3.877 2.537-7.021 6.414-7.021 3.878 0 7.305 3.144 7.64 7.021Z" fill="#263238"/><path d="M200.906 204.533c.209 2.441-1.593 4.421-4.035 4.421s-4.601-1.98-4.81-4.421c-.21-2.442 1.592-4.422 4.034-4.422 2.442 0 4.601 1.98 4.811 4.422Z" fill="#116B5E"/><path opacity=".5" d="M200.906 204.533c.209 2.441-1.593 4.421-4.035 4.421s-4.601-1.98-4.81-4.421c-.21-2.442 1.592-4.422 4.034-4.422 2.442 0 4.601 1.98 4.811 4.422Z" fill="#fff"/><path d="M194.409 205.937c1.32 1.215 3.29 1.215 4.391 0l-.063-.744h-4.391l.063.744Zm1.487-2.735c-.639-.513-1.372-.513-1.928 0-.262.241.178.639.44.398.325-.304.744-.304 1.122 0 .304.241.67-.168.366-.398Zm2.861 0c-.64-.513-1.373-.513-1.929 0-.262.241.179.639.441.398.324-.304.744-.304 1.121 0 .304.241.671-.168.367-.398Zm77.469 51.521h-32.498v5.281h65.007v-2.169l-32.509-3.112Z" fill="#116B5E"/><path opacity=".6" d="M276.226 254.723h-32.498v5.281h65.007v-2.169l-32.509-3.112Z" fill="#fff"/><path opacity=".6" d="M276.226 260.004h-32.498v-5.281l32.498 3.112v2.169Z" fill="#fff"/><path d="m380.344 197.324-4.464-51.092-6.058.534-25.917 74.762 28.936-2.556 7.503-21.648Zm-137.623 29.999 24.942-71.923h-28.055l-24.942 71.923h28.055Zm-101.488-2.526 20.467-59.013-.933-10.667-22.741-1.97-24.031 69.293 27.238 2.357Z" fill="#fff" opacity=".5"/><path d="M120.452 264.08h208.825v4.453c0 .996-.807 1.803-1.803 1.803H122.265a1.802 1.802 0 0 1-1.802-1.803v-4.453h-.011Z" fill="#116B5E"/><path opacity=".2" d="M120.452 264.08h208.825v4.453c0 .996-.807 1.803-1.803 1.803H122.265a1.802 1.802 0 0 1-1.802-1.803v-4.453h-.011Z" fill="#000"/><path opacity=".3" d="M120.452 264.08h94.53v6.256h-92.727a1.803 1.803 0 0 1-1.803-1.803v-4.453Z" fill="#fff"/><path d="M333.532 260.004H116.198a2.127 2.127 0 0 0-2.128 2.127v.985c0 1.175.953 2.127 2.128 2.127h217.334a2.127 2.127 0 0 0 2.127-2.127v-.985a2.127 2.127 0 0 0-2.127-2.127Z" fill="#116B5E"/><path opacity=".4" d="M116.198 260.004h98.784v5.239h-98.784a2.129 2.129 0 0 1-2.128-2.127v-.985a2.13 2.13 0 0 1 2.128-2.127Z" fill="#fff"/><path d="M203.956 396.315h-72.479a7.884 7.884 0 0 1-7.881-7.879v-110.2a7.884 7.884 0 0 1 7.881-7.879h72.479a7.884 7.884 0 0 1 7.881 7.879v110.2a7.884 7.884 0 0 1-7.881 7.879Zm-72.479-121.767a3.694 3.694 0 0 0-3.689 3.688v110.2a3.694 3.694 0 0 0 3.689 3.688h72.479a3.694 3.694 0 0 0 3.689-3.688v-110.2a3.694 3.694 0 0 0-3.689-3.688h-72.479Z" fill="#263238"/><g opacity=".4"><path opacity=".2" d="M203.956 396.315h-72.479a7.884 7.884 0 0 1-7.881-7.879v-110.2a7.884 7.884 0 0 1 7.881-7.879h72.479a7.884 7.884 0 0 1 7.881 7.879v110.2a7.884 7.884 0 0 1-7.881 7.879Zm-72.479-121.767a3.694 3.694 0 0 0-3.689 3.688v110.2a3.694 3.694 0 0 0 3.689 3.688h72.479a3.694 3.694 0 0 0 3.689-3.688v-110.2a3.694 3.694 0 0 0-3.689-3.688h-72.479Z" fill="#fff"/></g><path opacity=".2" d="M203.956 270.346h-72.479c-4.077 0-7.441 3.112-7.839 7.083h4.244a3.686 3.686 0 0 1 3.595-2.892h72.479a3.686 3.686 0 0 1 3.595 2.892h4.244c-.398-3.971-3.762-7.083-7.839-7.083Z" fill="#000"/><path d="M316.784 396.316h-72.479c-4.349 0-7.881-3.532-7.881-7.88v-110.2c0-4.348 3.532-7.879 7.881-7.879h72.479a7.884 7.884 0 0 1 7.881 7.879v110.2a7.885 7.885 0 0 1-7.881 7.88Zm-72.479-121.768a3.694 3.694 0 0 0-3.689 3.688v110.2a3.694 3.694 0 0 0 3.689 3.688h72.479a3.693 3.693 0 0 0 3.689-3.688v-110.2a3.694 3.694 0 0 0-3.689-3.688h-72.479Z" fill="#263238"/><path opacity=".1" d="M316.784 396.316h-72.479c-4.349 0-7.881-3.532-7.881-7.88v-110.2c0-4.348 3.532-7.879 7.881-7.879h72.479a7.884 7.884 0 0 1 7.881 7.879v110.2a7.885 7.885 0 0 1-7.881 7.88Zm-72.479-121.768a3.694 3.694 0 0 0-3.689 3.688v110.2a3.694 3.694 0 0 0 3.689 3.688h72.479a3.693 3.693 0 0 0 3.689-3.688v-110.2a3.694 3.694 0 0 0-3.689-3.688h-72.479Z" fill="#fff"/><path opacity=".2" d="M316.785 270.346h-72.48c-4.077 0-7.441 3.112-7.839 7.084h4.244a3.685 3.685 0 0 1 3.595-2.892h72.48a3.684 3.684 0 0 1 3.594 2.892h4.245c-.399-3.972-3.763-7.084-7.839-7.084Z" fill="#000"/><path d="M186.445 296.249h-81.063a8.823 8.823 0 0 0-8.824 8.822v82.831a8.823 8.823 0 0 0 8.824 8.822h81.063a8.823 8.823 0 0 0 8.824-8.822v-82.831a8.823 8.823 0 0 0-8.824-8.822Z" fill="#116B5E"/><path opacity=".4" d="M186.445 296.249h-81.063a8.823 8.823 0 0 0-8.824 8.822v82.831a8.823 8.823 0 0 0 8.824 8.822h81.063a8.823 8.823 0 0 0 8.824-8.822v-82.831a8.823 8.823 0 0 0-8.824-8.822Z" fill="#fff"/><path opacity=".1" d="M96.558 387.818v.073a8.825 8.825 0 0 0 8.824 8.823h81.063a8.824 8.824 0 0 0 8.824-8.823v-.073H96.558Z" fill="#000"/><path d="M186.444 296.249h-22.479a8.823 8.823 0 0 0-8.824 8.822v82.831a8.823 8.823 0 0 0 8.824 8.822h22.479c4.874 0 8.825-3.95 8.825-8.822v-82.831c0-4.872-3.951-8.822-8.825-8.822Z" fill="#116B5E"/><path opacity=".3" d="M186.444 300.964h-22.479a4.108 4.108 0 0 0-4.109 4.107v82.831a4.108 4.108 0 0 0 4.109 4.107h22.479a4.108 4.108 0 0 0 4.108-4.107v-82.831a4.108 4.108 0 0 0-4.108-4.107Z" fill="#fff"/><path opacity=".7" d="M187.524 307.513h-24.628v6.549h24.628v-6.549Zm0 7.858h-24.628v6.549h24.628v-6.549Z" fill="#fff"/><path d="M175.21 351.605a5.124 5.124 0 1 0 0-10.248 5.124 5.124 0 1 0 0 10.248Z" fill="#116B5E"/><g opacity=".9" fill="#fff"><path d="M176.395 345.465c.985 1.069.325 2.871-1.195 2.881-1.52 0-2.169-1.823-1.195-2.881.493-.535-.304-1.331-.796-.796-1.635 1.77-.535 4.799 1.991 4.799 2.526 0 3.616-3.029 1.991-4.799-.492-.535-1.278.261-.796.796Z"/><path d="M174.645 343.495v2.557c0 .723 1.121.723 1.121 0v-2.557c0-.723-1.121-.723-1.121 0Z"/></g><path d="M165.495 363.215a1.572 1.572 0 1 0 0-3.144 1.572 1.572 0 0 0 0 3.144Zm6.476 0a1.572 1.572 0 1 0 0-3.143 1.572 1.572 0 0 0 0 3.143Zm6.477 0a1.572 1.572 0 1 0 0-3.144 1.572 1.572 0 0 0 0 3.144Zm6.477 0a1.572 1.572 0 1 0 0-3.144 1.572 1.572 0 0 0 0 3.144Zm-16.192 5.595a1.572 1.572 0 1 0 0-3.143 1.572 1.572 0 0 0 0 3.143Zm6.477 0a1.572 1.572 0 1 0 0-3.143 1.572 1.572 0 0 0 0 3.143Zm6.476 0a1.572 1.572 0 1 0 0-3.143 1.572 1.572 0 0 0 0 3.143Zm-16.191 6.182a1.571 1.571 0 1 0 .001-3.143 1.571 1.571 0 0 0-.001 3.143Zm6.476 0a1.57 1.57 0 1 0 0-3.143 1.572 1.572 0 0 0 0 3.143Zm6.477 0a1.571 1.571 0 1 0 .001-3.143 1.571 1.571 0 0 0-.001 3.143Zm6.477 0a1.571 1.571 0 1 0 .001-3.143 1.571 1.571 0 0 0-.001 3.143Zm-16.192 5.596a1.572 1.572 0 1 0 0-3.144 1.572 1.572 0 0 0 0 3.144Zm6.477 0a1.572 1.572 0 1 0 0-3.144 1.572 1.572 0 0 0 0 3.144Zm6.476 0a1.572 1.572 0 1 0 0-3.144 1.572 1.572 0 0 0 0 3.144Zm-16.191 6.182a1.572 1.572 0 1 0 0-3.144 1.572 1.572 0 0 0 0 3.144Zm6.476 0a1.572 1.572 0 1 0 0-3.143 1.572 1.572 0 0 0 0 3.143Zm6.477 0a1.572 1.572 0 1 0 0-3.144 1.572 1.572 0 0 0 0 3.144Zm6.477 0a1.572 1.572 0 1 0 0-3.144 1.572 1.572 0 0 0 0 3.144Z" fill="#116B5E"/><path d="m308.977 249.851-6.33-2.85-8.876 3.699v4.421s13.781-.461 13.77-.44c0 0 15.542 5.177 21.285 4.38 5.743-.796 24.02-26.269 24.02-26.269l-9.18-8.037-17.481 24.907-17.198.189h-.01Z" fill="#FCC1BB"/><path opacity=".1" d="m308.977 249.851-6.33-2.85-8.876 3.699v4.422s13.781-.461 13.77-.441l1.069.346 4.444-5.218-4.077.042Z" fill="#000"/><path d="M337.482 231.996s6.362-11.306 10.418-14.879c2.462-2.169 5.9-2.85 8.226-3.049 1.457-.126 2.704 1.037 2.715 2.494.031 4.463-1.132 14.187-10.323 24.183l-11.036-8.759v.01Z" fill="#263238"/><path d="M337.483 229.869s7.744 3.646 12.272 10.803l-2.474 1.907s-5.04-6.36-11.349-10.007l1.54-2.703h.011Z" fill="#116B5E"/><path d="m321.941 189.067-3.133 4.925s1.634 1.205 3.919.387l-.786-5.312Z" fill="#EB827E"/><path d="M321.406 192.179c-1.928 0-3.49-1.677-3.49-3.73 0-2.054 1.562-3.731 3.49-3.731 1.928 0 3.49 1.677 3.49 3.731 0 2.053-1.562 3.73-3.49 3.73Zm0-6.685c-1.488 0-2.704 1.32-2.704 2.944 0 1.624 1.216 2.945 2.704 2.945 1.488 0 2.704-1.321 2.704-2.945 0-1.624-1.216-2.944-2.704-2.944Z" fill="#116B5E"/><path d="M320.055 188.375c0 .639.314 1.153.733 1.163.419 0 .786-.534.776-1.152 0-.618-.315-1.153-.734-1.153s-.765.514-.775 1.142Z" fill="#1A2E35"/><path d="M344.598 184.404c.283 8.456.587 12.029-3.259 16.755-6.068 5.008-16.233 5.595-19.031-2.609-2.526-7.388-2.558-19.94 5.355-24.111 5.649-2.976 12.628-.807 15.605 4.841a11.533 11.533 0 0 1 1.33 5.134v-.01Z" fill="#FCC1BB"/><path opacity=".2" d="m332.725 204.753-.063-.419a1.535 1.535 0 0 0-1.929-1.258l-3.437.943c1.656.692 3.521.912 5.429.734Z" fill="#1A2E35"/><path d="M322.338 185.494a.343.343 0 0 1-.293-.115 2.608 2.608 0 0 0-2.18-.985.33.33 0 0 1-.367-.283.347.347 0 0 1 .294-.378 3.27 3.27 0 0 1 2.767 1.205.336.336 0 0 1-.042.472s-.116.073-.179.073v.011Z" fill="#1A2E35"/><path d="m332.41 202.615 1.855 12.564 10.491-2.169-3.364-12.857-8.982 2.462Z" fill="#FCC1BB"/><path d="M321.899 177.551c3.563 6.79 6.047.577 5.387 6.057-.661 5.48 1.31 7.251 1.31 7.251l7.189 10.719c.377.566 1.111.754 1.74.482 1.865-.817 3.07-.639 3.741-.367.472.189.996.136 1.373-.199 1.624-1.436 5.47-5.553 6.655-13.098 2.316-14.785-9.045-17.037-9.045-17.037-6.308-1.31-4.695-8.006-8.446-8.006-2.861 0-2.023 4.705-2.023 4.705s-3.06-2.295-4.842-1.509c-2.295 1.006-.262 5.721-.262 5.721s-6.267-1.372-2.767 5.292l-.01-.011Z" fill="#1A2E35"/><path d="M329.288 186.877h-10.48l.503-1.048h9.977v1.048Z" fill="#116B5E"/><path d="M327.139 188.176a6.491 6.491 0 0 0 1.08 4.873c1.331 1.865 3.448 1.037 4.296-.964.765-1.803.986-4.936-.943-6.109-1.928-1.163-4.035.126-4.433 2.2Z" fill="#FFC3BD"/><path d="M329.581 210.589s6.739-6.36 13.802-5.847c4.8.346 6.288 6.371 6.288 6.371l-20.09-.524Z" fill="#263238"/><path opacity=".2" d="M329.581 210.589s6.739-6.36 13.802-5.847c4.8.346 6.288 6.371 6.288 6.371l-20.09-.524Z" fill="#fff"/><path d="m334.128 287.604-14.756-72.048c-.587-2.882 1.362-5.533 4.255-5.774 9.254-.775 27.929-1.519 34.165 4.212 14.546 13.35 15.699 74.658 15.699 74.658l-39.363-1.048Z" fill="#263238"/><path opacity=".5" d="M323.555 214.424s-2.348.901-3.909 2.462l4.852 23.702c4.338-9.713 4.035-26.153 4.035-26.153h-4.978v-.011Z" fill="#000"/><path d="m279.559 248.95-6.256-3.133-8.782 4.065v4.841s13.624-.503 13.624-.482c0 0 15.374 5.679 21.043 4.799 5.681-.869 23.759-28.815 23.759-28.815l-9.087-8.823-17.292 27.328-17.009.209v.011Z" fill="#FCC1BB"/><path d="M307.75 229.356s6.288-12.396 10.302-16.326c4.014-3.929 10.648-3.405 10.648-3.405s2.358 14.376-10.03 29.339l-10.92-9.608Z" fill="#263238"/><path d="M307.751 227.019s7.65 3.992 12.136 11.851l-2.442 2.095s-4.989-6.978-11.224-10.981l1.53-2.965Z" fill="#263238"/><path opacity=".2" d="M307.751 227.019s7.65 3.992 12.136 11.851l-2.442 2.095s-4.989-6.978-11.224-10.981l1.53-2.965Z" fill="#fff"/><path d="m329.885 366.254 3.594 17.393 7.085-1.047-1.708-16.933-8.971.587Z" fill="#FCC1BB"/><path opacity=".2" d="m339.977 376.826-1.121-11.159-8.971.587 2.243 10.876 7.849-.304Z" fill="#000"/><path d="M371.919 287.08s3.595 18.861-8.719 18.861-28.695 4.023-28.695 4.023 4.716 4.475 5.764 61.55l-10.218.429s-16.967-64.42-13.624-71.493c4.716-9.975 29.135-13.38 29.135-13.38h26.347l.01.01Z" fill="#116B5E"/><path opacity=".2" d="M371.919 287.08s3.595 18.861-8.719 18.861-28.695 4.023-28.695 4.023 4.716 4.475 5.764 61.55l-10.218.429s-16.967-64.42-13.624-71.493c4.716-9.975 29.135-13.38 29.135-13.38h26.347l.01.01Z" fill="#000"/><path d="m327.893 368.894 13.896-.346-.44 5.763-11.664.493-1.792-5.91Z" fill="#116B5E"/><path opacity=".5" d="m327.893 368.894 13.896-.346-.44 5.763-11.664.493-1.792-5.91Z" fill="#fff"/><path d="M330.292 384.748c-.922.115-1.886.052-2.232-.304a.645.645 0 0 1-.073-.765.89.89 0 0 1 .503-.472c1.194-.482 3.94.671 4.066.723.073.032.115.095.105.168a.168.168 0 0 1-.126.157c-.734.22-1.478.388-2.232.482l-.011.011Zm-1.341-1.3c-.115.011-.22.042-.325.084a.471.471 0 0 0-.314.283c-.105.231-.042.335.01.388.398.44 2.264.23 3.616-.105a8.37 8.37 0 0 0-2.987-.65Z" fill="#116B5E"/><path d="M332.493 384.266s-.053.01-.074 0c-.932-.283-2.892-1.677-2.84-2.526 0-.199.115-.461.587-.565a1.303 1.303 0 0 1 1.006.178c1.038.66 1.467 2.63 1.488 2.713a.172.172 0 0 1-.063.168c-.031.021-.073.032-.115.021l.011.011Zm-2.159-2.767h-.105c-.314.063-.314.199-.325.241.011.503 1.331 1.614 2.306 2.044a4.22 4.22 0 0 0-1.248-2.148.89.89 0 0 0-.628-.147v.01Z" fill="#116B5E"/><path d="m333.153 383.144 8.059-.964a.665.665 0 0 1 .692.43l2.243 6.381a1.101 1.101 0 0 1-.65 1.394 1.593 1.593 0 0 1-.22.052c-2.913.294-5.512.451-9.128.891-4.265.513-3.123.891-8.133 1.572-3.018.398-3.982-2.966-2.724-3.29 5.774-1.446 6.172-3.291 8.185-5.659a2.608 2.608 0 0 1 1.676-.796v-.011Z" fill="#116B5E"/><path d="m309.155 370.916 6.687 16.221 6.508-1.3-4.486-17.362-8.709 2.441Z" fill="#FCC1BB"/><path opacity=".2" d="m320.851 380.053-2.987-11.578-8.709 2.441 4.349 10.541 7.347-1.404Z" fill="#000"/><path d="M371.92 287.08s7.609 19.668-17.543 18.861c-9.631-.315-51.342 9.43-51.342 9.43s7.525 3.929 16.957 56.583l-10.679 2.42s-30.267-59.789-26.913-66.862c4.716-9.975 54.349-20.432 54.349-20.432h35.171Z" fill="#116B5E"/><path d="m308.014 373.693 12.66-2.703 1.31 5.239-12.136 2.797-1.834-5.333Z" fill="#116B5E"/><path opacity=".5" d="m308.014 373.693 12.66-2.703 1.31 5.239-12.136 2.797-1.834-5.333Z" fill="#fff"/><path d="M311.818 387.87c-.923.115-1.887.053-2.233-.304a.646.646 0 0 1-.073-.765.889.889 0 0 1 .503-.471c1.195-.482 3.941.67 4.066.723.074.031.116.094.105.167a.167.167 0 0 1-.126.158c-.733.22-1.477.387-2.232.482l-.01.01Zm-1.342-1.299c-.115.01-.22.042-.325.084a.471.471 0 0 0-.314.283c-.105.23-.042.335.01.387.399.44 2.264.231 3.616-.105a8.343 8.343 0 0 0-2.987-.649Z" fill="#116B5E"/><path d="M314.018 387.399s-.052.01-.073 0c-.933-.283-2.893-1.677-2.84-2.526 0-.199.115-.461.586-.565a1.303 1.303 0 0 1 1.006.178c1.038.66 1.468 2.63 1.489 2.714a.175.175 0 0 1-.063.167.145.145 0 0 1-.116.021l.011.011Zm-2.159-2.767h-.105c-.314.063-.314.199-.325.241.011.503 1.331 1.614 2.306 2.054a4.226 4.226 0 0 0-1.247-2.148.9.9 0 0 0-.629-.147Z" fill="#116B5E"/><path d="m314.679 386.267 8.059-.964a.665.665 0 0 1 .692.43l2.242 6.381a1.1 1.1 0 0 1-.65 1.393 1.716 1.716 0 0 1-.22.053c-2.913.293-5.512.45-9.128.89-4.265.514-3.123.891-8.132 1.572-3.018.398-3.983-2.965-2.725-3.29 5.775-1.446 6.173-3.29 8.185-5.658a2.614 2.614 0 0 1 1.677-.797v-.01Z" fill="#116B5E"/><path d="M394.942 376.113c-6.403-1.047-15.909-2.546-20.132-2.85-.933-.073-2.096-.115-3.375-.157v-32.849h-8.048v32.849a65.725 65.725 0 0 0-3.375.157c-4.234.315-13.729 1.803-20.132 2.85a7.632 7.632 0 0 0-6.393 7.534v1.656h7.808l1.048-2.337s14.661-2.536 19.608-2.902c2.725-.199 8.216-.199 10.941 0 4.947.366 19.608 2.902 19.608 2.902l1.048 2.337h7.808v-1.656a7.632 7.632 0 0 0-6.393-7.534h-.021Z" fill="#263238"/><path opacity=".1" d="M394.942 376.113c-6.403-1.047-15.909-2.546-20.132-2.85-.933-.073-2.096-.115-3.375-.157v-32.849h-8.048v32.849a65.725 65.725 0 0 0-3.375.157c-4.234.315-13.729 1.803-20.132 2.85a7.632 7.632 0 0 0-6.393 7.534v1.656h7.808l1.048-2.337s14.661-2.536 19.608-2.902c2.725-.199 8.216-.199 10.941 0 4.947.366 19.608 2.902 19.608 2.902l1.048 2.337h7.808v-1.656a7.632 7.632 0 0 0-6.393-7.534h-.021Z" fill="#fff"/><path d="M360.945 313.464h12.922v27.767a3.743 3.743 0 0 1-3.741 3.741h-5.439a3.743 3.743 0 0 1-3.742-3.741v-27.767Z" fill="#263238"/><path opacity=".2" d="M373.867 313.464h-12.922v7.67h12.922v-7.67Z" fill="#000"/><path d="M398.065 396.315a5.5 5.5 0 1 0 0-11.002 5.502 5.502 0 0 0 0 11.002Zm-61.318 0a5.5 5.5 0 1 0 0-11.002 5.501 5.501 0 1 0 0 11.002Z" fill="#263238"/><path d="M411.081 306.926a105.97 105.97 0 0 0-23.569-3.249c-8.185-.209-38.818-.031-46.091-.031a106.61 106.61 0 0 0-26.305 3.28c-5.397 1.372-3.731 9.168 1.142 9.262.43 0 93.031-.02 93.377 0 5.104.231 6.969-7.848 1.446-9.252v-.01Z" fill="#116B5E"/><path opacity=".3" d="M411.081 306.926a105.97 105.97 0 0 0-23.569-3.249c-8.185-.209-38.818-.031-46.091-.031a106.61 106.61 0 0 0-26.305 3.28c-5.397 1.372-3.731 9.168 1.142 9.262.43 0 93.031-.02 93.377 0 5.104.231 6.969-7.848 1.446-9.252v-.01Z" fill="#000"/><path d="M317.62 316.021a96.545 96.545 0 0 1 47.59 0c5.879 1.498 8.394-7.597 2.504-9.095-17.176-4.38-35.422-4.38-52.599 0-5.879 1.498-3.385 10.593 2.505 9.095Z" fill="#116B5E"/><path d="M317.62 316.021a96.545 96.545 0 0 1 47.59 0c5.879 1.498 8.394-7.597 2.504-9.095-17.176-4.38-35.422-4.38-52.599 0-5.879 1.498-3.385 10.593 2.505 9.095Z" fill="#fff" opacity=".4"/><path d="M386.307 239.446c-.975-.021-1.95.419-2.61 1.498-12.471 20.747-16.904 45.675-12.607 69.471.272 1.488 1.289 2.19 2.421 2.263 1.886.126 35.506 0 36.732 0 1.834 0 3.846-1.561 3.417-3.94-4.004-22.109.408-45.391 11.968-64.629 1.435-2.389-.682-4.632-2.83-4.674-.975-.021-34.364.042-36.502 0l.011.011Z" fill="#116B5E"/><path opacity=".2" d="M386.307 239.446c-.975-.021-1.95.419-2.61 1.498-12.471 20.747-16.904 45.675-12.607 69.471.272 1.488 1.289 2.19 2.421 2.263 1.886.126 35.506 0 36.732 0 1.834 0 3.846-1.561 3.417-3.94-4.004-22.109.408-45.391 11.968-64.629 1.435-2.389-.682-4.632-2.83-4.674-.975-.021-34.364.042-36.502 0l.011.011Z" fill="#000"/><path d="M377.168 308.749c-4.003-22.109.409-45.392 11.969-64.63 2.085-3.478-3.344-6.643-5.429-3.175-12.471 20.747-16.904 45.675-12.607 69.471.723 3.971 6.78 2.295 6.067-1.666Z" fill="#116B5E"/><path d="M377.168 308.749c-4.003-22.109.409-45.392 11.969-64.63 2.085-3.478-3.344-6.643-5.429-3.175-12.471 20.747-16.904 45.675-12.607 69.471.723 3.971 6.78 2.295 6.067-1.666Z" fill="#fff" opacity=".4"/><path d="M335.993 281.411a870306.37 870306.37 0 0 0 32.393 29.622c2.233 2.043 5.576-1.278 3.333-3.332l-32.394-29.622c-2.232-2.043-5.575 1.279-3.332 3.332Z" fill="#263238"/><path d="M335.993 281.411a870306.37 870306.37 0 0 0 32.393 29.622c2.233 2.043 5.576-1.278 3.333-3.332l-32.394-29.622c-2.232-2.043-5.575 1.279-3.332 3.332Z" fill="#fff" opacity=".5"/><path opacity=".2" d="M339.325 278.069c-2.232-2.044-5.575 1.278-3.332 3.332 2.064 1.886 4.129 3.782 6.193 5.668h6.98c-3.28-2.996-6.561-6.004-9.841-9Z" fill="#000"/><path d="M319.098 282.889h44.457c4.045 0 4.055-6.287 0-6.287h-44.457c-4.045 0-4.055 6.287 0 6.287Z" fill="#116B5E"/><path d="M319.098 282.889h44.457c4.045 0 4.055-6.287 0-6.287h-44.457c-4.045 0-4.055 6.287 0 6.287Z" fill="#fff" opacity=".3"/></g><defs><clipPath id="a"><path fill="#fff" d="M0 0h450v450H0z"/></clipPath></defs></svg>