<svg width="25" height="20" viewBox="0 0 25 20" fill="none" xmlns="http://www.w3.org/2000/svg"><rect y=".5" width="25" height="19" rx="2" fill="#fff"/><mask id="a" style="mask-type:luminance" maskUnits="userSpaceOnUse" x="0" y="0" width="25" height="20"><rect y=".5" width="25" height="19" rx="2" fill="#fff"/></mask><g mask="url(#a)"><path fill="#0A17A7" d="M0 .5h25v19H0z"/><path fill-rule="evenodd" clip-rule="evenodd" d="M-1.145-1.32 9.524 6.335V-.767h5.952v7.103l10.67-7.657 1.33 2.1-8.435 6.054H25v6.334h-5.959l8.436 6.053-1.332 2.1-10.669-7.656v7.103H9.524v-7.103L-1.145 21.32l-1.331-2.1 8.435-6.054H0V6.833h5.959L-2.476.78l1.331-2.1Z" fill="#fff"/><path d="M16.668 6.516 27.976-1.4M17.869 13.513l10.137 7.27M7.148 6.495-3.426-1.087M8.295 13.425l-11.721 8.27" stroke="#DB1F35" stroke-width=".667" stroke-linecap="round"/><path fill-rule="evenodd" clip-rule="evenodd" d="M0 11.9h10.714v7.6h3.572v-7.6H25V8.1H14.286V.5h-3.572v7.6H0v3.8Z" fill="#E6273E"/></g></svg>