<svg width="70" height="70" viewBox="0 0 70 70" fill="none" xmlns="http://www.w3.org/2000/svg"><path d="M5.238 56.451c2.024 0 3.69 1.665 3.69 3.684 0 2.02-1.668 3.685-3.69 3.685-2.024 0-3.691-1.665-3.691-3.685s1.667-3.684 3.69-3.684ZM62.5 8.914a2.945 2.945 0 0 1 2.977 2.97 2.945 2.945 0 0 1-2.977 2.972 2.945 2.945 0 0 1-2.977-2.972c0-1.662 1.31-2.97 2.977-2.97Zm-8.929 59.421H35.594v-8.2c0-7.012 5.714-12.599 12.619-12.599 3.452 0 6.666 1.427 8.929 3.685a12.665 12.665 0 0 1 3.69 8.914v8.2h-7.26Z" fill="#fff"/><path class="hover" d="M49.167 32.802c3.809.356 6.666 3.565 6.666 7.368a7.463 7.463 0 0 1-7.5 7.488 7.462 7.462 0 0 1-7.5-7.488c0-1.901.714-3.684 2.024-4.992 1.31-1.426 3.333-2.376 5.476-2.376.358-.12.595-.12.834 0Z" fill="#A1E5DB"/><path d="M49.524 5.468v25.67c0 .595-.12 1.07-.357 1.546h-.714c-2.143 0-4.167.952-5.477 2.378H23.928v7.962l-12.143-7.962h-4.88c-2.144 0-3.93-1.782-3.93-3.922V5.471c0-2.14 1.786-3.922 3.93-3.922h38.57c2.263-.004 4.049 1.78 4.049 3.92Z" fill="#fff"/><path d="M19.405 53.481h-2.976v2.97h2.976v-2.97Zm0-5.943h-2.976v2.971h2.976v-2.971Zm-2.977 8.913h-2.976v2.97h2.976v-2.97Zm0-5.941h-2.976v2.97h2.976v-2.97Zm0-5.943h-2.976v2.97h2.976v-2.97ZM43.095 9.39H25.476c-.834 0-1.548-.713-1.548-1.545 0-.833.714-1.546 1.548-1.546h17.618c.834 0 1.548.713 1.548 1.546 0 .832-.714 1.545-1.547 1.545Zm-27.262 0H9.405c-.834 0-1.548-.713-1.548-1.545 0-.833.714-1.546 1.548-1.546h6.428c.834 0 1.548.713 1.548 1.546 0 .832-.714 1.545-1.548 1.545Zm6.429 19.252H9.405c-.834 0-1.548-.713-1.548-1.545s.714-1.545 1.548-1.545h12.857c.834 0 1.548.713 1.548 1.545-.119.832-.714 1.545-1.548 1.545Zm6.428-12.835H11.072c-.833 0-1.548-.713-1.548-1.546 0-.832.715-1.426 1.548-1.426h17.62c.833 0 1.547.713 1.547 1.426-.12.833-.715 1.546-1.549 1.546Zm14.405 6.417H19.047c-.834 0-1.548-.712-1.548-1.545s.714-1.546 1.548-1.546h24.047c.834 0 1.548.713 1.548 1.546 0 .833-.714 1.545-1.547 1.545Zm-28.928 0H9.405c-.834 0-1.548-.712-1.548-1.545s.714-1.546 1.548-1.546h4.762c.834 0 1.548.713 1.548 1.546 0 .833-.714 1.545-1.548 1.545Zm28.929 6.418H27.024c-.833 0-1.548-.713-1.548-1.545s.713-1.545 1.548-1.545h16.072c.833 0 1.548.713 1.548 1.545-.12.832-.716 1.545-1.548 1.545ZM61.071 69.88c-.832 0-1.548-.712-1.548-1.545v-8.2c0-2.97-1.19-5.823-3.214-7.843-2.143-2.14-4.881-3.21-7.856-3.21-6.191 0-11.19 4.992-11.19 11.172v8.2c0 .833-.715 1.546-1.548 1.546-.834 0-1.549-.713-1.549-1.546v-8.2c0-7.724 6.31-14.143 14.166-14.143 3.81 0 7.38 1.425 10 4.16 2.619 2.615 4.167 6.18 4.167 9.983v8.2c0 .714-.595 1.427-1.428 1.427Z" fill="#116B5E"/><path d="M23.81 44.567c-.238 0-.595-.119-.833-.238L11.31 36.605H6.906c-2.976 0-5.476-2.496-5.476-5.467V5.467C1.43 2.495 3.93 0 6.906 0h38.571c2.977 0 5.476 2.495 5.476 5.467v25.67c0 .714-.119 1.546-.476 2.14-.356.712-1.19 1.07-1.904.712-.714-.356-1.071-1.188-.714-1.901.119-.357.238-.594.238-.951V5.466c0-1.307-1.07-2.496-2.5-2.496H6.905c-1.31 0-2.5 1.07-2.5 2.496v25.67c0 1.308 1.072 2.496 2.5 2.496h4.881c.239 0 .596.12.834.238l9.763 6.417v-5.229c0-.832.714-1.545 1.548-1.545h19.047c.834 0 1.548.713 1.548 1.545 0 .833-.714 1.546-1.548 1.546H25.357v6.536c0 .594-.357 1.069-.832 1.307-.239.12-.478.12-.715.12Z" fill="#116B5E"/><path d="M48.452 49.083c-4.88 0-8.929-4.04-8.929-8.913 0-2.258.834-4.396 2.38-6.06a9.014 9.014 0 0 1 6.548-2.853h.953c4.523.475 7.976 4.279 7.976 8.913 0 4.872-4.046 8.913-8.928 8.913Zm0-14.856c-1.667 0-3.214.713-4.404 1.902-1.07 1.069-1.548 2.495-1.548 4.04 0 3.328 2.619 5.942 5.952 5.942 3.334 0 5.953-2.614 5.953-5.942 0-3.09-2.262-5.586-5.358-5.943l-.595.001Zm20 35.653H8.93c-.834 0-1.548-.712-1.548-1.545 0-.832.714-1.545 1.548-1.545h59.523c.834 0 1.548.713 1.548 1.545-.001.833-.715 1.546-1.548 1.546Zm-63.928 0H2.976c-.834 0-1.548-.712-1.548-1.545 0-.832.714-1.545 1.548-1.545h1.548c.833 0 1.548.713 1.548 1.545-.12.833-.715 1.546-1.548 1.546Z" fill="#116B5E"/><path d="M43.215 69.88c-.834 0-1.548-.712-1.548-1.544v-8.914c0-.832.714-1.545 1.548-1.545.833 0 1.548.713 1.548 1.545v8.913c-.12.833-.716 1.546-1.548 1.546Zm10.356 0c-.833 0-1.548-.712-1.548-1.544v-8.914c0-.832.715-1.545 1.548-1.545.833 0 1.548.713 1.548 1.545v8.913c0 .833-.714 1.546-1.548 1.546ZM62.5 16.401c-2.5 0-4.523-2.02-4.523-4.516A4.518 4.518 0 0 1 62.5 7.37c2.5 0 4.523 2.02 4.523 4.515a4.517 4.517 0 0 1-4.523 4.516Zm0-5.942c-.834 0-1.548.713-1.548 1.546 0 .832.714 1.545 1.548 1.545.834 0 1.548-.713 1.548-1.546-.001-.95-.715-1.545-1.548-1.545ZM5.238 65.365C2.382 65.365 0 62.988 0 60.136c0-2.852 2.382-5.229 5.238-5.229 2.857 0 5.239 2.377 5.239 5.23 0 2.85-2.382 5.228-5.24 5.228Zm0-7.368c-1.19 0-2.262.951-2.262 2.258 0 1.188.952 2.258 2.262 2.258S7.5 61.56 7.5 60.255c0-1.307-1.07-2.258-2.262-2.258Z" fill="#116B5E"/></svg>