<svg width="70" height="62" viewBox="0 0 70 62" fill="none" xmlns="http://www.w3.org/2000/svg"><path d="M59.768 19.738h-7.326v40.8h7.326v-40.8ZM33.605 31.204H26.28v29.337h7.326V31.204Z" fill="#fff"/><path class="hover" d="M46.745 37.723h-7.326V60.54h7.326V37.723Zm-26.162 0h-7.326V60.54h7.326V37.723Z" fill="#A1E5DB"/><path d="M20.466 61.887c-.814 0-1.511-.674-1.511-1.461V39.07h-4.302v21.468c0 .788-.698 1.462-1.512 1.462-.814 0-1.512-.675-1.512-1.462V37.721c0-.787.698-1.461 1.512-1.461h7.326c.813 0 1.512.674 1.512 1.461v22.817c-.001.676-.699 1.35-1.513 1.35Zm13.139.001c-.814 0-1.51-.674-1.51-1.462V32.551h-4.419v27.875c0 .788-.699 1.462-1.51 1.462-.815 0-1.514-.674-1.514-1.462V31.202c0-.786.699-1.349 1.513-1.349h7.326c.814 0 1.512.675 1.512 1.35v29.335c-.002.677-.7 1.35-1.398 1.35Zm13.024-.001c-.814 0-1.511-.674-1.511-1.461V39.07h-4.419v21.468c0 .788-.698 1.462-1.51 1.462-.815 0-1.28-.787-1.28-1.462V37.721c0-.787.699-1.461 1.513-1.461h7.326c.814 0 1.51.674 1.51 1.461v22.817c-.117.676-.815 1.35-1.63 1.35Zm13.139.001c-.813 0-1.512-.674-1.512-1.461V21.088h-4.418v39.34c0 .787-.698 1.462-1.512 1.462-.814 0-1.51-.675-1.51-1.462V19.739c0-.787.696-1.461 1.51-1.461h7.326c.814 0 1.51.673 1.51 1.461v40.8c0 .676-.696 1.35-1.394 1.35Z" fill="#116B5E"/><path d="M68.488 61.887H5.93c-.814 0-1.513-.675-1.513-1.462v-56.2c0-.786.698-1.46 1.513-1.46.813 0 1.511.674 1.511 1.46v54.851h61.046c.814 0 1.512.675 1.512 1.462-.117.676-.813 1.349-1.512 1.349Z" fill="#116B5E"/><path d="M5.931 11.31H1.512C.699 11.31 0 10.634 0 9.847s.698-1.462 1.512-1.462h4.42c.813 0 1.51.675 1.51 1.462 0 .787-.697 1.461-1.51 1.461Zm0 4.27H1.512C.699 15.58 0 14.906 0 14.12s.698-1.462 1.512-1.462h4.42c.813 0 1.51.675 1.51 1.462 0 .787-.697 1.461-1.51 1.461Zm0 4.158H1.512C.699 19.738 0 19.064 0 18.276c0-.787.698-1.461 1.512-1.461h4.42c.813 0 1.51.674 1.51 1.461 0 .788-.697 1.462-1.51 1.462Zm0 4.272H1.512C.699 24.01 0 23.334 0 22.547s.698-1.462 1.512-1.462h4.42c.813 0 1.51.675 1.51 1.462 0 .787-.697 1.462-1.51 1.462Zm0 4.158H1.512C.699 28.168 0 27.494 0 26.707s.698-1.462 1.512-1.462h4.42c.813 0 1.51.675 1.51 1.462 0 .787-.697 1.461-1.51 1.461Zm0 4.272H1.512C.699 32.44 0 31.765 0 30.978c0-.787.698-1.461 1.512-1.461h4.42c.813 0 1.51.674 1.51 1.461s-.697 1.462-1.51 1.462Zm0 4.157H1.512C.699 36.597 0 35.924 0 35.136c0-.787.698-1.462 1.512-1.462h4.42c.813 0 1.51.675 1.51 1.462 0 .788-.697 1.461-1.51 1.461Zm0 4.273H1.512C.699 40.87 0 40.195 0 39.408c0-.787.698-1.461 1.512-1.461h4.42c.813 0 1.51.674 1.51 1.461s-.697 1.462-1.51 1.462Zm0 4.158H1.512C.699 45.028 0 44.353 0 43.566c0-.787.698-1.462 1.512-1.462h4.42c.813 0 1.51.675 1.51 1.462 0 .787-.697 1.462-1.51 1.462Zm0 4.271H1.512C.699 49.299 0 48.624 0 47.837c0-.787.698-1.461 1.512-1.461h4.42c.813 0 1.51.674 1.51 1.461S6.745 49.3 5.932 49.3Zm0 4.159H1.512C.699 53.458 0 52.783 0 51.996c0-.787.698-1.461 1.512-1.461h4.42c.813 0 1.51.674 1.51 1.461s-.697 1.462-1.51 1.462Z" fill="#116B5E"/><path d="M13.257 29.63H7.443c-.814 0-1.51-.675-1.51-1.462 0-.787.696-1.461 1.51-1.461h4.884l8.371-17.422c.233-.449.698-.787 1.164-.787.466 0 1.046.113 1.278.562l8.954 11.129 6.164-8.318c.231-.337.58-.562 1.046-.562.465 0 .814.113 1.162.45l3.256 3.146L53.839 2.991h-1.28c-.812 0-1.51-.674-1.51-1.461s.698-1.462 1.51-1.462h4.42c.582 0 1.046.338 1.278.787.233.45.117 1.124-.232 1.462l-13.14 15.511c-.232.337-.697.45-1.046.562-.465 0-.814-.112-1.047-.449l-3.139-3.035-6.396 8.43c-.232.337-.697.562-1.163.562-.464 0-.93-.226-1.162-.562l-8.721-10.79-7.675 16.185c-.233.562-.814.899-1.279.899Z" fill="#116B5E"/><path d="M58.256 7.15a1.458 1.458 0 0 1-1.396-1.012l-1.512-4.271c-.231-.787.118-1.574.931-1.799.814-.225 1.629.113 1.86.9L59.65 5.24c.233.786-.116 1.573-.93 1.798-.115 0-.348.112-.464.112Z" fill="#116B5E"/></svg>