<svg width="68" height="68" viewBox="0 0 68 68" fill="none" xmlns="http://www.w3.org/2000/svg"><rect width="68" height="68" rx="20" fill="#116B5E"/><path opacity=".4" d="M44.286 12H23.733C16.243 12 12 16.244 12 23.733v20.534C12 51.757 16.244 56 23.733 56h20.553C51.776 56 56 51.756 56 44.267V23.733C56 16.243 51.776 12 44.286 12Z" fill="#DCE9E7"/><path d="m37.782 20.264 7.819 2.91m0 0-2.91 7.818m2.91-7.818-12.62 5.773a1.855 1.855 0 0 0-.914 2.457l2.274 4.972a1.854 1.854 0 0 1-.915 2.458L22 44.06" stroke="#DCE9E7" stroke-width="3.696" stroke-linecap="round" stroke-linejoin="round"/></svg>