<svg width="68" height="68" viewBox="0 0 68 68" fill="none" xmlns="http://www.w3.org/2000/svg"><rect width="68" height="68" rx="20" fill="#116B5E"/><path opacity=".4" d="M44.286 12H23.733C16.243 12 12 16.244 12 23.733v20.534C12 51.757 16.244 56 23.733 56h20.553C51.776 56 56 51.756 56 44.267V23.733C56 16.243 51.776 12 44.286 12Z" fill="#DCE9E7"/><g clip-path="url(#a)"><path d="M34.352 50.443c-.2 0-.402-.046-.583-.14l-5.841-3.024c-1.658-.859-2.955-1.823-3.967-2.946a13.371 13.371 0 0 1-3.469-8.879l-.069-10.764c-.008-1.242.794-2.357 1.993-2.777l10.726-3.74a3.054 3.054 0 0 1 1.995-.01l10.767 3.611c1.205.403 2.02 1.51 2.027 2.75L48 35.298a13.37 13.37 0 0 1-3.352 8.914c-1 1.139-2.286 2.117-3.927 2.992l-5.79 3.092a1.24 1.24 0 0 1-.579.148Z" fill="#DCE9E7"/><path d="M33.107 37.986a1.239 1.239 0 0 1-.869-.343l-3.11-2.99a1.171 1.171 0 0 1-.009-1.687 1.248 1.248 0 0 1 1.733-.011l2.237 2.15 5.463-5.385a1.248 1.248 0 0 1 1.732-.011 1.17 1.17 0 0 1 .012 1.686l-6.325 6.237a1.23 1.23 0 0 1-.864.354Z" fill="#629D94"/></g><defs><clipPath id="a"><path fill="#fff" transform="translate(20 18)" d="M0 0h28v33H0z"/></clipPath></defs></svg>