<svg width="68" height="68" viewBox="0 0 68 68" fill="none" xmlns="http://www.w3.org/2000/svg"><rect width="68" height="68" rx="20" fill="#116B5E"/><path opacity=".4" d="M44.286 12H23.733C16.243 12 12 16.244 12 23.733v20.534C12 51.757 16.244 56 23.733 56h20.553C51.776 56 56 51.757 56 44.267V23.733C56 16.243 51.776 12 44.286 12Z" fill="#DCE9E7"/><path d="M24.665 28.664c-.913 0-1.665.758-1.665 1.697v13.96c0 .92.752 1.679 1.665 1.679.93 0 1.682-.758 1.682-1.68V30.362c0-.939-.752-1.697-1.682-1.697ZM34.063 22c-.913 0-1.665.759-1.665 1.698V44.32c0 .921.752 1.68 1.665 1.68.93 0 1.682-.759 1.682-1.68V23.698c0-.94-.752-1.698-1.682-1.698Zm9.272 14.032c-.93 0-1.682.758-1.682 1.697v6.592c0 .92.751 1.679 1.664 1.679.931 0 1.683-.758 1.683-1.68v-6.59c0-.94-.752-1.698-1.665-1.698Z" fill="#DCE9E7"/></svg>