<svg width="70" height="70" viewBox="0 0 70 70" fill="none" xmlns="http://www.w3.org/2000/svg"><path class="hover" d="m18.94 64.419-5.549 4.003-11.943-12.01 9.771-8.734c1.93-1.7 4.463-2.549 6.998-2.306l24.732 2.184c.966.122 1.93.485 2.533 1.213.723.607 1.086 1.578 1.206 2.547.121.728 0 1.335-.24 1.941L60.925 38.7c.844-.85 2.051-1.335 3.257-1.335 1.208 0 2.293.485 3.259 1.335 1.809 1.82 1.809 4.61 0 6.429L49.345 63.204c-1.93 1.94-4.585 2.912-7.24 2.669l-23.164-1.454Z" fill="#A1E5DB"/><path d="M36.554 35.91c1.448 0 2.654 1.213 2.654 2.669 0 .727-.24 1.334-.724 1.82-.482.485-1.085.727-1.81.727H34.02c-1.448 0-2.654-1.213-2.654-2.669 0-.728.24-1.334.723-1.82.482-.484 1.085-.727 1.81-.727h2.655Z" fill="#116B5E"/><path d="M40.415 30.936c.361.244.722.607.965.971.24.364.362.849.362 1.335 0 1.456-1.206 2.669-2.654 2.669h-7.964c-.722 0-1.327-.243-1.81-.728-.481-.485-.723-1.093-.723-1.82 0-.97.603-1.94 1.448-2.305.363-.243.723-.243 1.206-.243h7.843c.603-.243.964-.122 1.327.121Z" fill="#fff"/><path class="hover" d="M39.207 30.572h-7.841c-.483 0-.845.121-1.207.243-.363-3.276-1.568-6.672-3.619-9.22-1.69-2.184-2.775-4.853-2.775-7.886 0-6.672 5.31-12.253 11.824-12.132 6.394 0 11.581 5.46 11.581 12.132 0 3.033-1.085 5.823-2.895 7.886-2.051 2.548-3.377 5.823-3.74 9.1-.483-.002-.844-.123-1.328-.123Z" fill="#A1E5DB"/><path d="M55.132 35.06h-3.016v3.033h3.016V35.06Zm-3.016-3.032H49.1v3.032h3.016v-3.032ZM8.322 38.094H5.307v3.032h3.015v-3.032Zm0-6.066H5.307v3.032h3.015v-3.032Zm-3.015 9.098H2.29v3.032h3.016v-3.032Zm0-6.066H2.29v3.033h3.016V35.06Zm0-6.065H2.29v3.033h3.016v-3.033Z" fill="#116B5E"/><path d="M13.39 70c-.362 0-.723-.122-1.085-.485L.482 57.505C.241 57.262 0 56.777 0 56.412c0-.363.24-.85.482-1.091l9.892-8.735c2.172-1.94 5.189-2.912 8.085-2.669l24.61 2.063c1.327.121 2.533.728 3.498 1.577.603.607 1.086 1.335 1.327 2.063l11.943-12.01c1.086-1.092 2.654-1.82 4.222-1.82 1.567 0 3.136.607 4.222 1.82a6.254 6.254 0 0 1 0 8.614L50.425 64.301c-2.172 2.184-5.308 3.397-8.324 3.154l-22.68-1.456-5.068 3.639c-.36.24-.602.362-.963.362ZM3.74 56.534l9.893 9.949 4.463-3.277c.24-.243.603-.363.966-.243l23.162 1.577a7.877 7.877 0 0 0 6.032-2.305L66.23 44.159c1.207-1.213 1.207-3.154 0-4.245-.603-.607-1.326-.85-2.17-.85-.846 0-1.57.365-2.173.85L47.774 54.107c-.966 2.062-3.137 3.397-5.43 3.275l-16.165-.728c-.845 0-1.448-.728-1.448-1.577 0-.85.724-1.456 1.567-1.456l16.168.728c.965 0 1.93-.485 2.413-1.335 0-.243.12-.485.24-.606.12-.364.12-.728.12-.971-.12-.607-.361-1.213-.843-1.578-.483-.485-.966-.728-1.57-.728l-24.61-2.062c-2.171-.243-4.222.485-5.79 1.94l-8.687 7.525Z" fill="#116B5E"/><path d="M18.94 65.875c-.362 0-.723-.121-.965-.363l-7.602-6.552c-.603-.607-.722-1.456-.12-2.183.604-.607 1.448-.728 2.172-.122l7.601 6.551c.603.607.723 1.456.12 2.184a1.726 1.726 0 0 1-1.205.485Zm16.407-33.847c-.843 0-1.569-.728-1.569-1.578V18.925c0-3.033 2.414-5.46 5.43-5.46.844 0 1.568.729 1.568 1.578 0 .85-.724 1.578-1.569 1.578a2.428 2.428 0 0 0-2.413 2.426v11.525c.122.728-.602 1.456-1.447 1.456Z" fill="#116B5E"/><path d="M35.347 20.503c-.844 0-1.569-.728-1.569-1.578a2.427 2.427 0 0 0-2.412-2.427c-.845 0-1.57-.728-1.57-1.577 0-.848.724-1.578 1.57-1.578 3.015 0 5.428 2.426 5.428 5.46.122.972-.602 1.7-1.447 1.7Z" fill="#116B5E"/><path d="M38.002 21.837h-5.188c-.844 0-1.569-.728-1.569-1.577 0-.85.724-1.578 1.569-1.578h5.188c.845 0 1.569.728 1.569 1.578-.001.85-.724 1.577-1.569 1.577Z" fill="#116B5E"/><path d="M40.415 32.392h-.122c-.844-.121-1.447-.849-1.326-1.699.362-3.64 1.93-7.278 4.102-9.948 1.567-1.941 2.533-4.367 2.533-6.916 0-5.824-4.463-10.554-10.134-10.675h-.122c-2.654 0-5.066 1.091-6.998 2.912-2.05 2.062-3.136 4.731-3.136 7.642 0 2.547.845 4.974 2.414 6.915 2.17 2.669 3.618 6.309 3.98 9.948.12.85-.482 1.577-1.326 1.699-.844.121-1.57-.485-1.689-1.335-.242-3.033-1.448-6.065-3.378-8.37-2.05-2.427-3.136-5.582-3.136-8.857 0-3.76 1.448-7.279 4.102-9.826C28.712 1.334 31.97 0 35.349 0c3.498 0 6.755 1.455 9.288 4.003 2.414 2.548 3.862 5.945 3.862 9.585 0 3.275-1.086 6.429-3.137 8.856-1.81 2.184-3.137 5.216-3.378 8.371-.122 1.091-.726 1.577-1.57 1.577Z" fill="#116B5E"/><path d="M39.207 37.366h-2.654c-.603 0-1.085-.363-1.327-.727-.24.485-.722.727-1.326.727h-2.655c-1.085 0-2.17-.485-2.896-1.213-.722-.728-1.206-1.82-1.206-2.912 0-1.577.845-2.912 2.293-3.64.603-.242 1.206-.485 1.93-.485h7.841c.724 0 1.327.122 1.93.485.603.365 1.206.85 1.569 1.456a4.2 4.2 0 0 1 .603 2.184c0 2.306-1.81 4.125-4.102 4.125Zm-7.84-5.216c-.122 0-.362 0-.483.121-.362.243-.603.607-.603.971 0 .243.122.607.362.728.24.243.482.364.845.364h2.654c.603 0 1.085.364 1.327.728.24-.485.723-.728 1.326-.728h2.655c.603 0 1.085-.485 1.085-1.092 0-.243 0-.363-.12-.606-.123-.122-.242-.364-.363-.364-.12-.121-.363-.121-.482-.121h-8.203v-.001Z" fill="#116B5E"/><path d="M36.554 42.704H33.9c-2.292 0-4.103-1.821-4.103-4.125 0-1.092.482-2.183 1.208-2.911.722-.728 1.809-1.213 2.895-1.213h2.654c2.293 0 4.102 1.82 4.102 4.125a4.247 4.247 0 0 1-1.206 2.912c-.725.727-1.69 1.212-2.896 1.212Zm-2.533-5.338c-.242 0-.603.121-.724.364-.24.244-.361.485-.361.85 0 .606.482 1.093 1.085 1.093h2.654c.242 0 .603-.122.724-.365.24-.243.361-.485.361-.728 0-.606-.482-1.091-1.085-1.091h-2.654v-.123Zm24.973-12.86c-.242 0-.603-.121-.845-.243-.723-.485-.966-1.334-.482-2.062 1.207-2.063 1.93-4.247 1.93-6.551 0-2.184-.723-4.61-1.93-6.55-.482-.729-.24-1.7.482-2.063.725-.485 1.69-.243 2.05.485 1.568 2.547 2.415 5.338 2.415 8.128 0 2.912-.845 5.702-2.414 8.25-.242.243-.724.606-1.206.606Z" fill="#116B5E"/><path d="M54.77 21.352c-.24 0-.483-.121-.723-.243-.724-.364-.966-1.334-.603-2.062.603-1.092.966-2.306.966-3.639 0-1.213-.363-2.427-.966-3.518-.363-.728-.122-1.7.603-2.063.723-.364 1.688-.121 2.051.607.845 1.577 1.327 3.275 1.327 4.974 0 1.82-.482 3.519-1.327 5.095-.242.606-.845.85-1.328.85Zm-42.706 3.154c-.482 0-.966-.243-1.327-.728-1.569-2.547-2.414-5.338-2.414-8.128 0-2.912.845-5.702 2.414-8.25.482-.728 1.327-.97 2.05-.485.725.485.967 1.335.483 2.063-1.206 2.062-1.93 4.246-1.93 6.552 0 2.182.724 4.61 1.93 6.55.482.728.242 1.7-.482 2.063-.242.242-.483.363-.724.363Zm4.221-3.154c-.482 0-1.085-.243-1.325-.728-.845-1.577-1.327-3.275-1.327-5.094 0-1.821.482-3.519 1.327-5.096.361-.728 1.325-.971 2.05-.607.723.364.966 1.335.604 2.063-.604 1.091-.966 2.305-.966 3.64 0 1.213.363 2.425.966 3.517.362.728.12 1.699-.604 2.062-.241.243-.483.243-.725.243Z" fill="#116B5E"/></svg>