<svg width="93" height="56" viewBox="0 0 93 56" fill="none" xmlns="http://www.w3.org/2000/svg"><path d="M3.74 51.66c.027.86.03 1.723-.003 2.584-.007.198-.192.388-.296.581-.13-.199-.348-.388-.371-.6-.055-.495-.018-.998-.018-1.5L2.87 52.7c-.14.216-.279.434-.425.647-.366.535-.671.525-1.01-.026-.124-.2-.258-.396-.386-.594l-.174.029-.066 1.099c-.021.37.088.796-.469 1.009-.059-.208-.157-.395-.16-.585a56.39 56.39 0 0 1 .006-2.69c.005-.173.163-.342.25-.511.168.098.388.16.495.306.34.459.638.95 1.018 1.527.371-.545.671-1.023 1.014-1.47.12-.156.343-.23.52-.344.09.188.249.372.255.562Zm3.248 1.808c-.02-.351-.012-.708-.077-1.05-.029-.15-.192-.352-.327-.385-.329-.079-.677-.085-1.018-.099-.59-.024-1.019.266-1.258.827-.229.536-.1 1.369.297 1.78.402.414.881.523 1.422.318.11-.04.249-.135.332-.1.524.222.548-.176.595-.5.036-.258.007-.527.007-.791h.027Zm-1.455.803c-.446-.021-.68-.333-.665-.883.012-.489.34-.886.716-.871.377.014.77.495.76.927-.013.487-.368.85-.811.827Zm3.772-1.427c-.374.378-.4.75.004 1.125.063.058.132.137.145.214.033.202.038.41.054.616-.175-.061-.38-.082-.52-.19-.185-.145-.318-.356-.48-.55l-.912.861c-.327-.325-.203-.546-.025-.794.487-.685.48-.69-.012-1.376-.021-.028-.063-.052-.064-.08-.018-.202-.028-.407-.04-.61.19.075.406.115.563.234.173.13.292.332.471.546.198-.241.337-.47.53-.628.123-.101.328-.099.496-.144-.005.177.008.357-.026.527-.018.093-.11.176-.184.25Zm.849-5.599a612.039 612.039 0 0 0-1.559-4.571c-.673-1.952-1.357-3.9-2.03-5.853-.551-1.61-.28-1.324-1.888-1.363-.425-.01-.645.173-.772.602a181.146 181.146 0 0 1-1.309 4.16c-.758 2.35-1.531 4.694-2.277 7.048-.05.162.006.456.122.557.402.354 1.29.053 1.455-.457.278-.85.576-1.692.823-2.55.115-.393.327-.541.704-.54 1.19.004 2.378.002 3.567-.001.382 0 .58.18.696.561.25.822.58 1.616.82 2.44.153.533.472.693.9.653.725.002.918-.182.748-.686ZM6.54 42.881c-.913.002-1.824-.003-2.736.003-.377.001-.44-.196-.34-.512l1.633-5.117c.147.324.274.545.355.784.479 1.442.932 2.895 1.43 4.33.144.415.012.51-.342.512Zm3.995 9.3c-.018.865-.053 1.727-.09 2.59 0 .02-.055.038-.142.091-.093-.103-.236-.189-.238-.278a47.558 47.558 0 0 1-.018-2.352c0-.073.161-.182.262-.205.065-.014.228.1.226.154Zm.223-.916-.133.23c-.1.095-.246.286-.294.263-.128-.06-.293-.21-.297-.329-.001-.106.181-.278.305-.305.125-.028.278.09.419.141Zm4.446 1.275c.09.619.098 1.257.09 1.886 0 .134-.209.267-.322.4-.082-.145-.218-.281-.235-.432-.037-.366-.01-.738-.028-1.107-.019-.358-.136-.704-.542-.705-.42-.003-.58.306-.576.717.004.333.041.678-.028.997-.042.196-.258.355-.396.53-.088-.173-.233-.34-.253-.52-.042-.382.036-.784-.042-1.154-.047-.217-.301-.39-.461-.581-.198.183-.507.337-.567.56-.102.378-.016.806-.073 1.203-.022.164-.206.304-.316.455-.112-.153-.294-.292-.322-.46-.052-.306-.015-.63-.015-.947-.007-1.381-.003-1.455 1.38-1.395.637.026 1.249.149 1.894-.016.38-.099.75.165.812.569Zm.99-.618c-.147-.242-.287-.373-.287-.506-.002-.1.174-.203.271-.303.094.116.245.222.267.351.018.102-.12.232-.251.458Zm.279 1.536c0 .335.022.67-.011 1-.014.132-.154.248-.235.372-.116-.092-.332-.18-.334-.276a34.557 34.557 0 0 1 .012-2.3c.003-.084.225-.243.294-.22.113.041.25.198.261.318.033.365.013.737.013 1.106Zm1.73.217c-.098.139-.188.283-.35.531.348.03.576.014.78.08.13.043.224.206.335.315-.112.107-.218.3-.339.31a8.188 8.188 0 0 1-1.338 0c-.361-.03-.476-.36-.25-.708.235-.365.511-.701.764-1.057.261-.367.21-.485-.235-.585-.116-.027-.243-.038-.345-.096-.079-.045-.188-.168-.173-.225.027-.096.137-.234.217-.238.496-.025 1.003-.08 1.487-.003.45.072.3.443.144.7-.208.34-.465.65-.697.977Zm1.641-2.535c.085-.016.203.155.395.317-.218.133-.348.273-.47.264-.093-.005-.264-.224-.242-.296a.482.482 0 0 1 .317-.285Zm.289 2.291c0 .315.033.637-.014.944-.023.15-.196.276-.3.412-.114-.127-.32-.25-.327-.382-.03-.682-.026-1.366.006-2.047.004-.113.2-.216.308-.322.106.114.288.22.303.346.043.345.016.7.016 1.05h.008Zm.206-7.027c.008.518-.253.8-.7.984-1.472.61-3 .768-4.562.591-1.692-.192-2.832-1.333-3.078-3.052-.302-2.106-.251-4.217.048-6.313.19-1.325.77-2.473 2.077-2.997 1.095-.437 2.259-.463 3.413-.293.678.099 1.357.237 2.015.43.524.155.54.343.326 1.102-.134.474-.45.385-.783.323-.978-.182-1.951-.45-2.937-.51-1.453-.088-2.296.694-2.516 2.151-.298 1.977-.346 3.955-.01 5.936.2 1.186.876 1.877 2.058 1.873.901-.003 1.803-.162 2.703-.268.312-.037.406-.26.402-.569a85.113 85.113 0 0 1 .001-2.586c.009-.418-.17-.562-.562-.545-.446.018-.894.003-1.343-.001-.323-.005-.52-.143-.522-.505-.003-.364-.025-.794.44-.815a39.916 39.916 0 0 1 3.045-.014c.381.011.48.352.482.697.003.738 0 1.478 0 2.217 0 .74-.008 1.444.003 2.164Zm-2.497-18.996c-.01-.347.154-.52.496-.518.412.003.823.002 1.236.002.411-.002.823-.009 1.234 0 .341.01.539.173.55.55.012.386-.056.766-.485.79-.873.048-1.75.056-2.62.004-.474-.027-.401-.484-.41-.828Zm5.184 25.272c.081.551.081 1.118.069 1.677-.005.174-.169.344-.26.516l-.18-.012c-.056-.219-.138-.435-.157-.655-.027-.332.055-.689-.033-.996-.075-.258-.296-.607-.508-.658-.35-.082-.598.218-.634.601-.032.332.004.67-.044 1-.036.246-.156.48-.276.828-.173-.21-.287-.284-.29-.362-.024-.77-.036-1.54-.025-2.31 0-.092.159-.243.262-.26a8.503 8.503 0 0 1 1.12-.112c.556-.023.874.19.956.742Zm3.329.363c-.001-.593-.283-.93-.844-1.009-.119-.017-.235-.056-.355-.076-.548-.091-1.037.009-1.37.507-.36.536-.415 1.116-.123 1.696.373.74.763.873 1.913.707-.108.417-.438.392-.73.406-.306.016-.612.004-.919.004l-.045.146c.117.137.21.35.357.399.881.3 1.97.08 2.098-1.143.056-.54.018-1.09.018-1.637Zm-1.413 1.23c-.501.013-.764-.263-.775-.82-.01-.516.333-.947.75-.942.4.006.754.42.761.89.007.548-.257.86-.736.873Zm5.592-2.239c.035.188.146.407.088.558a27.019 27.019 0 0 1-.834 1.919c-.193.408-.531.422-.724.02a27.227 27.227 0 0 1-.876-2.013c-.055-.145.06-.36.096-.541l.183-.017c.122.132.275.247.355.402.143.276.232.584.367.865.053.108.173.182.261.27.075-.084.175-.156.22-.255.13-.285.207-.602.371-.863.1-.157.325-.233.493-.345Zm.376-4.846c-.687-1.074-1.394-2.135-2.09-3.2-.13-.198-.25-.401-.358-.575.052-.08.059-.101.071-.108.11-.053.22-.102.329-.153.783-.367 1.368-.909 1.643-1.782a8.104 8.104 0 0 0 .177-4.267c-.176-.783-.699-1.356-1.468-1.56-.627-.167-1.287-.28-1.932-.274-1.22.01-2.44.117-3.661.192-.6.036-.703.15-.703.784-.004 3.628-.004 7.254 0 10.882 0 .636.182.806.812.804.647 0 .795-.138.798-.804a119.49 119.49 0 0 0-.017-3.168c-.01-.425.148-.571.553-.528.375.043.766-.004 1.13.077.277.06.616.192.767.407a49.891 49.891 0 0 1 2.07 3.21c.368.628.824.922 1.52.8.17-.03.412-.094.468-.215.059-.132-.017-.377-.11-.522Zm-5.987-5.08c-.37 0-.406-.254-.406-.538-.002-.72-.002-1.443-.002-2.164h.005c0-.687.02-1.374-.009-2.059-.02-.465.133-.697.608-.693.843.006 1.688-.03 2.532-.005.866.025 1.26.409 1.5 1.244.3 1.049.106 2.07-.151 3.072-.202.786-.896 1.063-1.599 1.125-.82.073-1.651.015-2.478.018Zm6.687-23.501c.498.922.97 1.859 1.476 2.776.216.395.222.76.016 1.15-.914 1.73-1.83 3.458-2.73 5.197-.248.478-.552.749-1.13.714-.79-.05-1.585-.003-2.377-.02-.54-.011-.633-.19-.448-.701.689-1.91 1.368-3.823 2.051-5.735.538-1.5 1.07-3.001 1.616-4.498.081-.22.232-.413.35-.62a70.9 70.9 0 0 1 .184-.02c.332.585.671 1.165.992 1.757Zm2.076 34.834h-.01c0-.316.038-.638-.013-.944-.03-.172-.184-.422-.323-.454-.377-.089-.776-.095-1.167-.107-.605-.022-.974.36-1.163.876-.22.607-.152 1.215.296 1.723.36.408.892.525 1.416.329.11-.041.245-.136.33-.105.584.215.594-.207.63-.581.024-.243.004-.491.004-.737Zm-1.393.83c-.462-.003-.69-.28-.696-.845-.007-.505.28-.898.663-.909.382-.011.784.436.794.885.01.51-.305.872-.76.869Zm2.611-2.631c.003.808.018 1.618-.01 2.426-.008.268-.128.532-.197.799l-.268-.017c-.05-.207-.14-.412-.145-.62-.015-.915-.007-1.83-.005-2.745 0-.07-.016-.151.013-.21.075-.144.17-.281.257-.421.11.14.24.268.32.423.05.1.035.242.035.364Zm2.964 1.544c0 .21.014.422-.002.633-.051.64-.485 1.087-1.079 1.13-.736.052-1.188-.254-1.286-.974-.07-.513-.045-1.047-.014-1.567.007-.129.194-.245.3-.366.088.133.237.26.25.402.042.381.017.77.032 1.156.017.4.177.673.622.667.43-.005.491-.3.497-.643.005-.385-.018-.776.032-1.156.019-.145.208-.267.32-.4.109.128.282.24.315.386.052.233.014.487.014.732Zm2.45.456c.514-.028.728-.348.573-.808a1.35 1.35 0 0 0-1.16-.898c-1.016-.062-1.59.695-1.416 1.87.143.974 1.324 1.508 2.101.93.14-.105.174-.357.257-.54-.162-.004-.339-.052-.483 0-.567.193-.938.081-1.225-.55.513 0 .935.019 1.353-.004Zm-.156-.703h-1.037c.31-.551.608-.555 1.037 0Zm1.98-5.742c-.421-1.245-.85-2.487-1.275-3.728-.8-2.335-1.583-4.676-2.412-7.002-.396-1.114-.262-.992-1.322-.999-.208 0-.437-.058-.615.016-.215.086-.491.245-.56.44-.372 1.057-.685 2.135-1.028 3.203-.464 1.45-.939 2.898-1.407 4.349-.414 1.282-.83 2.565-1.226 3.855-.041.137.004.372.1.468.364.361 1.31.106 1.477-.39.297-.878.591-1.759.856-2.648.098-.327.28-.475.59-.475 1.24-.006 2.48-.005 3.722-.003.337 0 .517.168.621.51.244.785.518 1.561.799 2.335.285.79.392.85 1.202.804.485-.03.64-.256.478-.735Zm-3.619-4.312c-.911-.005-1.821-.002-2.733-.002-.263 0-.462-.07-.358-.398.534-1.694 1.074-3.386 1.612-5.078l.137-.042c.18.49.373.976.537 1.471.387 1.159.747 2.328 1.147 3.483.137.39.082.567-.342.566Zm7.083 10.389c-.186-.958-.832-1.428-1.785-1.303-.1.015-.199.016-.35.027-.02-.172-.012-.334-.066-.47-.085-.215-.201-.58-.324-.59-.403-.029-.339.355-.341.619-.011.877 0 1.756-.004 2.634-.002.446.063.786.642.62.127-.036.292.056.437.098.879.249 1.965-.743 1.791-1.635Zm-1.481 1c-.47-.001-.706-.28-.711-.838-.006-.513.316-.924.72-.918.374.004.725.423.732.874.007.555-.27.884-.741.882Zm3.971-1.84a1.376 1.376 0 0 0-.807-.474c-1.016-.162-1.635.589-1.514 1.765.103 1.007 1.285 1.593 2.097 1.02.153-.107.218-.344.323-.522-.18-.008-.376-.066-.541-.018-.602.175-.94.07-1.208-.552.42 0 .76.04 1.088-.012.28-.045.714-.136.773-.314.084-.252-.036-.663-.211-.893Zm-1.54.503c.406-.546.649-.546 1.084 0h-1.084Zm2.952-8.313a13.04 13.04 0 0 0-.008-.791c-.032-.686-.33-1.081-.982-1.238a49.981 49.981 0 0 0-2.568-.566c-2.287-.423-2.84-2.26-2.463-4.214.378-1.962 1.528-2.409 3.15-2.516 1.05-.068 2.124.121 3.175.282.751.116.915.432.72 1.027-.212.641-.41.697-1.05.472-1.152-.407-2.324-.678-3.53-.21-.143.054-.302.105-.412.205-.733.66-.6 1.531-.48 2.361.1.696.63 1.008 1.265 1.139 1.011.209 2.03.385 3.033.628.858.21 1.365.8 1.594 1.683.312 1.205.268 2.373-.265 3.494-.533 1.117-1.53 1.507-2.658 1.63-.306.035-.62.005-.929.005-1.172.054-2.292-.186-3.37-.648-.492-.21-.582-.426-.391-.95.19-.52.417-.661.898-.444 1.072.486 2.174.757 3.355.682 1.32-.083 1.894-.679 1.916-2.03Zm1.689 7.822c.02.79.047 1.584-.02 2.37-.077.919-1.206 1.484-1.978 1.02-.115-.067-.144-.28-.213-.427.145-.06.296-.177.437-.165.352.027.708.148 1.03-.295h-.705c-.406-.002-.766-.2-.827-.579-.107-.667-.106-1.354-.114-2.033-.002-.102.19-.207.292-.312.096.124.26.24.274.371.04.418.02.843.032 1.263.01.364.164.611.557.611.394 0 .548-.24.558-.608.01-.405-.02-.813.035-1.21.022-.155.232-.28.355-.42.1.139.283.274.287.414Zm.232-30.729c.635 1.206 1.298 2.398 1.887 3.627.127.266.086.702-.037.986-.232.544-.59 1.03-.878 1.548-.216.39-.501.58-.96.563-.774-.03-1.55-.004-2.326-.01-.721-.004-.794-.091-.546-.775.715-1.976 1.446-3.944 2.175-5.914.051-.14.14-.265.212-.398l.212-.144c.087.172.171.346.26.517Zm1.575 30.214c-.848 0-1.452.622-1.451 1.494.001.85.64 1.527 1.442 1.53.832.006 1.416-.619 1.423-1.519.006-.931-.532-1.504-1.414-1.505Zm.008 2.345c-.477.003-.811-.336-.817-.828-.004-.462.411-.935.82-.93.373.004.801.486.798.898-.004.46-.374.857-.8.86Zm4.319-1.201a6.74 6.74 0 0 1-.02 1.314c-.021.16-.24.292-.369.437-.093-.148-.246-.29-.264-.449-.042-.364-.023-.736-.022-1.105.003-.393-.116-.743-.545-.736-.423.007-.617.319-.606.756.007.316.047.644-.021.944-.05.215-.253.391-.387.586-.095-.184-.24-.359-.272-.552-.045-.292-.012-.595-.012-.895-.002-.782.359-1.246 1.082-1.392.895-.18 1.369.166 1.436 1.092Zm-.715-15.563c.018 1.6.007 3.202.007 4.805 0 1.567-.005 3.133 0 4.699.003.933-.322.988-1.164.88-.135-.016-.291-.23-.35-.385-.064-.17-.032-.382-.032-.575-.002-3.116 0-6.231-.003-9.347 0-.683-.03-.711-.699-.715-.62-.005-1.24-.013-1.86.001-.506.01-.653-.274-.66-.732-.005-.457.174-.685.641-.683 2.274.007 4.55.007 6.824.001.441-.001.618.195.606.642-.013.43-.062.778-.605.77-.689-.01-1.378.018-2.067-.006-.465-.016-.643.16-.638.644Zm3.84 13.829c-.02-.164-.211-.308-.325-.462-.111.146-.27.273-.327.438-.065.189-.038.41-.056.676-.31-.023-.547-.051-.785-.057-.628-.014-.972.373-1.193.913-.25.62-.103 1.19.303 1.668.368.436.86.55 1.41.357.138-.05.294-.093.434-.075.393.051.546-.148.551-.506.011-.562.007-1.125.007-1.688 0-.422.03-.848-.019-1.264Zm-1.388 2.935c-.455 0-.722-.304-.734-.833-.011-.478.34-.924.729-.927.367 0 .725.423.732.872.01.558-.261.888-.727.888Zm5.555.126c-.206.177-.386.456-.621.516-.568.142-1.085-.01-1.46-.527-.377-.52-.403-1.092-.159-1.645.245-.549.687-.873 1.327-.84.217.043.463.04.644.149.12.072.149.302.218.463-.145.04-.31.144-.435.107-.772-.222-1.241.121-1.19.899.038.588.356.804 1.002.746.22-.02.449.083.674.131Zm2.813-2.021c-.01.662 0 1.333-.122 1.978-.083.444-.685.657-1.26.583a1.167 1.167 0 0 1-.972-.957c-.04-.26-.034-.526-.047-.79.013-.264-.009-.535.05-.787.03-.132.198-.228.304-.34.11.115.299.221.315.35.049.399.032.806.039 1.21.007.347.074.635.504.64.425.005.582-.263.609-.631.027-.404-.003-.813.04-1.214.014-.134.175-.252.269-.378.095.111.273.226.27.336Zm2.025-.01c-.674.255-.57.84-.536 1.37.013.195.169.378.252.57.05.117.152.28.11.353-.063.114-.229.237-.35.235-.43-.005-.648-.297-.7-.7-.038-.313-.012-.633-.023-.95-.004-.156.032-.383-.053-.458-.561-.488-.049-.853.139-1.229.047-.093.403-.145.496-.067.254.214.443.509.69.81.01-.026.005.055-.025.066Z" fill="#116B5E"/><path d="M22.916 6.155c.021-.88.002-1.76.007-2.641.005-.655.152-.813.794-.816 1.483-.007 2.965-.001 4.448-.004.649 0 .715-.07.72-.724.005-.457.003-.916.007-1.373.003-.38.176-.595.565-.595 2.206.001 4.413-.014 6.618.027.293.005.636.25.859.48a686.383 686.383 0 0 1 6.877 7.228c.42.449.852.617 1.45.61 3.085-.023 6.17 0 9.255-.019.653-.004 1.14.215 1.59.699 3.894 4.175 7.806 8.336 11.712 12.5.595.635 1.194 1.263 1.774 1.91.098.11.167.318.134.45-.022.09-.243.161-.382.178-.793.095-1.436-.097-2.023-.749-1.545-1.721-3.166-3.37-4.758-5.047-.13-.137-.27-.263-.405-.394l-.158.023c-.024.23-.067.46-.067.69-.005 2.959-.002 5.916-.004 8.875 0 .94-.029.966-.97.968-.724 0-1.449-.014-2.172.003-.468.012-.645-.195-.641-.665.014-1.32.035-2.643-.015-3.96-.013-.369-.17-.813-.414-1.077a284.692 284.692 0 0 0-5.214-5.48 1.32 1.32 0 0 0-.855-.356c-2.93-.027-5.86-.01-8.79-.023-.458-.001-.63.136-.626.634.02 3.345.01 6.69.01 10.036 0 .853-.035.887-.88.888h-2.069c-.813-.003-.867-.058-.868-.91-.001-1.181-.025-2.36.01-3.54.016-.555-.16-.959-.535-1.35-3.1-3.247-6.187-6.511-9.277-9.768-1.737-1.83-3.471-3.663-5.216-5.484-.334-.349-.503-.73-.49-1.224Zm47.496 32.188c-.164-1.44-1.056-2.516-2.232-2.808-1.356-.337-2.71-.403-4.087-.084-1.135.264-1.957.893-2.352 1.99a7.532 7.532 0 0 0-.416 2.052 35.171 35.171 0 0 0-.032 3.64c.036.818.163 1.643.363 2.435.27 1.07.972 1.783 2.006 2.161 1.26.463 2.559.411 3.828.19 1.365-.235 2.4-1.043 2.685-2.5.253-1.303.353-2.635.458-3.463-.09-1.541-.103-2.583-.22-3.613Zm-1.616 6.188c-.145 1.394-.82 2.029-2.186 2.098a11.59 11.59 0 0 1-1.344-.006c-1.246-.082-2.049-.814-2.23-2.078-.278-1.963-.24-3.936-.008-5.897.12-1.009.711-1.676 1.694-1.857.924-.168 1.818-.175 2.704.116.832.272 1.232.952 1.332 1.778.126 1.028.156 2.068.23 3.117-.063.904-.099 1.82-.192 2.729Zm2.37 7.969c-.52.524-.548 1.284-.077 1.846.066.079.12.245.083.321a.486.486 0 0 1-.3.235c-.337.076-.715-.261-.763-.688-.035-.311-.014-.63-.025-.946-.006-.157.034-.387-.049-.458-.521-.447-.149-.812.088-1.172.081-.124.352-.28.385-.248.284.262.534.564.814.876-.044.066-.087.163-.156.234Zm1.137-.313c-.016.86-.05 1.721-.084 2.582 0 .02-.054.037-.147.095-.087-.1-.226-.185-.23-.276a51.214 51.214 0 0 1-.009-2.345c.002-.077.15-.189.249-.214.06-.017.222.101.22.158Zm.023-.797c.014.134-.1.28-.212.544-.162-.241-.306-.364-.314-.498-.005-.101.157-.216.246-.324.1.091.27.176.28.278Zm-.685-23.91c.006-.433.234-.59.618-.591.394-.003.788-.002 1.183-.002v.003c.395 0 .79.007 1.183-.003.402-.008.552.2.537.589-.014.357.01.76-.476.776-.823.027-1.647.027-2.47-.002-.454-.014-.581-.343-.575-.77Zm3.745 25.462c.025.472.034.95-.008 1.42-.014.15-.22.284-.337.425-.104-.14-.278-.27-.296-.42-.045-.4-.025-.806-.027-1.21-.002-.34-.13-.624-.48-.626-.347 0-.628.203-.653.605-.024.367.023.743-.034 1.102-.03.195-.213.366-.327.548-.115-.19-.286-.367-.33-.573-.057-.268-.014-.559-.014-.84-.001-.861.445-1.339 1.34-1.432.702-.073 1.127.278 1.166 1Zm2.492-.882c-.119-.014-.235-.06-.352-.085-.583-.12-1.123-.045-1.469.5-.366.573-.402 1.207-.06 1.802.293.508.761.746 1.36.664.126-.018.257-.018.534-.035-.427.526-.84.33-1.23.322-.137-.002-.278.125-.416.193.088.138.15.361.27.402.881.296 2.052.062 2.067-1.208.007-.581.009-1.163.007-1.744-.001-.728-.004-.725-.71-.811Zm-.701 2.215c-.468-.01-.785-.357-.78-.858.002-.465.428-.924.834-.901.371.02.767.505.759.928-.01.48-.362.84-.813.831Zm-3.571-17.907c0-.333-.102-.74.36-.883.487-.151.91.02 1.188.472 1.756 2.837 3.513 5.673 5.27 8.507.024.037.073.058.185.141.021-.276.053-.492.053-.708.004-2.535-.002-5.071.005-7.608.002-.672.147-.819.725-.828.663-.013.793.107.794.783.003 3.594.001 7.186.003 10.779 0 .36.02.749-.41.866-.463.127-.895.048-1.178-.41a3932.234 3932.234 0 0 1-5.473-8.87c-.028.348-.057.544-.057.74-.001 2.588.002 5.177-.001 7.767 0 .657-.176.818-.786.818-.43 0-.634-.216-.67-.63-.012-.122-.012-.246-.012-.369 0-3.523-.003-7.045.004-10.567Zm8.623 17.869c.199.028.392.092.587.141-.148.17-.264.42-.45.5-1.008.43-2.11-.517-1.946-1.644.127-.87.667-1.33 1.642-1.303.072.016.291.003.432.105.14.099.201.312.297.475-.162.044-.366.174-.48.116-.438-.221-.817-.113-1.039.255-.148.247-.214.66-.112.913.09.223.456.343.717.472.09.045.237-.046.352-.03Zm2.317-2.307c-.844-.013-1.482.617-1.487 1.466-.006.866.61 1.545 1.416 1.558.823.014 1.465-.634 1.476-1.487.013-.893-.564-1.523-1.405-1.537Zm-.027 2.344c-.5.005-.759-.277-.765-.834-.005-.487.317-.903.718-.926.41-.024.794.41.8.903.005.544-.265.851-.753.857Zm3.872-.114c-.036.443-.532.79-1.107.876-.288-.136-.597-.239-.85-.42-.113-.08-.113-.324-.162-.492.15-.004.307-.035.453-.006.18.039.35.17.528.18.145.007.297-.106.445-.165-.117-.13-.214-.294-.356-.38-.217-.133-.524-.157-.684-.33-.19-.208-.422-.576-.356-.78.088-.276.413-.556.696-.654.279-.097.647-.014.946.084.125.042.175.327.26.5-.166.013-.335.044-.5.032-.148-.012-.295-.105-.438-.098-.094.004-.228.109-.258.2-.022.065.073.214.153.266.157.104.334.185.513.241.462.147.76.425.717.945Zm1.708-2.07c.055.093.022.331-.06.409-.45.436-.528 1.339-.153 1.806.089.11.078.302.112.456-.171.038-.425.167-.497.098-.208-.199-.417-.458-.486-.732-.084-.33-.018-.697-.034-1.048a1.19 1.19 0 0 0-.097-.401c-.069-.17-.272-.37-.23-.484.103-.28.309-.52.485-.766.034-.047.123-.05.208-.082.08.052.176.092.243.16.18.186.376.366.509.584Zm2.711 2.004c-.019.43-.288.686-.647.8-.443.143-.904.106-1.258-.24-.121-.12-.132-.354-.194-.534.167.008.35-.026.498.034.31.123.6.264 1.004-.08-.214-.139-.376-.259-.55-.355-.208-.116-.45-.183-.639-.324-.384-.285-.385-.93-.029-1.25.304-.271 1.171-.305 1.462-.025.11.106.148.293.219.442-.17.028-.36.122-.507.075-.551-.178-.546-.195-.787.251l.846.367c.363.158.6.408.581.84Zm.023-6.814c-.008.466-.215.657-.67.655-1.947-.01-3.893 0-5.84-.007-.583-.002-.726-.16-.728-.764-.005-1.832-.003-3.662-.003-5.492.002-1.812 0-3.625.003-5.438.002-.668.1-.77.747-.772 1.86-.006 3.721-.004 5.581 0 .562.002.707.145.703.655-.007.587-.159.749-.738.752-1.378.004-2.756.013-4.133-.004-.417-.006-.586.127-.573.571.024.914.026 1.83 0 2.745-.016.531.183.702.698.684 1.015-.035 2.033 0 3.049-.013.45-.005.668.162.652.65-.02.6-.118.748-.667.754-1.051.011-2.102.024-3.153-.004-.466-.013-.592.172-.58.62.024.984.023 1.97 0 2.955-.01.474.154.66.63.654 1.43-.02 2.86-.014 4.289 0 .632.005.743.162.733.797v.001ZM.61 32.465c-.245-.073-.525-.312-.605-.543-.045-.131.243-.494.45-.579.337-.14.73-.189 1.1-.189 8.895-.01 17.79-.007 26.687-.007 21.033 0 42.066-.001 63.098.007.42.002.858.07 1.253.209.189.066.428.39.406.566-.025.196-.293.444-.504.512-.32.103-.68.087-1.022.087-7.846.005-15.69.003-23.533.003H46.476l-44.79-.001c-.361 0-.741.037-1.077-.065Z" fill="#116B5E"/></svg>